{"glyphs":{"0":{"ha":789,"x_min":133,"x_max":865,"o":"m 414 158 q 496 185 458 158 q 562 254 533 211 q 612 352 590 297 q 647 464 633 407 q 668 575 661 521 q 675 671 675 629 q 653 775 675 742 q 588 808 632 808 q 504 782 542 808 q 438 713 467 756 q 387 614 408 669 q 351 501 365 558 q 331 390 338 444 q 324 294 324 336 q 346 190 324 222 q 414 158 368 158 m 382 -19 q 267 5 314 -19 q 190 69 219 29 q 147 160 160 110 q 133 265 133 211 q 169 556 133 424 q 267 783 204 688 q 419 932 331 879 q 617 985 508 985 q 732 960 685 985 q 809 896 779 936 q 852 805 839 856 q 865 700 865 754 q 830 410 865 542 q 731 182 794 278 q 579 33 668 86 q 382 -19 490 -19 z "},"1":{"ha":789,"x_min":278,"x_max":789,"o":"m 278 763 q 371 801 322 779 q 467 848 419 822 q 561 902 515 874 q 644 963 607 931 l 789 963 l 557 0 l 350 0 l 517 693 q 411 642 468 665 q 303 603 354 619 l 278 763 z "},"2":{"ha":789,"x_min":83,"x_max":865,"o":"m 604 985 q 708 967 660 985 q 791 917 756 949 q 846 844 826 886 q 865 756 865 803 q 854 661 865 703 q 817 581 843 619 q 747 501 790 542 q 639 411 703 461 q 563 356 601 382 q 488 301 525 329 q 417 242 451 274 q 351 172 382 211 l 765 172 l 724 0 l 83 0 q 126 151 96 88 q 202 267 157 215 q 304 365 247 319 q 428 461 361 410 q 534 545 490 510 q 605 610 578 581 q 644 667 632 640 q 657 722 657 693 q 631 783 657 758 q 565 807 606 807 q 454 783 508 807 q 336 710 400 758 l 265 861 q 432 957 349 929 q 604 985 515 985 z "},"3":{"ha":789,"x_min":76,"x_max":844,"o":"m 658 511 q 749 426 717 483 q 781 300 781 368 q 757 186 781 243 q 682 83 733 129 q 551 9 631 38 q 361 -19 472 -19 q 76 46 203 -19 l 151 210 q 251 165 192 182 q 374 147 311 147 q 449 156 413 147 q 514 183 486 164 q 558 233 542 203 q 575 308 575 264 q 528 394 575 365 q 404 424 482 424 l 315 424 l 356 588 l 456 588 q 517 593 485 588 q 575 613 549 599 q 619 652 601 628 q 636 715 636 676 q 603 787 636 764 q 515 810 569 810 q 420 794 472 810 q 313 750 368 779 l 260 906 q 400 965 328 944 q 550 985 472 985 q 679 965 624 985 q 772 911 735 944 q 826 835 808 878 q 844 749 844 793 q 833 677 844 713 q 798 610 821 642 q 740 553 775 579 q 658 511 704 528 z "},"4":{"ha":789,"x_min":93,"x_max":886,"o":"m 632 718 q 556 643 596 683 q 476 559 517 603 q 398 470 436 515 q 326 382 360 425 l 551 382 l 632 718 m 886 963 l 746 382 l 847 382 l 807 215 l 704 215 l 651 0 l 454 0 l 506 215 l 93 215 l 128 368 q 236 506 172 429 q 375 664 300 583 q 531 822 450 744 q 689 963 611 900 l 886 963 z "},"5":{"ha":789,"x_min":88,"x_max":907,"o":"m 164 214 q 268 169 213 185 q 375 154 324 154 q 528 192 475 154 q 581 308 581 229 q 563 369 581 342 q 504 415 544 396 q 397 444 464 433 q 232 454 329 454 q 319 715 278 583 q 393 963 361 846 l 907 963 l 865 790 l 522 790 q 492 690 508 740 q 464 604 476 639 q 608 573 547 597 q 708 511 668 549 q 767 426 747 474 q 786 324 786 378 q 760 182 786 246 q 683 74 735 118 q 556 5 632 29 q 379 -19 479 -19 q 313 -15 350 -19 q 235 -3 275 -11 q 158 17 196 4 q 88 46 119 29 l 164 214 z "},"6":{"ha":789,"x_min":146,"x_max":901,"o":"m 876 807 q 716 794 790 804 q 580 758 642 785 q 472 688 518 732 q 394 572 425 643 q 478 601 431 592 q 568 610 526 610 q 665 594 619 610 q 744 545 710 578 q 797 464 778 513 q 817 351 817 415 q 788 192 817 261 q 708 76 758 124 q 592 5 658 29 q 451 -19 525 -19 q 331 3 386 -19 q 234 67 275 25 q 169 173 193 110 q 146 319 146 236 q 188 559 146 442 q 315 768 229 676 q 533 916 401 860 q 846 972 665 972 q 872 972 857 972 q 901 971 886 972 l 876 807 m 619 338 q 583 429 619 404 q 497 454 547 454 q 427 445 463 454 q 361 424 392 436 q 343 315 343 371 q 374 201 343 249 q 468 153 404 153 q 577 201 535 153 q 619 338 619 250 z "},"7":{"ha":789,"x_min":188,"x_max":942,"o":"m 188 0 q 264 213 214 103 q 376 428 314 324 q 508 626 439 533 q 643 788 578 719 l 225 788 l 268 963 l 942 963 l 906 813 q 780 683 853 768 q 633 490 707 599 q 496 255 560 381 q 397 0 432 129 l 188 0 z "},"8":{"ha":789,"x_min":129,"x_max":875,"o":"m 129 218 q 141 298 129 260 q 178 372 153 336 q 244 442 204 408 q 342 511 285 476 q 285 584 308 543 q 263 683 263 625 q 283 792 263 738 q 345 889 303 846 q 451 958 388 932 q 603 985 515 985 q 711 968 661 985 q 797 922 761 951 q 854 849 833 892 q 875 754 875 806 q 868 690 875 724 q 840 622 861 656 q 781 553 819 588 q 681 488 743 518 q 725 451 704 471 q 761 407 746 432 q 785 351 776 382 q 794 282 794 321 q 770 165 794 219 q 699 69 746 110 q 583 4 653 28 q 425 -19 514 -19 q 321 -8 374 -19 q 226 33 268 4 q 156 106 183 61 q 129 218 129 151 m 594 276 q 585 326 594 304 q 558 365 575 347 q 517 398 540 383 q 468 426 494 413 q 398 383 425 406 q 355 336 371 360 q 333 289 339 313 q 328 243 328 265 q 362 170 328 194 q 444 146 396 146 q 501 155 474 146 q 549 181 528 164 q 582 222 569 197 q 594 276 594 246 m 453 696 q 481 621 453 651 q 547 567 508 590 q 655 645 628 604 q 682 725 682 686 q 654 794 682 769 q 578 819 626 819 q 487 783 521 819 q 453 696 453 747 z "},"9":{"ha":789,"x_min":107,"x_max":863,"o":"m 132 160 q 292 172 218 161 q 428 208 367 182 q 537 279 490 235 q 614 394 583 324 q 530 366 578 375 q 440 357 482 357 q 344 373 389 357 q 265 422 299 389 q 211 502 231 454 q 192 615 192 550 q 221 774 192 704 q 300 890 250 843 q 417 962 350 938 q 557 986 483 986 q 677 964 621 986 q 774 899 733 942 q 839 794 815 857 q 863 647 863 731 q 821 408 863 525 q 693 199 779 290 q 475 51 607 107 q 163 -6 343 -6 q 137 -6 151 -6 q 107 -4 122 -6 l 132 160 m 389 629 q 425 538 389 563 q 511 513 461 513 q 581 522 546 513 q 647 543 617 531 q 665 651 665 596 q 635 766 665 718 q 540 814 604 814 q 431 765 474 814 q 389 629 389 717 z "},"\u0000":{"ha":0,"x_min":0,"x_max":0,"o":""},"\t":{"ha":333,"x_min":0,"x_max":0,"o":""}," ":{"ha":333,"x_min":0,"x_max":0,"o":""},"!":{"ha":410,"x_min":111,"x_max":543,"o":"m 483 714 q 424 504 456 601 q 356 307 393 407 l 197 307 q 222 504 208 407 q 263 714 236 601 l 322 963 l 543 963 l 483 714 m 250 238 q 331 210 299 238 q 364 125 364 182 q 352 67 364 93 q 321 22 340 40 q 276 -8 301 3 q 225 -18 251 -18 q 144 10 176 -18 q 111 94 111 38 q 123 153 111 126 q 154 198 135 179 q 199 227 174 217 q 250 238 224 238 z "},"\"":{"ha":683,"x_min":250,"x_max":822,"o":"m 519 1056 l 494 953 q 449 807 479 886 q 388 647 419 728 l 250 647 q 265 807 256 728 q 290 954 275 886 l 315 1056 l 519 1056 m 822 1056 l 797 953 q 752 807 782 886 q 690 647 722 728 l 553 647 q 568 807 558 728 q 593 954 578 886 l 618 1056 l 822 1056 z "},"#":{"ha":917,"x_min":96,"x_max":1008,"o":"m 526 236 l 372 236 l 274 0 l 96 0 l 194 236 l 99 236 l 138 396 l 261 396 l 332 567 l 179 567 l 218 726 l 399 726 l 499 963 l 676 963 l 576 726 l 731 726 l 831 963 l 1008 963 l 908 726 l 1006 726 l 967 567 l 842 567 l 771 396 l 925 396 l 886 236 l 704 236 l 606 0 l 428 0 l 526 236 m 439 396 l 593 396 l 664 567 l 510 567 l 439 396 z "},"$":{"ha":789,"x_min":94,"x_max":858,"o":"m 392 179 q 451 183 421 179 q 504 197 481 186 q 542 227 528 207 q 557 281 557 247 q 547 319 557 303 q 521 350 538 336 q 483 376 504 364 q 439 399 461 388 l 403 417 q 274 528 314 461 q 235 667 235 594 q 251 756 235 713 q 302 836 268 800 q 390 897 336 872 q 517 929 443 921 l 554 1078 l 729 1078 l 690 925 q 787 895 743 914 q 858 858 831 876 l 775 711 q 688 753 739 739 q 588 768 636 768 q 485 746 528 768 q 442 676 442 724 q 447 642 442 657 q 466 613 453 626 q 501 584 479 599 q 558 553 524 569 q 635 509 599 532 q 701 456 672 486 q 747 386 729 425 q 764 294 764 347 q 743 181 764 229 q 684 97 722 132 q 592 42 646 63 q 474 15 539 22 l 433 -151 l 258 -151 l 300 18 q 172 53 225 29 q 94 94 119 76 l 179 247 q 217 224 194 236 q 267 203 239 213 q 326 186 294 193 q 392 179 358 179 z "},"%":{"ha":1208,"x_min":167,"x_max":1236,"o":"m 390 579 q 433 592 413 579 q 470 631 454 606 q 496 693 486 657 q 506 775 506 729 q 487 833 506 813 q 439 853 468 853 q 395 839 417 853 q 357 800 374 825 q 330 738 340 775 q 319 656 319 701 q 340 599 319 618 q 390 579 361 579 m 989 963 l 1189 963 l 414 0 l 214 0 l 989 963 m 450 985 q 534 972 496 985 q 600 934 572 960 q 643 870 628 908 q 658 781 658 832 q 635 640 658 701 q 572 535 611 578 q 481 469 532 492 q 375 446 429 446 q 291 458 329 446 q 225 497 253 471 q 182 560 197 522 q 167 650 167 599 q 190 791 167 729 q 253 896 214 853 q 344 962 293 939 q 450 985 396 985 m 968 111 q 1011 124 990 111 q 1048 163 1032 138 q 1074 225 1064 189 q 1083 307 1083 261 q 1065 365 1083 344 q 1017 385 1046 385 q 973 371 994 385 q 935 332 951 357 q 908 270 918 307 q 897 188 897 233 q 918 131 897 150 q 968 111 939 111 m 1028 517 q 1112 504 1074 517 q 1178 466 1150 492 q 1221 402 1206 440 q 1236 313 1236 364 q 1213 172 1236 233 q 1149 67 1189 110 q 1058 1 1110 24 q 953 -22 1007 -22 q 869 -10 907 -22 q 803 28 831 3 q 760 92 775 54 q 744 182 744 131 q 768 323 744 261 q 831 428 792 385 q 922 494 871 471 q 1028 517 974 517 z "},"&":{"ha":921,"x_min":111,"x_max":976,"o":"m 111 218 q 165 398 111 322 q 340 528 219 474 l 364 539 q 323 630 336 585 q 310 718 310 675 q 331 823 310 774 q 394 908 353 872 q 492 964 435 943 q 622 985 550 985 q 728 969 682 985 q 803 926 774 953 q 849 865 833 900 q 864 790 864 829 q 851 718 864 756 q 815 644 839 681 q 753 576 790 608 q 665 522 715 544 l 614 499 l 731 343 q 794 483 765 400 l 976 460 q 836 204 917 308 q 901 101 872 153 q 953 0 929 50 l 743 0 q 724 38 735 18 q 703 78 714 57 q 401 -12 571 -12 q 273 7 328 -12 q 182 59 218 26 q 128 133 146 92 q 111 218 111 174 m 428 149 q 511 160 464 149 q 611 208 558 172 l 449 422 l 428 413 q 343 343 369 386 q 317 258 317 300 q 345 181 317 214 q 428 149 374 149 m 493 713 q 529 614 493 674 l 546 621 q 649 687 613 651 q 686 771 686 722 q 667 817 686 797 q 606 838 647 838 q 528 806 564 838 q 493 713 493 775 z "},"'":{"ha":381,"x_min":250,"x_max":519,"o":"m 519 1056 l 494 953 q 449 807 479 886 q 388 647 419 728 l 250 647 q 265 807 256 728 q 290 954 275 886 l 315 1056 l 519 1056 z "},"(":{"ha":494,"x_min":136,"x_max":696,"o":"m 696 994 q 551 813 617 908 q 439 615 486 718 q 365 403 392 513 q 339 182 339 294 q 356 9 339 94 q 408 -164 372 -76 l 256 -257 q 165 -42 193 -153 q 136 188 136 69 q 167 436 136 313 q 255 676 199 560 q 390 897 311 792 q 563 1088 468 1001 l 696 994 z "},")":{"ha":494,"x_min":-33,"x_max":526,"o":"m -33 -162 q 112 17 46 -78 q 224 216 178 113 q 297 428 271 319 q 324 650 324 538 q 307 823 324 738 q 254 996 290 908 l 407 1089 q 498 874 469 985 q 526 644 526 763 q 495 396 526 519 q 408 156 464 272 q 273 -65 351 40 q 100 -256 194 -169 l -33 -162 z "},"*":{"ha":697,"x_min":181,"x_max":767,"o":"m 518 744 q 553 772 532 757 q 595 801 574 786 q 639 827 617 815 q 678 844 661 839 l 711 856 l 767 683 l 733 672 q 692 664 715 667 q 642 660 668 661 q 590 660 615 660 q 546 660 565 660 q 583 634 563 649 q 623 603 603 619 q 661 571 643 588 q 690 539 679 554 l 713 510 l 565 406 l 544 433 q 523 469 533 447 q 503 516 513 492 q 486 564 493 540 q 474 607 479 588 q 461 564 468 588 q 444 516 454 540 q 424 469 435 492 q 403 433 414 447 l 382 406 l 235 510 l 257 539 q 286 571 268 554 q 324 603 304 588 q 365 634 344 619 q 401 660 385 649 q 357 660 382 660 q 306 660 332 660 q 256 664 279 661 q 214 672 232 667 l 181 683 l 236 856 l 269 844 q 308 827 286 839 q 352 801 331 815 q 394 772 374 786 q 429 744 414 757 q 415 787 422 763 q 400 836 407 811 q 388 885 393 861 q 383 928 383 910 l 383 963 l 564 963 l 564 928 q 559 885 564 910 q 547 836 554 861 q 533 787 540 811 q 518 744 525 763 z "},"+":{"ha":789,"x_min":132,"x_max":828,"o":"m 175 501 l 407 501 l 468 758 l 657 758 l 596 501 l 828 501 l 785 328 l 553 328 l 492 71 l 303 71 l 364 328 l 132 328 l 175 501 z "},",":{"ha":349,"x_min":-14,"x_max":335,"o":"m 335 211 q 274 -18 331 90 q 138 -226 218 -126 l -14 -186 q 75 4 39 -94 q 118 211 111 103 l 335 211 z "},"-":{"ha":476,"x_min":101,"x_max":550,"o":"m 147 508 l 550 508 l 504 321 l 101 321 l 147 508 z "},".":{"ha":350,"x_min":83,"x_max":336,"o":"m 222 238 q 303 210 271 238 q 336 125 336 183 q 324 67 336 93 q 293 22 313 40 q 249 -8 274 3 q 197 -18 224 -18 q 116 9 149 -18 q 83 94 83 36 q 95 153 83 126 q 126 198 107 179 q 171 227 146 217 q 222 238 196 238 z "},"/":{"ha":606,"x_min":-125,"x_max":863,"o":"m 86 -257 l -125 -257 l 653 1088 l 863 1088 l 86 -257 z "},":":{"ha":350,"x_min":83,"x_max":440,"o":"m 326 731 q 408 703 375 731 q 440 618 440 676 q 428 560 440 586 q 397 515 417 533 q 353 485 378 496 q 301 475 328 475 q 220 502 253 475 q 188 588 188 529 q 199 646 188 619 q 231 691 211 672 q 275 720 250 710 q 326 731 300 731 m 222 238 q 303 210 271 238 q 336 125 336 183 q 324 67 336 93 q 293 22 313 40 q 249 -8 274 3 q 197 -18 224 -18 q 116 9 149 -18 q 83 94 83 36 q 95 153 83 126 q 126 198 107 179 q 171 227 146 217 q 222 238 196 238 z "},";":{"ha":350,"x_min":-8,"x_max":440,"o":"m 326 731 q 408 703 375 731 q 440 618 440 676 q 428 560 440 586 q 397 515 417 533 q 353 485 378 496 q 301 475 328 475 q 220 502 253 475 q 188 588 188 529 q 199 646 188 619 q 231 691 211 672 q 275 720 250 710 q 326 731 300 731 m 340 211 q 280 -18 336 90 q 143 -226 224 -126 l -8 -186 q 81 4 44 -94 q 124 211 117 103 l 340 211 z "},"<":{"ha":789,"x_min":131,"x_max":840,"o":"m 168 501 l 826 753 l 840 581 l 360 414 l 754 232 l 667 78 l 131 339 l 168 501 z "},"=":{"ha":789,"x_min":103,"x_max":871,"o":"m 144 349 l 797 349 l 756 175 l 103 175 l 144 349 m 218 653 l 871 653 l 829 479 l 176 479 l 218 653 z "},">":{"ha":789,"x_min":94,"x_max":804,"o":"m 767 329 l 108 78 l 94 251 l 575 418 l 181 600 l 268 753 l 804 492 l 767 329 z "},"?":{"ha":597,"x_min":171,"x_max":764,"o":"m 406 565 q 476 621 447 597 q 524 665 506 644 q 552 703 543 685 q 561 740 561 721 q 535 793 561 776 q 471 810 510 810 q 418 805 446 810 q 364 792 390 800 q 314 774 338 783 q 272 754 290 764 l 246 917 q 370 966 300 947 q 511 985 440 985 q 607 972 561 985 q 688 934 653 960 q 743 870 722 908 q 764 782 764 832 q 745 678 764 722 q 697 599 726 633 q 631 535 668 564 q 558 479 594 507 q 465 399 506 439 q 421 307 425 358 l 238 307 q 251 386 238 350 q 287 453 264 422 q 340 511 310 483 q 406 565 371 539 m 310 238 q 391 210 358 238 q 424 125 424 183 q 412 67 424 93 q 381 22 400 40 q 336 -8 361 3 q 285 -18 311 -18 q 203 9 236 -18 q 171 94 171 36 q 183 153 171 126 q 214 198 194 179 q 258 227 233 217 q 310 238 283 238 z "},"@":{"ha":1307,"x_min":139,"x_max":1360,"o":"m 899 -203 q 778 -221 840 -214 q 664 -228 717 -228 q 444 -194 542 -228 q 279 -99 347 -161 q 175 51 211 -37 q 139 247 139 139 q 201 568 139 428 q 365 803 263 708 q 600 948 468 899 q 874 997 732 997 q 1057 970 969 997 q 1212 888 1144 943 q 1319 747 1279 832 q 1360 546 1360 663 q 1337 362 1360 453 q 1265 199 1314 271 q 1142 83 1217 128 q 964 39 1067 39 q 896 53 928 39 q 843 93 864 67 q 748 52 794 65 q 649 39 701 39 q 478 111 539 39 q 417 301 417 183 q 444 443 417 369 q 526 577 472 517 q 662 676 581 638 q 851 715 743 715 q 989 701 935 715 q 1081 671 1043 686 l 982 260 q 979 247 979 253 q 979 236 979 242 q 994 202 979 213 q 1033 192 1010 192 q 1100 217 1069 192 q 1153 288 1131 243 q 1188 395 1175 333 q 1200 529 1200 457 q 1173 680 1200 617 q 1099 783 1146 743 q 989 841 1051 822 q 854 860 926 860 q 655 822 754 860 q 477 708 556 783 q 350 517 399 632 q 301 251 301 403 q 333 88 301 153 q 417 -17 364 22 q 540 -72 469 -56 q 689 -89 610 -89 q 797 -82 738 -89 q 907 -65 857 -75 l 899 -203 m 794 218 q 799 243 796 229 q 806 276 801 257 l 874 563 q 817 568 850 568 q 719 544 760 568 q 652 484 679 521 q 613 403 625 447 q 600 318 600 358 q 622 223 600 256 q 697 190 644 190 q 794 218 739 190 z "},"A":{"ha":992,"x_min":21,"x_max":957,"o":"m 739 0 q 733 106 736 54 q 725 210 729 158 l 364 210 q 306 106 336 158 q 247 0 275 54 l 21 0 q 190 288 111 156 q 341 536 268 419 q 483 758 414 653 q 625 963 553 863 l 818 963 q 860 741 840 863 q 898 492 881 619 q 930 238 915 365 q 957 0 944 111 l 739 0 m 675 751 q 560 567 617 658 q 451 379 504 475 l 711 379 q 697 560 704 464 q 675 751 689 656 z "},"B":{"ha":914,"x_min":104,"x_max":969,"o":"m 433 -12 q 263 -6 350 -12 q 104 17 175 1 l 326 947 q 492 968 406 963 q 651 974 579 974 q 795 956 735 974 q 894 910 856 939 q 951 841 932 881 q 969 757 969 801 q 963 693 969 726 q 938 627 957 660 q 887 565 919 594 q 801 513 854 536 q 893 437 864 485 q 922 331 922 389 q 896 202 922 264 q 811 92 869 140 q 660 16 753 44 q 433 -12 567 -12 m 414 421 l 354 171 q 410 165 376 167 q 474 163 444 163 q 556 169 515 163 q 630 192 597 175 q 683 238 663 208 q 704 313 704 267 q 697 351 704 332 q 672 386 689 371 q 628 411 656 401 q 564 421 601 421 l 414 421 m 454 583 l 590 583 q 715 619 674 583 q 756 706 756 656 q 744 751 756 732 q 713 781 732 769 q 668 797 693 792 q 617 801 643 801 q 554 799 588 801 q 504 794 521 797 l 454 583 z "},"C":{"ha":886,"x_min":171,"x_max":1018,"o":"m 853 42 q 726 -3 796 14 q 557 -19 657 -19 q 399 9 471 -19 q 277 90 328 38 q 199 219 226 143 q 171 389 171 294 q 209 604 171 497 q 322 795 247 711 q 503 932 396 879 q 751 985 611 985 q 883 969 818 985 q 1018 915 947 954 l 940 747 q 836 789 882 778 q 738 800 790 800 q 595 768 658 800 q 487 681 532 736 q 418 554 442 626 q 394 401 394 482 q 448 224 394 279 q 601 168 501 168 q 724 182 668 168 q 829 218 781 196 l 853 42 z "},"D":{"ha":997,"x_min":104,"x_max":1047,"o":"m 357 174 q 388 172 372 172 q 432 171 404 171 q 595 199 522 171 q 719 278 668 226 q 797 406 769 331 q 825 576 825 482 q 813 665 825 625 q 772 733 800 704 q 698 776 743 761 q 589 792 653 792 q 504 788 547 792 l 357 174 m 1047 588 q 1001 336 1047 447 q 870 148 956 225 q 663 29 785 71 q 386 -12 540 -12 q 251 -6 328 -12 q 104 17 175 1 l 328 946 q 480 967 407 961 q 611 974 553 974 q 795 946 714 974 q 933 867 876 918 q 1018 744 989 815 q 1047 588 1047 674 z "},"E":{"ha":825,"x_min":104,"x_max":964,"o":"m 104 0 l 335 963 l 964 963 l 919 785 l 507 785 l 463 590 l 826 590 l 783 415 l 419 415 l 364 179 l 808 179 l 764 0 l 104 0 z "},"F":{"ha":799,"x_min":104,"x_max":958,"o":"m 104 0 l 335 963 l 958 963 l 914 783 l 507 783 l 458 578 l 818 578 l 775 399 l 415 399 l 319 0 l 104 0 z "},"G":{"ha":956,"x_min":171,"x_max":1039,"o":"m 596 167 q 646 169 624 167 q 686 174 668 171 l 767 508 l 983 508 l 867 26 q 754 -3 828 11 q 567 -18 681 -18 q 395 10 469 -18 q 271 92 321 39 q 196 219 221 144 q 171 389 171 294 q 209 604 171 497 q 322 795 247 711 q 508 932 397 879 q 764 985 619 985 q 905 965 831 985 q 1039 907 979 946 l 961 739 q 858 785 913 769 q 750 800 803 800 q 599 768 665 800 q 488 681 533 736 q 418 554 442 626 q 394 401 394 482 q 445 223 394 279 q 596 167 496 167 z "},"H":{"ha":992,"x_min":104,"x_max":1110,"o":"m 893 963 l 1110 963 l 878 0 l 661 0 l 760 410 l 418 410 l 319 0 l 104 0 l 335 963 l 551 963 l 463 593 l 804 593 l 893 963 z "},"I":{"ha":433,"x_min":104,"x_max":551,"o":"m 335 963 l 551 963 l 319 0 l 104 0 l 335 963 z "},"J":{"ha":717,"x_min":28,"x_max":835,"o":"m 674 292 q 629 163 657 221 q 557 65 601 106 q 447 2 513 24 q 289 -19 382 -19 q 147 3 214 -19 q 28 65 79 26 l 124 226 q 197 185 157 203 q 290 167 236 167 q 358 176 329 167 q 407 205 386 185 q 442 257 428 225 q 468 335 457 289 l 618 963 l 835 963 l 674 292 z "},"K":{"ha":919,"x_min":104,"x_max":1107,"o":"m 671 0 q 624 101 651 47 q 565 210 597 156 q 494 314 532 264 q 418 403 457 364 l 319 0 l 104 0 l 335 963 l 551 963 l 467 615 q 671 794 575 708 q 850 963 767 879 l 1107 963 q 856 728 981 844 q 594 503 732 613 q 763 283 682 407 q 907 0 843 160 l 671 0 z "},"L":{"ha":783,"x_min":104,"x_max":790,"o":"m 790 183 l 746 0 l 104 0 l 335 963 l 551 963 l 364 183 l 790 183 z "},"M":{"ha":1219,"x_min":76,"x_max":1275,"o":"m 578 963 q 599 856 586 925 q 627 705 613 788 q 657 535 642 622 q 685 376 672 449 q 788 532 732 449 q 897 696 843 615 q 1000 847 951 776 q 1083 963 1049 917 l 1275 963 q 1249 747 1265 867 q 1213 500 1233 628 q 1171 243 1193 372 q 1126 0 1149 114 l 915 0 q 977 306 944 142 q 1038 639 1010 471 q 957 512 1001 582 q 868 370 913 442 q 782 233 824 299 q 710 122 740 168 l 551 122 q 535 228 544 164 q 513 363 525 292 q 489 508 501 435 q 465 639 476 581 q 367 306 411 471 q 286 0 324 142 l 76 0 q 147 243 108 114 q 226 501 185 372 q 307 749 267 629 q 383 963 347 868 l 578 963 z "},"N":{"ha":1031,"x_min":104,"x_max":1149,"o":"m 754 0 q 624 328 696 164 q 469 638 553 492 l 317 0 l 104 0 l 335 963 l 500 963 q 569 848 532 914 q 644 706 606 782 q 722 547 683 629 q 796 383 761 464 l 933 963 l 1149 963 l 917 0 l 754 0 z "},"O":{"ha":1051,"x_min":171,"x_max":1103,"o":"m 694 799 q 576 765 631 799 q 480 676 521 732 q 416 549 439 621 q 393 400 393 476 q 437 231 393 296 q 579 167 481 167 q 698 200 643 167 q 794 289 753 233 q 858 416 835 344 q 881 565 881 488 q 837 734 881 669 q 694 799 793 799 m 557 -19 q 401 8 472 -19 q 279 88 331 36 q 199 215 228 140 q 171 385 171 290 q 208 600 171 493 q 316 792 246 707 q 488 931 386 878 q 717 985 589 985 q 872 957 801 985 q 994 877 943 929 q 1074 750 1046 825 q 1103 581 1103 675 q 1066 365 1103 472 q 959 172 1029 257 q 788 33 889 86 q 557 -19 686 -19 z "},"P":{"ha":888,"x_min":104,"x_max":978,"o":"m 600 974 q 758 955 688 974 q 876 901 828 936 q 951 814 925 865 q 978 699 978 763 q 938 522 978 594 q 826 406 897 450 q 660 342 756 361 q 451 322 564 322 l 397 322 l 319 0 l 104 0 l 331 949 q 473 968 406 963 q 600 974 540 974 m 582 792 q 542 790 558 792 q 508 788 525 789 l 442 504 l 496 504 q 602 513 554 504 q 684 543 650 522 q 737 597 718 564 q 756 676 756 629 q 710 765 756 739 q 582 792 665 792 z "},"Q":{"ha":1050,"x_min":171,"x_max":1103,"o":"m 847 -260 q 664 -237 738 -256 q 545 -190 590 -219 q 481 -117 500 -160 q 461 -19 461 -74 l 461 -10 q 249 119 328 18 q 171 385 171 221 q 208 600 171 493 q 316 792 246 707 q 488 931 386 878 q 717 985 589 985 q 872 957 801 985 q 994 877 943 929 q 1074 750 1046 825 q 1103 581 1103 675 q 1074 388 1103 485 q 988 210 1044 292 q 851 71 932 129 q 665 -8 769 13 l 665 -12 q 685 -61 665 -43 q 740 -89 706 -79 q 818 -103 774 -99 q 911 -110 863 -107 l 847 -260 m 694 799 q 576 765 631 799 q 480 676 521 732 q 416 549 439 621 q 393 400 393 476 q 437 231 393 296 q 579 167 481 167 q 698 200 643 167 q 794 289 753 233 q 858 416 835 344 q 881 565 881 488 q 837 734 881 669 q 694 799 793 799 z "},"R":{"ha":911,"x_min":104,"x_max":974,"o":"m 606 974 q 768 951 699 974 q 883 892 838 929 q 951 803 929 854 q 974 697 974 753 q 963 607 974 651 q 924 522 953 563 q 848 448 896 482 q 725 390 800 414 q 805 215 764 318 q 882 0 846 113 l 650 0 q 585 190 618 96 q 513 351 553 283 l 404 351 l 319 0 l 104 0 l 331 949 q 476 968 406 963 q 606 974 547 974 m 599 790 q 550 789 575 790 q 508 786 525 788 l 446 522 l 519 522 q 632 535 586 522 q 706 568 678 547 q 745 616 733 589 q 757 671 757 643 q 750 716 757 694 q 725 754 743 738 q 676 781 707 771 q 599 790 646 790 z "},"S":{"ha":776,"x_min":56,"x_max":874,"o":"m 374 161 q 438 166 406 161 q 494 183 469 171 q 535 219 519 196 q 551 278 551 242 q 536 326 551 306 q 497 363 521 346 q 444 393 474 379 q 386 424 415 407 q 315 471 349 446 q 258 527 282 496 q 221 597 235 558 q 207 685 207 635 q 231 803 207 749 q 303 899 256 858 q 424 962 351 939 q 593 985 496 985 q 679 977 638 985 q 757 958 721 969 q 823 933 793 947 q 874 904 853 918 l 783 744 q 699 789 749 771 q 590 807 649 807 q 529 801 558 807 q 478 783 500 796 q 442 749 456 769 q 429 697 429 728 q 440 651 429 669 q 467 618 450 632 q 506 593 483 604 q 553 569 528 582 q 636 522 596 547 q 707 465 676 497 q 756 390 738 432 q 774 292 774 349 q 744 154 774 213 q 663 57 715 96 q 537 -1 610 18 q 375 -19 464 -19 q 266 -10 317 -19 q 174 13 215 0 q 103 42 133 26 q 56 69 74 57 l 147 235 q 188 211 164 224 q 241 188 211 199 q 304 169 271 176 q 374 161 338 161 z "},"T":{"ha":825,"x_min":201,"x_max":1026,"o":"m 1026 963 l 982 781 l 700 781 l 513 0 l 296 0 l 483 781 l 201 781 l 246 963 l 1026 963 z "},"U":{"ha":949,"x_min":167,"x_max":1074,"o":"m 928 350 q 774 67 881 154 q 493 -19 668 -19 q 341 2 403 -19 q 240 62 279 24 q 184 153 201 100 q 167 269 167 207 q 188 424 167 342 l 317 963 l 533 963 l 397 393 q 383 292 383 343 q 390 242 383 264 q 412 203 396 219 q 455 177 428 186 q 522 168 482 168 q 649 220 606 168 q 715 368 692 272 l 857 963 l 1074 963 l 928 350 z "},"V":{"ha":956,"x_min":236,"x_max":1143,"o":"m 372 0 q 330 244 350 118 q 292 496 310 371 q 260 740 274 621 q 236 963 246 858 l 468 963 q 478 792 472 883 q 493 609 485 701 q 510 426 501 517 q 529 256 519 335 q 622 414 572 328 q 722 593 671 500 q 822 781 772 686 q 913 963 871 875 l 1143 963 q 1028 747 1090 863 q 894 508 965 632 q 742 256 822 385 q 575 0 663 128 l 372 0 z "},"W":{"ha":1300,"x_min":222,"x_max":1494,"o":"m 926 860 q 934 731 929 803 q 945 581 939 658 q 958 428 951 504 q 972 286 965 351 q 1046 439 1008 357 q 1121 608 1083 521 q 1195 786 1158 696 q 1265 963 1232 876 l 1494 963 q 1274 460 1386 699 q 1032 0 1161 222 l 829 0 q 809 147 818 76 q 792 285 800 217 q 778 422 785 353 q 767 567 772 492 q 610 278 688 419 q 446 0 533 138 l 243 0 q 227 256 232 129 q 222 513 222 382 q 226 737 222 625 q 238 963 231 849 l 456 963 q 442 723 449 840 q 436 479 436 606 q 436 383 436 432 q 439 286 436 335 q 521 431 478 354 q 606 583 564 507 q 685 731 647 660 q 749 860 722 803 l 926 860 z "},"X":{"ha":929,"x_min":21,"x_max":1082,"o":"m 676 0 q 641 106 657 60 q 610 191 625 151 q 581 266 596 231 q 547 340 565 301 l 268 0 l 21 0 l 458 524 l 263 963 l 501 963 l 617 665 q 738 817 679 740 q 844 963 796 894 l 1082 963 q 997 845 1042 906 q 903 724 951 785 q 807 606 856 664 q 713 497 758 549 q 767 374 742 432 q 817 256 793 315 q 863 135 840 197 q 908 0 885 72 l 676 0 z "},"Y":{"ha":906,"x_min":236,"x_max":1100,"o":"m 574 567 q 651 666 614 618 q 722 762 688 714 q 791 859 757 810 q 861 963 825 908 l 1100 963 q 988 807 1042 881 q 879 663 933 733 q 768 524 825 593 q 647 381 711 454 l 556 0 l 339 0 l 431 381 q 325 668 372 528 q 236 963 278 808 l 467 963 q 515 767 489 863 q 574 567 542 671 z "},"Z":{"ha":886,"x_min":63,"x_max":1025,"o":"m 989 813 q 856 692 933 765 q 693 534 778 619 q 524 357 608 449 q 369 182 439 265 l 853 182 l 808 0 l 63 0 l 94 129 q 225 290 150 203 q 381 464 300 376 q 544 633 463 551 q 696 781 626 715 l 271 781 l 315 963 l 1025 963 l 989 813 z "},"[":{"ha":518,"x_min":42,"x_max":740,"o":"m 364 1088 l 740 1088 l 700 922 l 521 922 l 278 -92 l 457 -92 l 417 -257 l 42 -257 l 364 1088 z "},"\\":{"ha":564,"x_min":208,"x_max":550,"o":"m 208 1088 l 407 1088 l 550 -257 l 351 -257 l 208 1088 z "},"]":{"ha":518,"x_min":-53,"x_max":646,"o":"m 322 -257 l -53 -257 l -12 -92 l 165 -92 l 408 922 l 229 922 l 269 1088 l 646 1088 l 322 -257 z "},"^":{"ha":789,"x_min":144,"x_max":861,"o":"m 861 482 l 681 406 l 572 749 l 292 411 l 144 501 l 535 968 l 699 968 l 861 482 z "},"_":{"ha":699,"x_min":-42,"x_max":692,"o":"m -3 -85 l 692 -85 l 651 -257 l -42 -257 l -3 -85 z "},"`":{"ha":343,"x_min":214,"x_max":529,"o":"m 342 1110 l 529 881 l 440 800 l 214 1000 l 342 1110 z "},"a":{"ha":817,"x_min":139,"x_max":872,"o":"m 782 315 q 771 156 763 236 q 803 14 779 76 l 618 -12 q 603 19 610 4 q 589 54 596 35 q 503 1 550 22 q 397 -19 456 -19 q 278 5 328 -19 q 198 70 229 29 q 153 166 167 111 q 139 283 139 221 q 173 464 139 379 q 267 612 207 549 q 410 711 328 675 q 588 747 492 747 q 631 746 600 747 q 703 740 663 744 q 788 724 743 735 q 872 693 832 713 l 782 315 m 638 571 q 605 575 619 574 q 569 576 590 576 q 481 553 522 576 q 410 491 440 529 q 362 403 379 453 q 344 299 344 353 q 367 193 344 232 q 449 154 389 154 q 506 167 481 154 q 561 208 532 179 q 570 281 564 243 q 583 351 576 319 l 638 571 z "},"b":{"ha":799,"x_min":97,"x_max":840,"o":"m 582 746 q 697 722 649 746 q 778 658 746 699 q 825 564 810 618 q 840 447 840 510 q 805 266 840 351 q 708 117 769 181 q 564 17 647 54 q 383 -19 481 -19 q 340 -19 371 -19 q 268 -12 308 -18 q 183 4 228 -7 q 97 35 138 15 l 338 1044 l 553 1078 l 467 719 q 522 739 494 732 q 582 746 550 746 m 401 151 q 493 175 450 151 q 567 238 536 199 q 617 328 599 278 q 635 432 635 378 q 613 536 635 499 q 531 574 590 574 q 480 567 511 574 q 424 538 449 560 l 332 157 q 347 154 340 156 q 360 152 353 153 q 376 151 367 151 q 401 151 386 151 z "},"c":{"ha":667,"x_min":139,"x_max":778,"o":"m 139 292 q 169 469 139 386 q 257 615 200 553 q 395 714 314 678 q 576 750 476 750 q 688 738 639 750 q 778 707 738 726 l 707 546 q 649 566 679 557 q 576 575 619 575 q 413 505 472 575 q 353 314 353 435 q 383 199 353 243 q 496 156 414 156 q 574 164 536 156 q 640 185 611 172 l 656 19 q 570 -8 617 4 q 457 -19 524 -19 q 311 6 371 -19 q 213 73 251 31 q 156 172 174 115 q 139 292 139 229 z "},"d":{"ha":819,"x_min":139,"x_max":968,"o":"m 399 -19 q 280 4 329 -19 q 199 69 231 28 q 153 165 168 110 q 139 282 139 219 q 173 460 139 376 q 267 607 207 544 q 408 706 326 669 q 588 742 490 742 q 634 739 613 742 q 678 731 656 736 l 753 1044 l 968 1078 l 785 315 q 774 156 765 236 q 806 14 782 76 l 621 -12 q 606 19 613 4 q 592 54 599 35 q 505 1 553 22 q 399 -19 457 -19 m 638 565 q 623 568 629 567 q 610 570 617 569 q 594 571 604 571 q 569 571 585 571 q 479 548 521 571 q 408 486 438 525 q 361 398 378 447 q 344 297 344 349 q 367 192 344 231 q 450 154 390 154 q 508 167 482 154 q 564 208 535 179 q 573 281 567 243 q 586 351 579 319 l 638 565 z "},"e":{"ha":736,"x_min":139,"x_max":806,"o":"m 139 286 q 170 458 139 375 q 258 606 201 542 q 397 710 315 671 q 576 750 478 750 q 667 736 625 750 q 740 696 708 722 q 788 631 771 669 q 806 544 806 593 q 771 413 806 467 q 674 324 736 358 q 528 275 613 290 q 343 260 443 260 q 385 177 353 201 q 489 153 418 153 q 579 160 533 153 q 665 183 625 168 l 681 21 q 581 -7 642 6 q 450 -19 521 -19 q 305 5 364 -19 q 209 71 246 29 q 156 168 172 113 q 139 286 139 224 m 543 586 q 419 535 472 586 q 349 401 365 485 q 488 416 435 404 q 569 444 540 428 q 608 481 599 461 q 618 519 618 500 q 543 586 618 586 z "},"f":{"ha":608,"x_min":-50,"x_max":844,"o":"m 665 1078 q 774 1065 728 1078 q 844 1040 821 1051 l 775 878 q 717 897 750 890 q 657 903 685 903 q 544 864 581 903 q 493 767 507 825 l 485 731 l 729 731 l 688 561 l 444 561 l 360 207 q 257 -102 313 8 q 135 -262 201 -212 l -50 -236 q 17 -154 -14 -203 q 72 -51 47 -106 q 113 59 96 3 q 142 164 131 115 l 286 769 q 411 997 321 917 q 665 1078 501 1078 z "},"g":{"ha":788,"x_min":46,"x_max":871,"o":"m 728 92 q 673 -65 707 1 q 588 -174 639 -131 q 467 -240 538 -218 q 301 -261 396 -261 q 154 -245 214 -261 q 46 -206 94 -229 l 115 -42 q 205 -75 158 -61 q 319 -89 251 -89 q 453 -49 408 -89 q 513 53 499 -10 l 518 79 q 459 57 490 65 q 393 49 428 49 q 281 69 328 49 q 203 125 233 89 q 159 210 174 161 q 144 318 144 260 q 183 505 144 424 q 287 640 222 586 q 435 722 351 694 q 611 750 519 750 q 743 736 678 750 q 871 693 808 722 l 728 92 m 636 571 q 578 576 613 576 q 483 558 525 576 q 412 507 442 539 q 366 430 382 475 q 350 333 350 385 q 354 287 350 308 q 369 249 358 265 q 400 224 381 233 q 449 214 419 214 q 501 221 468 214 q 560 253 533 228 l 636 571 z "},"h":{"ha":785,"x_min":97,"x_max":819,"o":"m 590 743 q 693 726 650 743 q 764 677 736 708 q 806 603 792 646 q 819 510 819 560 q 806 394 819 451 l 711 0 l 504 0 l 596 386 q 606 436 601 410 q 611 486 611 463 q 592 548 611 522 q 521 574 574 574 q 478 571 499 574 q 439 564 458 568 l 304 0 l 97 0 l 347 1044 l 563 1078 l 478 729 q 534 739 506 735 q 590 743 563 743 z "},"i":{"ha":393,"x_min":97,"x_max":546,"o":"m 303 0 l 97 0 l 271 731 l 478 731 l 303 0 m 403 819 q 325 845 360 819 q 290 924 290 871 q 302 978 290 953 q 333 1023 314 1004 q 378 1053 353 1042 q 433 1064 404 1064 q 511 1038 476 1064 q 546 960 546 1013 q 534 905 546 931 q 503 860 522 879 q 458 831 483 842 q 403 819 432 819 z "},"j":{"ha":403,"x_min":-125,"x_max":564,"o":"m 21 -257 q -56 -249 -18 -257 q -125 -231 -94 -242 l -72 -67 q -34 -78 -53 -74 q 8 -82 -15 -82 q 83 -53 57 -82 q 121 32 110 -24 l 289 731 l 496 731 l 326 26 q 222 -187 293 -118 q 21 -257 151 -257 m 421 819 q 343 845 378 819 q 308 924 308 871 q 320 978 308 953 q 351 1023 332 1004 q 397 1053 371 1042 q 451 1064 422 1064 q 529 1038 494 1064 q 564 960 564 1013 q 552 905 564 931 q 521 860 540 879 q 476 831 501 842 q 421 819 450 819 z "},"k":{"ha":779,"x_min":97,"x_max":932,"o":"m 415 467 q 572 603 499 533 q 699 731 646 672 l 932 731 q 770 562 854 644 q 578 386 686 479 q 637 303 607 350 q 694 204 667 256 q 744 100 721 153 q 782 0 767 47 l 551 0 q 520 79 539 36 q 478 165 501 122 q 431 247 456 207 q 381 319 406 288 l 303 0 l 97 0 l 347 1044 l 563 1078 l 415 467 z "},"l":{"ha":438,"x_min":140,"x_max":549,"o":"m 400 -14 q 245 12 301 -14 q 165 82 189 38 q 141 184 140 126 q 157 307 142 242 l 333 1044 l 549 1078 l 356 278 q 349 232 350 253 q 357 195 349 211 q 385 169 365 179 q 442 157 406 160 l 400 -14 z "},"m":{"ha":1175,"x_min":97,"x_max":1210,"o":"m 265 697 q 316 713 289 704 q 377 730 343 722 q 453 742 411 738 q 551 747 496 747 q 662 731 618 747 q 742 681 706 714 q 844 728 793 710 q 963 747 894 747 q 1074 730 1028 747 q 1151 680 1121 713 q 1196 602 1182 647 q 1210 503 1210 557 q 1206 450 1210 478 q 1196 394 1203 422 l 1101 0 l 894 0 l 986 386 q 995 430 990 406 q 1000 478 1000 454 q 982 545 1000 517 q 911 574 964 574 q 856 563 882 574 q 808 542 829 553 q 811 521 811 531 q 811 503 811 511 q 808 450 811 478 q 797 394 804 422 l 703 0 l 496 0 l 588 386 q 597 430 592 406 q 601 478 601 454 q 583 545 601 517 q 513 574 565 574 q 475 572 490 574 q 439 565 460 569 l 304 0 l 97 0 l 265 697 z "},"n":{"ha":788,"x_min":97,"x_max":846,"o":"m 265 697 q 317 713 289 704 q 381 730 346 722 q 460 742 417 738 q 560 747 504 747 q 785 653 724 747 q 806 394 846 558 l 711 0 l 504 0 l 596 386 q 609 456 604 422 q 608 516 614 490 q 583 558 603 542 q 521 574 563 574 q 439 565 481 574 l 304 0 l 97 0 l 265 697 z "},"o":{"ha":797,"x_min":139,"x_max":839,"o":"m 428 -19 q 300 3 354 -19 q 210 65 246 25 q 157 160 175 106 q 139 282 139 215 q 166 449 139 365 q 246 599 193 532 q 375 708 299 665 q 550 750 451 750 q 677 728 622 750 q 767 665 732 706 q 821 570 803 625 q 839 449 839 515 q 813 282 839 365 q 735 132 786 199 q 606 23 683 65 q 428 -19 529 -19 m 531 575 q 450 549 485 575 q 392 482 415 522 q 356 394 368 442 q 344 303 344 346 q 367 194 344 232 q 447 156 389 156 q 528 182 493 156 q 586 249 563 208 q 622 337 610 289 q 633 428 633 385 q 611 537 633 499 q 531 575 589 575 z "},"p":{"ha":803,"x_min":35,"x_max":844,"o":"m 340 161 q 399 156 364 156 q 497 176 453 156 q 573 232 542 196 q 622 319 604 268 q 639 431 639 369 q 613 532 639 490 q 521 574 586 574 q 438 565 476 574 l 340 161 m 844 446 q 811 260 844 344 q 719 115 778 176 q 577 20 660 54 q 397 -14 494 -14 q 303 -6 350 -14 l 240 -257 l 35 -257 l 265 704 q 392 734 321 721 q 547 747 464 747 q 681 724 625 747 q 774 659 738 700 q 827 563 810 618 q 844 446 844 508 z "},"q":{"ha":796,"x_min":139,"x_max":879,"o":"m 139 283 q 176 478 139 392 q 277 624 213 564 q 428 715 342 683 q 614 747 514 747 q 879 693 743 747 l 653 -257 l 446 -257 l 510 13 q 385 -14 449 -14 q 287 6 332 -14 q 209 65 242 26 q 158 158 176 103 q 139 283 139 214 m 644 571 q 615 575 631 574 q 585 576 600 576 q 483 554 528 576 q 408 494 439 532 q 360 405 376 456 q 344 299 344 354 q 371 189 344 219 q 443 158 397 158 q 495 166 469 158 q 553 193 521 174 l 644 571 z "},"r":{"ha":592,"x_min":97,"x_max":717,"o":"m 656 553 q 601 566 628 560 q 521 572 574 572 q 478 569 501 572 q 439 561 454 565 l 304 0 l 97 0 l 264 692 q 398 728 324 711 q 565 746 472 746 q 642 740 600 746 q 717 719 685 733 l 656 553 z "},"s":{"ha":671,"x_min":69,"x_max":740,"o":"m 335 147 q 432 167 406 147 q 458 211 458 188 q 453 238 458 226 q 438 258 449 249 q 407 278 426 268 q 357 303 388 289 q 292 335 322 318 q 238 377 261 353 q 202 433 215 401 q 189 507 189 464 q 272 685 189 619 q 513 750 354 750 q 646 733 588 750 q 740 697 704 717 l 669 543 q 594 572 640 558 q 504 586 549 586 q 466 584 485 586 q 431 575 447 582 q 406 556 415 568 q 396 522 396 543 q 417 481 396 494 q 478 447 439 467 q 568 399 532 421 q 626 351 604 376 q 657 294 647 326 q 667 219 667 263 q 648 132 667 175 q 589 56 629 89 q 486 1 549 22 q 336 -19 424 -19 q 238 -12 282 -19 q 161 5 194 -6 q 105 26 128 15 q 69 44 82 38 l 140 203 q 214 168 164 189 q 335 147 264 147 z "},"t":{"ha":578,"x_min":138,"x_max":689,"o":"m 296 913 l 511 946 l 458 731 l 689 731 l 647 561 l 418 561 l 357 306 q 347 246 349 274 q 353 198 344 218 q 385 167 363 178 q 446 156 407 156 q 510 162 479 156 q 574 179 542 168 l 589 21 q 499 -6 547 6 q 383 -17 450 -17 q 235 12 288 -17 q 160 90 182 40 q 140 203 138 139 q 160 338 143 267 l 296 913 z "},"u":{"ha":807,"x_min":138,"x_max":863,"o":"m 863 731 l 764 315 q 753 156 744 236 q 785 14 761 76 l 600 -12 q 571 56 585 18 q 483 4 532 25 q 375 -17 435 -17 q 242 13 293 -17 q 167 92 192 43 q 140 206 142 142 q 154 336 138 269 l 249 731 l 456 731 l 363 339 q 351 276 356 308 q 350 217 346 244 q 372 173 354 190 q 426 156 389 156 q 485 167 458 156 q 543 208 513 179 q 552 281 546 243 q 565 351 558 319 l 656 731 l 863 731 z "},"v":{"ha":758,"x_min":174,"x_max":897,"o":"m 279 0 q 214 324 243 139 q 174 731 185 510 l 388 731 q 392 612 389 676 q 399 482 394 547 q 408 355 403 417 q 421 243 414 293 q 490 346 451 285 q 564 474 528 407 q 631 608 600 540 q 678 731 661 675 l 897 731 q 808 528 861 632 q 693 326 754 424 q 569 144 632 229 q 451 0 506 60 l 279 0 z "},"w":{"ha":1133,"x_min":181,"x_max":1272,"o":"m 669 428 q 610 312 643 371 q 544 197 578 253 q 478 90 510 140 q 421 0 446 39 l 260 0 q 237 139 249 58 q 214 315 225 219 q 194 516 203 410 q 181 731 185 622 l 383 731 q 384 622 383 681 q 387 501 385 564 q 393 374 389 439 q 404 244 397 308 q 473 366 439 303 q 538 492 507 429 q 597 617 569 556 q 644 731 624 678 l 817 731 q 820 507 817 631 q 838 244 824 383 q 907 373 875 307 q 966 503 939 439 q 1015 625 993 567 q 1053 731 1036 683 l 1272 731 q 1206 574 1244 661 q 1118 392 1168 488 q 1006 196 1068 296 q 867 0 943 96 l 706 0 q 681 218 689 114 q 669 428 672 322 z "},"x":{"ha":763,"x_min":28,"x_max":874,"o":"m 390 731 l 496 503 q 585 617 543 561 q 667 731 628 672 l 874 731 q 746 558 815 647 q 585 371 676 468 q 679 178 640 267 q 749 0 718 90 l 544 0 q 494 125 519 68 q 446 231 469 182 l 244 0 l 28 0 l 360 372 l 181 731 l 390 731 z "},"y":{"ha":739,"x_min":-35,"x_max":878,"o":"m 878 731 q 799 533 839 625 q 717 359 760 442 q 628 201 674 276 q 531 53 582 126 q 453 -57 493 -1 q 363 -157 413 -112 q 253 -229 314 -201 q 114 -257 193 -257 q 31 -248 65 -257 q -35 -224 -4 -239 l 28 -61 q 78 -78 56 -72 q 132 -85 100 -85 q 224 -53 181 -85 q 297 31 268 -22 q 231 342 261 169 q 190 731 201 514 l 403 731 q 408 611 404 676 q 418 480 413 546 q 431 351 424 414 q 446 239 438 289 q 563 461 513 339 q 658 731 614 583 l 878 731 z "},"z":{"ha":731,"x_min":83,"x_max":842,"o":"m 808 593 q 725 517 776 565 q 614 412 674 469 q 492 291 554 354 q 375 169 429 228 l 714 169 l 672 0 l 83 0 l 113 121 q 205 229 153 171 q 313 347 257 288 q 426 462 369 407 q 531 561 482 517 l 233 561 l 275 731 l 842 731 l 808 593 z "},"{":{"ha":515,"x_min":111,"x_max":774,"o":"m 151 497 q 225 507 194 497 q 276 534 256 517 q 309 575 297 551 q 328 628 321 599 l 378 838 q 419 947 393 900 q 489 1026 446 994 q 595 1072 532 1057 q 746 1088 658 1088 l 774 1088 l 733 922 l 699 922 q 642 915 665 922 q 604 892 619 907 q 580 857 589 878 q 565 808 571 836 l 522 624 q 503 557 514 588 q 472 500 492 526 q 423 453 453 474 q 347 415 393 432 q 414 362 396 393 q 432 290 432 331 q 421 207 432 258 l 378 22 q 369 -33 369 -11 q 389 -78 369 -65 q 456 -92 408 -92 l 490 -92 l 450 -257 l 422 -257 q 235 -219 300 -257 q 171 -79 171 -181 q 186 31 171 -37 l 226 203 q 215 301 240 269 q 111 333 190 333 l 151 497 z "},"|":{"ha":422,"x_min":42,"x_max":561,"o":"m 364 1088 l 561 1088 l 238 -257 l 42 -257 l 364 1088 z "},"}":{"ha":515,"x_min":-71,"x_max":592,"o":"m 551 333 q 478 324 508 333 q 426 297 447 314 q 394 256 406 279 q 375 203 382 232 l 325 -7 q 283 -117 310 -69 q 214 -195 257 -164 q 108 -242 171 -226 q -43 -257 44 -257 l -71 -257 l -31 -92 l 4 -92 q 61 -85 39 -92 q 98 -63 83 -78 q 122 -27 113 -49 q 138 22 131 -6 l 181 207 q 200 274 189 243 q 231 331 211 304 q 280 378 250 357 q 356 415 310 399 q 289 469 307 438 q 271 540 271 500 q 282 624 271 572 l 325 808 q 333 864 333 842 q 314 909 333 896 q 247 922 294 922 l 213 922 l 253 1088 l 281 1088 q 467 1049 403 1088 q 532 910 532 1011 q 517 800 532 868 l 476 628 q 488 529 463 561 q 592 497 513 497 l 551 333 z "},"~":{"ha":789,"x_min":114,"x_max":860,"o":"m 594 272 q 515 289 549 272 q 453 325 481 306 q 399 361 425 344 q 343 378 374 378 q 320 375 331 378 q 299 362 310 372 q 275 331 288 351 q 246 276 263 311 l 114 315 q 152 407 129 363 q 208 485 175 451 q 283 540 240 519 q 379 560 325 560 q 459 543 425 560 q 521 507 493 526 q 574 471 549 488 q 631 454 600 454 q 653 457 643 454 q 675 470 664 460 q 699 501 686 481 q 728 556 711 521 l 860 517 q 817 419 840 464 q 762 342 793 375 q 690 291 731 310 q 594 272 649 272 z "},"€":{"ha":789,"x_min":118,"x_max":971,"o":"m 436 303 q 486 185 443 217 q 594 153 529 153 q 684 163 636 153 q 781 188 732 172 l 789 25 q 674 -8 731 4 q 558 -19 617 -19 q 435 -2 493 -19 q 333 53 378 15 q 262 153 289 92 q 232 303 235 215 l 118 303 l 150 440 l 239 440 q 247 486 242 464 q 257 531 251 508 l 169 531 l 203 668 l 297 668 q 370 797 328 739 q 471 895 413 854 q 606 958 529 936 q 783 981 683 981 q 971 949 875 981 l 889 788 q 753 811 819 811 q 599 773 656 811 q 506 668 542 735 l 832 668 l 772 531 l 458 531 q 442 440 449 486 l 733 440 l 675 303 l 436 303 z "},"‚":{"ha":329,"x_min":-4,"x_max":322,"o":"m 322 214 q 317 174 321 194 q 311 143 314 153 q 235 -34 289 50 q 119 -176 182 -118 l -4 -125 q 77 35 44 -50 q 121 214 110 121 l 322 214 z "},"ƒ":{"ha":608,"x_min":-135,"x_max":844,"o":"m 11 -257 q -66 -249 -28 -257 q -135 -231 -104 -242 l -82 -67 q -44 -78 -62 -74 q -1 -82 -25 -82 q 72 -53 47 -82 q 111 32 97 -24 l 286 769 q 411 997 321 917 q 665 1078 501 1078 q 774 1065 728 1078 q 844 1040 821 1051 l 775 878 q 717 897 750 890 q 657 903 685 903 q 544 864 581 903 q 493 767 507 825 l 485 731 l 729 731 l 688 561 l 444 561 l 317 26 q 212 -187 282 -118 q 11 -257 142 -257 z "},"„":{"ha":629,"x_min":-4,"x_max":621,"o":"m 322 214 q 317 174 321 194 q 311 143 314 153 q 235 -34 289 50 q 119 -176 182 -118 l -4 -125 q 77 35 44 -50 q 121 214 110 121 l 322 214 m 621 214 q 616 174 619 194 q 610 143 613 153 q 534 -34 588 50 q 418 -176 481 -118 l 294 -125 q 376 35 343 -50 q 419 214 408 121 l 621 214 z "},"…":{"ha":1314,"x_min":83,"x_max":1300,"o":"m 222 238 q 303 210 271 238 q 336 125 336 183 q 324 67 336 93 q 293 22 313 40 q 249 -8 274 3 q 197 -18 224 -18 q 116 9 149 -18 q 83 94 83 36 q 95 153 83 126 q 126 198 107 179 q 171 227 146 217 q 222 238 196 238 m 704 238 q 785 210 753 238 q 818 125 818 183 q 806 67 818 93 q 775 22 794 40 q 731 -8 756 3 q 679 -18 706 -18 q 598 9 631 -18 q 565 94 565 36 q 577 153 565 126 q 608 198 589 179 q 653 227 628 217 q 704 238 678 238 m 1186 238 q 1267 210 1235 238 q 1300 125 1300 183 q 1288 67 1300 93 q 1257 22 1276 40 q 1213 -8 1238 3 q 1161 -18 1188 -18 q 1080 9 1113 -18 q 1047 94 1047 36 q 1059 153 1047 126 q 1090 198 1071 179 q 1135 227 1110 217 q 1186 238 1160 238 z "},"†":{"ha":676,"x_min":171,"x_max":774,"o":"m 539 522 l 463 206 q 406 -3 435 93 q 338 -201 376 -100 l 222 -201 q 249 -3 233 -100 q 292 206 265 93 l 368 522 l 171 522 l 213 682 l 407 682 l 474 963 l 644 963 l 578 682 l 774 682 l 732 522 l 539 522 z "},"‡":{"ha":676,"x_min":83,"x_max":774,"o":"m 450 153 q 399 -26 425 57 q 338 -201 372 -110 l 222 -201 q 244 -28 231 -112 q 279 153 257 57 l 83 153 l 124 313 l 318 313 l 368 522 l 171 522 l 213 682 l 407 682 l 474 963 l 644 963 l 578 682 l 774 682 l 732 522 l 539 522 l 489 313 l 685 313 l 643 153 l 450 153 z "},"ˆ":{"ha":553,"x_min":274,"x_max":693,"o":"m 693 874 l 610 800 l 494 908 l 338 803 l 274 888 l 522 1089 l 693 874 z "},"‰":{"ha":1754,"x_min":167,"x_max":1782,"o":"m 390 579 q 433 592 413 579 q 470 631 454 606 q 496 693 486 657 q 506 775 506 729 q 487 833 506 813 q 439 853 468 853 q 395 839 417 853 q 357 800 374 825 q 330 738 340 775 q 319 656 319 701 q 340 599 319 618 q 390 579 361 579 m 989 963 l 1189 963 l 414 0 l 214 0 l 989 963 m 450 985 q 600 935 542 985 q 658 781 658 885 q 635 640 658 701 q 572 535 611 578 q 481 469 532 492 q 375 446 429 446 q 225 496 283 446 q 167 650 167 546 q 190 791 167 729 q 253 896 214 853 q 344 962 293 939 q 450 985 396 985 m 968 111 q 1011 124 990 111 q 1048 163 1032 138 q 1074 225 1064 189 q 1083 307 1083 261 q 1065 365 1083 344 q 1017 385 1046 385 q 973 371 994 385 q 935 332 951 357 q 908 270 918 307 q 897 188 897 233 q 918 131 897 150 q 968 111 939 111 m 1028 517 q 1178 467 1119 517 q 1236 313 1236 417 q 1213 172 1236 233 q 1149 67 1189 110 q 1058 1 1110 24 q 953 -22 1007 -22 q 803 28 861 -22 q 744 182 744 78 q 768 323 744 261 q 831 428 792 385 q 922 494 871 471 q 1028 517 974 517 m 1574 517 q 1724 467 1665 517 q 1782 313 1782 417 q 1758 172 1782 233 q 1695 67 1735 110 q 1604 1 1656 24 q 1499 -22 1553 -22 q 1349 28 1407 -22 q 1290 182 1290 78 q 1314 323 1290 261 q 1377 428 1338 385 q 1468 494 1417 471 q 1574 517 1519 517 m 1563 385 q 1519 371 1540 385 q 1481 332 1497 357 q 1453 270 1464 307 q 1443 188 1443 233 q 1464 131 1443 150 q 1514 111 1485 111 q 1557 124 1536 111 q 1594 163 1578 138 q 1619 225 1610 189 q 1629 307 1629 261 q 1610 365 1629 344 q 1563 385 1592 385 z "},"Š":{"ha":776,"x_min":56,"x_max":874,"o":"m 374 161 q 438 166 406 161 q 494 183 469 171 q 535 219 519 196 q 551 278 551 242 q 536 326 551 306 q 497 363 521 346 q 444 393 474 379 q 386 424 415 407 q 315 471 349 446 q 258 527 282 496 q 221 597 235 558 q 207 685 207 635 q 231 803 207 749 q 303 899 256 858 q 424 962 351 939 q 593 985 496 985 q 679 977 638 985 q 757 958 721 969 q 823 933 793 947 q 874 904 853 918 l 783 744 q 699 789 749 771 q 590 807 649 807 q 529 801 558 807 q 478 783 500 796 q 442 749 456 769 q 429 697 429 728 q 440 651 429 669 q 467 618 450 632 q 506 593 483 604 q 553 569 528 582 q 636 522 596 547 q 707 465 676 497 q 756 390 738 432 q 774 292 774 349 q 744 154 774 213 q 663 57 715 96 q 537 -1 610 18 q 375 -19 464 -19 q 266 -10 317 -19 q 174 13 215 0 q 103 42 133 26 q 56 69 74 57 l 147 235 q 188 211 164 224 q 241 188 211 199 q 304 169 271 176 q 374 161 338 161 m 431 1251 l 514 1325 l 629 1217 l 786 1322 l 850 1238 l 601 1036 l 431 1251 z "},"‹":{"ha":476,"x_min":139,"x_max":574,"o":"m 356 376 l 456 125 l 318 61 l 139 403 l 443 728 l 574 650 l 356 376 z "},"Œ":{"ha":1368,"x_min":171,"x_max":1507,"o":"m 758 0 q 684 -8 722 -6 q 607 -11 646 -11 q 447 6 525 -11 q 308 67 369 24 q 208 187 246 111 q 171 381 171 263 q 219 633 171 522 q 353 819 267 743 q 556 933 439 894 q 814 972 674 972 q 894 970 850 972 q 975 963 938 968 l 1507 963 l 1463 781 l 1067 781 l 1022 592 l 1369 592 l 1326 414 l 979 414 l 924 182 l 1351 182 l 1307 0 l 758 0 m 775 792 q 604 755 676 792 q 484 661 532 718 q 413 533 436 604 q 390 396 390 463 q 403 308 390 350 q 444 235 417 267 q 515 186 472 204 q 618 168 558 168 q 713 176 663 168 l 858 786 q 815 790 836 789 q 775 792 794 792 z "},"‘":{"ha":329,"x_min":181,"x_max":511,"o":"m 181 688 q 185 728 182 707 q 192 758 189 749 q 267 935 214 851 q 383 1078 321 1019 l 511 1029 q 428 869 463 954 q 382 688 393 783 l 181 688 z "},"’":{"ha":329,"x_min":167,"x_max":493,"o":"m 493 1065 q 488 1025 492 1046 q 482 994 485 1004 q 406 817 460 901 q 290 675 353 733 l 167 726 q 248 887 215 801 q 292 1065 281 972 l 493 1065 z "},"“":{"ha":629,"x_min":181,"x_max":813,"o":"m 181 688 q 185 728 182 707 q 192 758 189 749 q 267 935 214 851 q 383 1078 321 1019 l 511 1029 q 428 869 463 954 q 382 688 393 783 l 181 688 m 482 688 q 487 728 483 707 q 493 758 490 749 q 569 935 515 851 q 685 1078 622 1019 l 813 1029 q 729 869 764 954 q 683 688 694 783 l 482 688 z "},"”":{"ha":629,"x_min":167,"x_max":793,"o":"m 493 1065 q 488 1025 492 1046 q 482 994 485 1004 q 406 817 460 901 q 290 675 353 733 l 167 726 q 248 887 215 801 q 292 1065 281 972 l 493 1065 m 793 1065 q 788 1025 792 1046 q 782 994 785 1004 q 706 817 760 901 q 590 675 653 733 l 467 726 q 548 887 515 801 q 592 1065 581 972 l 793 1065 z "},"•":{"ha":539,"x_min":167,"x_max":567,"o":"m 567 490 q 553 415 567 450 q 513 352 539 379 q 449 309 486 325 q 367 293 413 293 q 284 309 321 293 q 221 352 247 325 q 181 415 194 379 q 167 490 167 450 q 181 565 167 529 q 221 628 194 601 q 284 672 247 656 q 367 688 321 688 q 449 672 413 688 q 513 628 486 656 q 553 565 539 601 q 567 490 567 529 z "},"–":{"ha":706,"x_min":83,"x_max":817,"o":"m 122 501 l 817 501 l 776 329 l 83 329 l 122 501 z "},"—":{"ha":1400,"x_min":83,"x_max":1511,"o":"m 122 501 l 1511 501 l 1471 329 l 83 329 l 122 501 z "},"˜":{"ha":518,"x_min":228,"x_max":735,"o":"m 550 843 q 503 851 524 843 q 464 867 482 858 q 429 884 446 876 q 396 892 413 892 q 360 881 376 892 q 321 835 344 869 l 228 892 q 304 1003 260 967 q 413 1040 349 1040 q 460 1033 439 1040 q 499 1016 481 1025 q 533 999 517 1007 q 567 992 550 992 q 602 1003 586 992 q 642 1049 618 1014 l 735 992 q 658 880 703 917 q 550 843 614 843 z "},"™":{"ha":1186,"x_min":167,"x_max":1269,"o":"m 614 963 l 614 819 l 472 819 l 472 474 l 308 474 l 308 819 l 167 819 l 167 963 l 614 963 m 1224 963 q 1248 763 1238 881 q 1269 474 1258 646 l 1110 474 l 1104 733 l 1022 525 l 913 525 l 831 732 q 830 644 831 688 q 828 564 829 600 q 827 503 828 528 q 826 474 826 478 l 668 474 q 689 763 678 646 q 711 963 700 881 l 858 963 q 914 835 888 900 q 968 708 940 771 q 1024 840 996 771 q 1075 963 1053 910 l 1224 963 z "},"š":{"ha":671,"x_min":69,"x_max":776,"o":"m 335 147 q 432 167 406 147 q 458 211 458 188 q 453 238 458 226 q 438 258 449 249 q 407 278 426 268 q 357 303 388 289 q 292 335 322 318 q 238 377 261 353 q 202 433 215 401 q 189 507 189 464 q 272 685 189 619 q 513 750 354 750 q 646 733 588 750 q 740 697 704 717 l 669 543 q 594 572 640 558 q 504 586 549 586 q 466 584 485 586 q 431 575 447 582 q 406 556 415 568 q 396 522 396 543 q 417 481 396 494 q 478 447 439 467 q 568 399 532 421 q 626 351 604 376 q 657 294 647 326 q 667 219 667 263 q 648 132 667 175 q 589 56 629 89 q 486 1 549 22 q 336 -19 424 -19 q 238 -12 282 -19 q 161 5 194 -6 q 105 26 128 15 q 69 44 82 38 l 140 203 q 214 168 164 189 q 335 147 264 147 m 357 1028 l 440 1101 l 556 993 l 713 1099 l 776 1014 l 528 813 l 357 1028 z "},"›":{"ha":478,"x_min":85,"x_max":519,"o":"m 303 413 l 203 664 l 340 728 l 519 386 l 215 61 l 85 139 l 303 413 z "},"œ":{"ha":1207,"x_min":139,"x_max":1276,"o":"m 428 -19 q 301 3 356 -19 q 211 65 247 25 q 157 158 175 104 q 139 278 139 213 q 166 445 139 361 q 246 597 193 529 q 376 708 299 665 q 553 750 453 750 q 683 720 624 750 q 778 631 743 690 q 900 719 833 689 q 1047 750 967 750 q 1138 736 1096 750 q 1210 696 1179 722 q 1259 631 1242 669 q 1276 544 1276 593 q 1242 413 1276 467 q 1145 324 1207 358 q 999 275 1083 290 q 814 260 914 260 q 856 177 824 201 q 960 153 889 153 q 1050 160 1004 153 q 1136 183 1096 168 l 1151 21 q 1052 -7 1113 6 q 921 -19 992 -19 q 774 13 833 -19 q 678 94 714 46 q 572 13 636 46 q 428 -19 507 -19 m 531 575 q 450 549 485 575 q 392 482 415 522 q 356 394 368 442 q 344 303 344 346 q 367 194 344 232 q 447 156 389 156 q 528 182 493 156 q 586 249 563 208 q 622 337 610 289 q 633 428 633 385 q 611 537 633 499 q 531 575 589 575 m 1014 586 q 890 535 943 586 q 819 401 836 485 q 958 416 906 404 q 1040 444 1011 428 q 1079 481 1069 461 q 1089 519 1089 500 q 1014 586 1089 586 z "},"Ÿ":{"ha":906,"x_min":236,"x_max":1100,"o":"m 574 567 q 651 666 614 618 q 722 762 688 714 q 791 859 757 810 q 861 963 825 908 l 1100 963 q 988 807 1042 881 q 879 663 933 733 q 768 524 825 593 q 647 381 711 454 l 556 0 l 339 0 l 431 381 q 325 668 372 528 q 236 963 278 808 l 467 963 q 515 767 489 863 q 574 567 542 671 m 515 1058 q 449 1083 475 1058 q 422 1150 422 1108 q 432 1199 422 1176 q 458 1236 442 1221 q 494 1260 474 1251 q 535 1269 514 1269 q 601 1244 574 1269 q 629 1175 629 1218 q 619 1128 629 1150 q 592 1091 608 1107 q 555 1067 575 1075 q 515 1058 535 1058 m 824 1058 q 757 1083 783 1058 q 731 1150 731 1108 q 740 1199 731 1176 q 766 1236 750 1221 q 802 1260 782 1251 q 843 1269 822 1269 q 910 1244 882 1269 q 938 1175 938 1218 q 927 1128 938 1150 q 900 1091 917 1107 q 863 1067 883 1075 q 824 1058 843 1058 z "}," ":{"ha":333,"x_min":0,"x_max":0,"o":""},"¡":{"ha":410,"x_min":44,"x_max":476,"o":"m 104 6 q 163 215 132 118 q 232 413 194 313 l 390 413 q 365 215 379 313 q 325 6 351 118 l 265 -243 l 44 -243 l 104 6 m 338 482 q 256 509 289 482 q 224 594 224 536 q 235 653 224 626 q 267 698 247 679 q 311 727 286 717 q 363 738 336 738 q 444 710 411 738 q 476 625 476 683 q 465 567 476 593 q 433 522 453 540 q 389 492 414 503 q 338 482 364 482 z "},"¢":{"ha":789,"x_min":203,"x_max":838,"o":"m 718 82 q 635 55 678 65 q 550 40 592 44 l 504 -151 l 307 -151 l 358 63 q 245 154 288 92 q 203 325 203 217 q 228 487 203 414 q 297 615 253 560 q 399 708 340 671 q 524 763 457 746 l 572 963 l 769 963 l 722 768 q 838 725 783 756 l 768 565 q 700 593 735 585 q 633 601 665 601 q 547 583 586 601 q 478 531 507 565 q 433 447 449 497 q 417 332 417 396 q 452 237 417 263 q 538 211 488 211 q 622 222 578 211 q 703 247 667 233 l 718 82 z "},"£":{"ha":789,"x_min":144,"x_max":936,"o":"m 519 547 l 764 547 l 724 378 l 479 378 q 449 274 467 329 q 413 174 431 219 l 789 174 l 747 0 l 144 0 q 226 206 194 113 q 278 378 257 299 l 157 378 l 197 547 l 318 547 l 353 681 q 413 822 375 764 q 500 915 451 879 q 605 965 549 950 q 722 981 661 981 q 838 967 785 981 q 936 929 892 953 l 853 776 q 721 808 782 808 q 665 801 692 808 q 615 776 638 794 q 573 724 592 757 q 542 638 554 690 l 519 547 z "},"¤":{"ha":789,"x_min":132,"x_max":851,"o":"m 492 756 q 558 750 526 756 q 619 731 589 744 l 722 829 l 851 703 l 751 607 q 781 482 781 553 q 751 357 781 411 l 851 261 l 721 133 l 618 233 q 558 214 589 219 q 492 208 528 208 q 426 214 457 208 q 364 233 394 219 l 261 135 l 132 261 l 232 357 q 203 482 203 411 q 232 607 203 553 l 132 703 l 263 831 l 365 731 q 425 750 394 744 q 492 756 456 756 m 606 482 q 572 572 606 542 q 492 603 539 603 q 411 572 444 603 q 378 482 378 542 q 411 392 378 422 q 492 361 444 361 q 572 392 539 361 q 606 482 606 422 z "},"¥":{"ha":789,"x_min":117,"x_max":1022,"o":"m 535 599 q 668 774 606 690 q 797 963 731 858 l 1022 963 q 861 738 944 846 q 683 514 778 629 l 824 514 l 792 382 l 589 382 l 567 286 l 769 286 l 738 154 l 535 154 l 497 0 l 281 0 l 318 154 l 117 154 l 149 286 l 350 286 l 372 382 l 171 382 l 203 514 l 363 514 q 319 630 340 571 q 278 747 297 689 q 242 860 258 806 q 215 963 226 915 l 432 963 q 453 869 442 913 q 476 782 464 825 q 503 694 489 739 q 535 599 518 649 z "},"¦":{"ha":419,"x_min":33,"x_max":553,"o":"m 165 294 l 363 294 l 229 -257 l 33 -257 l 165 294 m 356 1088 l 553 1088 l 419 536 l 222 536 l 356 1088 z "},"§":{"ha":715,"x_min":50,"x_max":833,"o":"m 154 399 q 199 531 154 465 q 319 642 244 597 q 281 754 281 689 q 301 839 281 797 q 363 913 322 881 q 464 965 403 944 q 606 985 525 985 q 727 971 668 985 q 833 929 786 957 l 763 782 q 679 814 719 804 q 603 824 639 824 q 510 803 544 824 q 476 750 476 782 q 488 720 476 735 q 526 692 499 706 l 631 639 q 731 556 701 603 q 761 458 761 510 q 719 329 761 392 q 611 226 678 267 l 593 215 q 635 99 635 158 q 615 8 635 53 q 553 -73 594 -37 q 447 -131 511 -108 q 294 -153 382 -153 q 161 -137 228 -153 q 50 -92 94 -122 l 121 56 q 292 8 206 8 q 405 35 371 8 q 439 93 439 61 q 426 135 439 115 q 389 167 413 156 l 285 219 q 184 301 214 254 q 154 399 154 347 m 338 432 q 358 377 338 404 q 426 326 378 350 l 486 297 q 553 357 528 325 q 578 424 578 389 q 554 483 578 454 q 478 538 531 513 l 429 560 q 363 500 389 533 q 338 432 338 467 z "},"¨":{"ha":744,"x_min":321,"x_max":836,"o":"m 414 836 q 347 861 374 836 q 321 928 321 886 q 331 976 321 954 q 356 1014 340 999 q 392 1038 372 1029 q 433 1047 413 1047 q 500 1022 472 1047 q 528 953 528 996 q 517 906 528 928 q 490 869 507 885 q 453 844 474 853 q 414 836 433 836 m 722 836 q 656 861 682 836 q 629 928 629 886 q 639 976 629 954 q 665 1014 649 999 q 701 1038 681 1029 q 742 1047 721 1047 q 808 1022 781 1047 q 836 953 836 996 q 826 906 836 928 q 799 869 815 885 q 762 844 782 853 q 722 836 742 836 z "},"©":{"ha":1106,"x_min":167,"x_max":1133,"o":"m 1133 482 q 1094 269 1133 363 q 988 112 1054 176 q 833 13 921 47 q 650 -21 746 -21 q 467 13 554 -21 q 313 112 379 47 q 206 269 246 176 q 167 482 167 363 q 206 694 167 600 q 313 852 246 788 q 467 951 379 917 q 650 985 554 985 q 833 951 746 985 q 988 852 921 917 q 1094 694 1054 788 q 1133 482 1133 600 m 992 482 q 967 633 992 565 q 897 750 942 701 q 788 825 851 799 q 650 851 725 851 q 512 825 575 851 q 403 750 449 799 q 333 633 358 701 q 308 482 308 565 q 333 331 308 399 q 403 214 358 263 q 512 139 449 165 q 650 113 575 113 q 788 139 725 113 q 897 214 851 165 q 967 331 942 263 q 992 482 992 399 m 672 222 q 483 290 547 222 q 418 485 418 358 q 487 678 418 611 q 668 746 556 746 q 776 728 735 746 q 832 701 817 710 l 788 579 q 744 598 768 590 q 681 606 719 606 q 607 576 635 606 q 579 492 579 547 q 583 444 579 467 q 599 403 588 421 q 629 375 610 386 q 681 364 649 364 q 750 374 722 364 q 800 392 778 383 l 839 265 q 778 239 821 256 q 672 222 735 222 z "},"ª":{"ha":656,"x_min":208,"x_max":753,"o":"m 576 843 q 558 845 567 844 q 540 846 549 846 q 469 833 503 846 q 410 797 436 821 q 370 739 385 772 q 356 664 356 706 q 377 592 356 622 q 443 563 399 563 q 483 569 463 563 q 526 593 504 576 q 525 613 525 597 q 529 656 525 633 q 539 699 533 678 l 576 843 m 692 700 q 674 590 678 653 q 700 447 669 526 l 569 429 l 551 472 q 406 424 478 424 q 320 442 357 424 q 258 491 283 460 q 221 563 233 522 q 208 649 208 604 q 231 767 208 707 q 298 874 253 826 q 412 953 343 922 q 575 983 481 983 q 660 978 615 983 q 753 958 704 972 l 692 700 z "},"«":{"ha":851,"x_min":139,"x_max":949,"o":"m 356 376 l 456 125 l 318 61 l 139 403 l 443 728 l 574 650 l 356 376 m 731 376 l 831 125 l 693 61 l 514 403 l 818 728 l 949 650 l 731 376 z "},"¬":{"ha":789,"x_min":140,"x_max":835,"o":"m 714 71 l 525 71 l 604 396 l 140 396 l 182 569 l 835 569 l 714 71 z "},"­":{"ha":476,"x_min":101,"x_max":550,"o":"m 147 508 l 550 508 l 504 321 l 101 321 l 147 508 z "},"®":{"ha":1106,"x_min":167,"x_max":1133,"o":"m 1133 482 q 1094 269 1133 363 q 988 112 1054 176 q 833 13 921 47 q 650 -21 746 -21 q 467 13 554 -21 q 313 112 379 47 q 206 269 246 176 q 167 482 167 363 q 206 694 167 600 q 313 852 246 788 q 467 951 379 917 q 650 985 554 985 q 833 951 746 985 q 988 852 921 917 q 1094 694 1054 788 q 1133 482 1133 600 m 992 482 q 967 633 992 565 q 897 750 942 701 q 788 825 851 799 q 650 851 725 851 q 512 825 575 851 q 403 750 449 799 q 333 633 358 701 q 308 482 308 565 q 333 331 308 399 q 403 214 358 263 q 512 139 449 165 q 650 113 575 113 q 788 139 725 113 q 897 214 851 165 q 967 331 942 263 q 992 482 992 399 m 735 246 q 694 338 711 299 q 657 410 678 378 l 601 410 l 601 246 l 467 246 l 467 721 q 555 737 514 732 q 626 742 596 742 q 850 574 850 742 q 775 447 850 488 q 802 402 790 424 q 826 358 814 381 q 849 308 838 335 q 876 246 861 281 l 735 246 m 601 518 l 626 518 q 693 530 671 518 q 715 575 715 542 q 696 614 715 603 q 639 625 676 625 q 619 624 629 625 q 601 622 608 624 l 601 518 z "},"¯":{"ha":522,"x_min":238,"x_max":719,"o":"m 272 1007 l 719 1007 l 685 865 l 238 865 l 272 1007 z "},"°":{"ha":531,"x_min":222,"x_max":669,"o":"m 446 1085 q 531 1070 490 1085 q 603 1027 572 1056 q 651 959 633 999 q 669 869 669 919 q 651 780 669 819 q 603 712 633 740 q 531 669 572 683 q 446 654 490 654 q 360 669 401 654 q 289 712 319 683 q 240 780 258 740 q 222 869 222 819 q 240 959 222 919 q 289 1027 258 999 q 360 1070 319 1056 q 446 1085 401 1085 m 446 790 q 499 812 475 790 q 522 869 522 833 q 499 927 522 906 q 446 949 475 949 q 393 927 417 949 q 369 869 369 906 q 393 812 369 833 q 446 790 417 790 z "},"±":{"ha":789,"x_min":61,"x_max":865,"o":"m 213 632 l 444 632 l 501 868 l 690 868 l 633 632 l 865 632 l 824 458 l 592 458 l 535 222 l 346 222 l 403 458 l 171 458 l 213 632 m 101 174 l 754 174 l 713 0 l 61 0 l 101 174 z "},"²":{"ha":504,"x_min":144,"x_max":603,"o":"m 571 546 l 543 419 l 144 419 q 153 499 144 463 q 182 569 161 536 q 240 634 203 603 q 335 697 276 665 q 399 735 375 719 q 435 765 422 751 q 451 790 447 778 q 454 815 454 801 q 440 844 454 833 q 403 856 426 856 q 341 840 376 856 q 261 789 306 825 l 210 899 q 431 985 304 985 q 497 976 465 985 q 551 951 528 968 q 589 906 575 933 q 603 840 603 878 q 569 728 603 776 q 461 633 536 681 q 422 609 442 621 q 385 585 403 597 q 356 564 368 574 q 339 546 343 554 l 571 546 z "},"³":{"ha":504,"x_min":128,"x_max":604,"o":"m 183 569 q 250 542 210 553 q 331 532 290 532 q 408 547 375 532 q 442 599 442 563 q 421 635 442 622 q 354 649 400 649 l 283 649 l 311 756 l 374 756 q 442 776 418 756 q 467 821 467 797 q 451 850 467 838 q 403 863 436 863 q 332 851 368 863 q 268 826 296 840 l 239 938 q 328 970 274 956 q 439 985 383 985 q 502 978 472 985 q 555 956 532 972 q 591 915 578 940 q 604 851 604 889 q 581 772 604 811 q 513 714 557 733 q 561 667 543 699 q 579 599 579 636 q 557 510 579 546 q 499 451 535 474 q 416 417 463 428 q 322 407 369 407 q 215 419 267 407 q 128 453 164 431 l 183 569 z "},"´":{"ha":397,"x_min":246,"x_max":575,"o":"m 575 989 l 329 800 l 246 886 l 468 1110 l 575 989 z "},"µ":{"ha":878,"x_min":49,"x_max":906,"o":"m 906 731 l 807 315 q 795 265 800 288 q 790 224 790 242 q 808 176 790 192 q 875 157 826 160 l 807 -15 q 675 6 719 -14 q 611 56 631 26 q 515 3 565 22 q 415 -17 464 -17 q 356 -8 385 -17 q 301 21 326 1 q 297 -42 301 -11 q 281 -124 293 -72 l 254 -231 l 49 -231 l 278 731 l 485 731 l 392 339 q 381 290 386 315 q 375 240 376 264 q 394 180 375 204 q 469 156 413 156 q 517 165 488 156 q 586 210 546 174 q 595 283 589 244 q 608 351 601 321 l 699 731 l 906 731 z "},"¶":{"ha":986,"x_min":215,"x_max":1071,"o":"m 429 358 q 272 436 329 374 q 215 607 215 499 q 257 765 215 696 q 374 879 299 833 q 558 949 450 925 q 799 972 665 972 q 929 967 863 972 q 1071 949 996 961 l 782 -257 l 585 -257 l 840 808 q 793 813 821 811 q 735 814 765 814 l 478 -257 l 281 -257 l 429 358 z "},"·":{"ha":336,"x_min":136,"x_max":389,"o":"m 275 538 q 356 510 324 538 q 389 425 389 483 q 377 367 389 393 q 346 322 365 340 q 301 292 326 303 q 250 282 276 282 q 169 309 201 282 q 136 394 136 336 q 148 453 136 426 q 179 498 160 479 q 224 527 199 517 q 275 538 249 538 z "},"¸":{"ha":453,"x_min":-1,"x_max":332,"o":"m 269 -61 q 315 -101 300 -76 q 331 -154 331 -126 q 315 -224 331 -194 q 272 -272 299 -253 q 210 -299 244 -290 q 139 -307 175 -307 q 65 -299 101 -307 q -1 -275 28 -290 l 49 -161 q 90 -175 67 -169 q 133 -181 113 -181 q 189 -147 189 -181 q 179 -122 189 -132 q 147 -103 169 -112 l 119 -90 q 140 -59 128 -76 q 165 -24 153 -42 q 187 7 176 -7 q 201 28 197 21 l 332 28 q 318 9 326 21 q 301 -15 310 -3 q 283 -40 292 -28 q 269 -61 275 -53 z "},"¹":{"ha":504,"x_min":217,"x_max":574,"o":"m 217 858 q 344 912 283 882 q 453 974 404 942 l 574 974 l 442 419 l 283 419 l 372 794 q 309 766 342 779 q 232 738 276 753 l 217 858 z "},"º":{"ha":610,"x_min":194,"x_max":721,"o":"m 339 633 q 346 591 339 607 q 364 566 353 575 q 390 553 375 557 q 419 550 404 550 q 478 567 450 550 q 528 615 507 585 q 563 687 550 646 q 576 776 576 728 q 569 818 576 801 q 551 844 563 835 q 526 856 540 853 q 496 860 511 860 q 437 842 465 860 q 387 794 408 825 q 352 722 365 764 q 339 633 339 681 m 194 622 q 215 757 194 692 q 274 873 235 822 q 374 954 314 924 q 511 985 433 985 q 670 932 619 985 q 721 788 721 879 q 701 653 721 718 q 641 537 681 588 q 542 456 601 486 q 404 425 482 425 q 245 478 296 425 q 194 622 194 531 z "},"»":{"ha":851,"x_min":85,"x_max":893,"o":"m 303 413 l 203 664 l 340 728 l 519 386 l 215 61 l 85 139 l 303 413 m 676 413 l 576 664 l 714 728 l 893 386 l 589 61 l 458 139 l 676 413 z "},"¼":{"ha":1219,"x_min":190,"x_max":1214,"o":"m 190 858 q 317 912 257 882 q 426 974 378 942 l 547 974 l 415 419 l 257 419 l 346 794 q 283 766 315 779 q 206 738 250 753 l 190 858 m 1154 963 l 431 0 l 239 0 l 965 963 l 1154 963 m 1214 557 l 1136 236 l 1200 236 l 1174 125 l 1110 125 l 1079 1 l 949 1 l 979 125 l 715 125 l 736 221 q 897 402 813 319 q 1085 557 981 485 l 1214 557 m 1049 413 q 960 330 1006 375 q 879 236 915 285 l 1006 236 l 1049 413 z "},"½":{"ha":1219,"x_min":204,"x_max":1247,"o":"m 204 858 q 331 912 271 882 q 440 974 392 942 l 561 974 l 429 419 l 271 419 l 360 794 q 297 766 329 779 q 219 738 264 753 l 204 858 m 1129 963 l 406 0 l 214 0 l 940 963 l 1129 963 m 1215 129 l 1188 3 l 789 3 q 797 83 789 46 q 826 153 806 119 q 884 217 847 186 q 979 281 921 249 q 1043 319 1019 303 q 1079 348 1067 335 q 1095 373 1092 361 q 1099 399 1099 385 q 1085 428 1099 417 q 1047 439 1071 439 q 985 424 1021 439 q 906 372 950 408 l 854 482 q 1075 568 949 568 q 1141 560 1110 568 q 1196 534 1172 551 q 1233 489 1219 517 q 1247 424 1247 461 q 1214 312 1247 360 q 1106 217 1181 264 q 1067 192 1086 204 q 1030 169 1047 181 q 1000 147 1013 157 q 983 129 988 138 l 1215 129 z "},"¾":{"ha":1219,"x_min":115,"x_max":1242,"o":"m 171 569 q 238 542 197 553 q 318 532 278 532 q 396 547 363 532 q 429 599 429 563 q 408 635 429 622 q 342 649 388 649 l 271 649 l 299 756 l 361 756 q 430 776 406 756 q 454 821 454 797 q 439 850 454 838 q 390 863 424 863 q 319 851 356 863 q 256 826 283 840 l 226 938 q 316 970 261 956 q 426 985 371 985 q 490 978 460 985 q 542 956 519 972 q 578 915 565 940 q 592 851 592 889 q 568 772 592 811 q 500 714 544 733 q 549 667 531 699 q 567 599 567 636 q 544 510 567 546 q 486 451 522 474 q 403 417 450 428 q 310 407 357 407 q 203 419 254 407 q 115 453 151 431 l 171 569 m 1182 963 l 458 0 l 267 0 l 993 963 l 1182 963 m 1242 557 l 1164 236 l 1228 236 l 1201 125 l 1138 125 l 1107 1 l 976 1 l 1007 125 l 743 125 l 764 221 q 924 402 840 319 q 1113 557 1008 485 l 1242 557 m 1076 413 q 988 330 1033 375 q 907 236 943 285 l 1033 236 l 1076 413 z "},"¿":{"ha":597,"x_min":56,"x_max":649,"o":"m 414 147 q 342 92 372 115 q 294 48 313 68 q 267 10 275 28 q 258 -28 258 -7 q 284 -81 258 -64 q 349 -97 310 -97 q 401 -92 374 -97 q 456 -80 429 -87 q 506 -62 482 -72 q 547 -42 529 -53 l 574 -204 q 449 -253 519 -235 q 308 -272 379 -272 q 213 -260 258 -272 q 132 -222 167 -247 q 76 -158 97 -196 q 56 -69 56 -119 q 74 35 56 -10 q 122 114 93 79 q 188 177 151 149 q 261 233 225 206 q 353 313 314 272 q 399 406 393 353 l 582 406 q 569 326 582 361 q 533 259 556 290 q 479 201 510 228 q 414 147 449 174 m 510 475 q 428 502 461 475 q 396 588 396 529 q 408 646 396 619 q 439 691 419 672 q 483 720 458 710 q 535 731 508 731 q 616 703 583 731 q 649 618 649 676 q 637 560 649 586 q 606 515 625 533 q 561 485 586 496 q 510 475 536 475 z "},"À":{"ha":992,"x_min":21,"x_max":957,"o":"m 739 0 q 733 106 736 54 q 725 210 729 158 l 364 210 q 306 106 336 158 q 247 0 275 54 l 21 0 q 190 288 111 156 q 341 536 268 419 q 483 758 414 653 q 625 963 553 863 l 818 963 q 860 741 840 863 q 898 492 881 619 q 930 238 915 365 q 957 0 944 111 l 739 0 m 675 751 q 560 567 617 658 q 451 379 504 475 l 711 379 q 697 560 704 464 q 675 751 689 656 m 644 1332 l 832 1103 l 743 1022 l 517 1222 l 644 1332 z "},"Á":{"ha":992,"x_min":21,"x_max":957,"o":"m 739 0 q 733 106 736 54 q 725 210 729 158 l 364 210 q 306 106 336 158 q 247 0 275 54 l 21 0 q 190 288 111 156 q 341 536 268 419 q 483 758 414 653 q 625 963 553 863 l 818 963 q 860 741 840 863 q 898 492 881 619 q 930 238 915 365 q 957 0 944 111 l 739 0 m 675 751 q 560 567 617 658 q 451 379 504 475 l 711 379 q 697 560 704 464 q 675 751 689 656 m 907 1211 l 661 1022 l 578 1108 l 800 1332 l 907 1211 z "},"Â":{"ha":992,"x_min":21,"x_max":957,"o":"m 739 0 q 733 106 736 54 q 725 210 729 158 l 364 210 q 306 106 336 158 q 247 0 275 54 l 21 0 q 190 288 111 156 q 341 536 268 419 q 483 758 414 653 q 625 963 553 863 l 818 963 q 860 741 840 863 q 898 492 881 619 q 930 238 915 365 q 957 0 944 111 l 739 0 m 675 751 q 560 567 617 658 q 451 379 504 475 l 711 379 q 697 560 704 464 q 675 751 689 656 m 957 1104 l 874 1031 l 758 1139 l 601 1033 l 538 1118 l 786 1319 l 957 1104 z "},"Ã":{"ha":992,"x_min":21,"x_max":1013,"o":"m 739 0 q 733 106 736 54 q 725 210 729 158 l 364 210 q 306 106 336 158 q 247 0 275 54 l 21 0 q 190 288 111 156 q 341 536 268 419 q 483 758 414 653 q 625 963 553 863 l 818 963 q 860 741 840 863 q 898 492 881 619 q 930 238 915 365 q 957 0 944 111 l 739 0 m 675 751 q 560 567 617 658 q 451 379 504 475 l 711 379 q 697 560 704 464 q 675 751 689 656 m 828 1069 q 781 1077 801 1069 q 742 1094 760 1085 q 707 1110 724 1103 q 674 1118 690 1118 q 638 1107 654 1118 q 599 1061 622 1096 l 506 1118 q 582 1230 538 1193 q 690 1267 626 1267 q 738 1259 717 1267 q 776 1242 758 1251 q 811 1226 794 1233 q 844 1218 828 1218 q 880 1229 864 1218 q 919 1275 896 1240 l 1013 1218 q 936 1106 981 1143 q 828 1069 892 1069 z "},"Ä":{"ha":992,"x_min":21,"x_max":1022,"o":"m 739 0 q 733 106 736 54 q 725 210 729 158 l 364 210 q 306 106 336 158 q 247 0 275 54 l 21 0 q 190 288 111 156 q 341 536 268 419 q 483 758 414 653 q 625 963 553 863 l 818 963 q 860 741 840 863 q 898 492 881 619 q 930 238 915 365 q 957 0 944 111 l 739 0 m 675 751 q 560 567 617 658 q 451 379 504 475 l 711 379 q 697 560 704 464 q 675 751 689 656 m 600 1058 q 533 1083 560 1058 q 507 1150 507 1108 q 517 1199 507 1176 q 542 1236 526 1221 q 578 1260 558 1251 q 619 1269 599 1269 q 686 1244 658 1269 q 714 1175 714 1218 q 703 1128 714 1150 q 676 1091 693 1107 q 640 1067 660 1075 q 600 1058 619 1058 m 908 1058 q 842 1083 868 1058 q 815 1150 815 1108 q 825 1199 815 1176 q 851 1236 835 1221 q 887 1260 867 1251 q 928 1269 907 1269 q 994 1244 967 1269 q 1022 1175 1022 1218 q 1012 1128 1022 1150 q 985 1091 1001 1107 q 948 1067 968 1075 q 908 1058 928 1058 z "},"Å":{"ha":992,"x_min":21,"x_max":957,"o":"m 739 0 q 733 106 736 54 q 725 210 729 158 l 364 210 q 306 106 336 158 q 247 0 275 54 l 21 0 q 188 283 110 153 q 337 530 265 414 q 477 749 408 646 q 617 951 546 853 q 585 1001 597 972 q 574 1065 574 1029 q 587 1134 574 1104 q 623 1184 600 1164 q 675 1215 646 1204 q 736 1225 704 1225 q 799 1215 769 1225 q 852 1184 829 1204 q 888 1134 875 1164 q 901 1065 901 1104 q 880 982 901 1017 q 825 928 858 947 q 865 710 846 828 q 901 471 885 593 q 932 228 918 349 q 957 0 946 107 l 739 0 m 675 751 q 560 567 617 658 q 451 379 504 475 l 711 379 q 697 560 704 464 q 675 751 689 656 m 800 1065 q 781 1114 800 1097 q 736 1131 761 1131 q 693 1114 713 1131 q 674 1065 674 1097 q 693 1017 674 1033 q 736 1000 713 1000 q 781 1017 761 1000 q 800 1065 800 1033 z "},"Æ":{"ha":1357,"x_min":0,"x_max":1496,"o":"m 706 228 l 394 228 q 306 114 351 175 q 222 0 260 53 l 0 0 q 217 278 117 150 q 413 520 317 406 q 605 743 508 635 q 808 963 701 851 l 1496 963 l 1451 781 l 1040 781 l 996 592 l 1358 592 l 1315 414 l 953 414 l 897 182 l 1340 182 l 1296 0 l 650 0 l 706 228 m 832 758 q 763 681 803 726 q 681 587 724 636 q 597 488 639 538 q 522 400 556 439 l 746 400 l 832 758 z "},"Ç":{"ha":886,"x_min":171,"x_max":1018,"o":"m 853 42 q 728 -2 796 14 q 563 -19 661 -18 q 547 -42 554 -31 q 535 -61 540 -53 q 581 -101 565 -76 q 596 -154 596 -126 q 580 -224 596 -194 q 537 -272 564 -253 q 475 -299 510 -290 q 404 -307 440 -307 q 330 -299 367 -307 q 264 -275 293 -290 l 314 -161 q 355 -175 332 -169 q 399 -181 378 -181 q 454 -147 454 -181 q 444 -122 454 -132 q 413 -103 435 -112 l 385 -90 l 442 -6 q 243 130 315 26 q 171 389 171 233 q 209 604 171 497 q 322 795 247 711 q 503 932 396 879 q 751 985 611 985 q 883 969 818 985 q 1018 915 947 954 l 940 747 q 836 789 882 778 q 738 800 790 800 q 595 768 658 800 q 487 681 532 736 q 418 554 442 626 q 394 401 394 482 q 448 224 394 279 q 601 168 501 168 q 724 182 668 168 q 829 218 781 196 l 853 42 z "},"È":{"ha":825,"x_min":104,"x_max":964,"o":"m 104 0 l 335 963 l 964 963 l 919 785 l 507 785 l 463 590 l 826 590 l 783 415 l 419 415 l 364 179 l 808 179 l 764 0 l 104 0 m 603 1332 l 790 1103 l 701 1022 l 475 1222 l 603 1332 z "},"É":{"ha":825,"x_min":104,"x_max":964,"o":"m 104 0 l 335 963 l 964 963 l 919 785 l 507 785 l 463 590 l 826 590 l 783 415 l 419 415 l 364 179 l 808 179 l 764 0 l 104 0 m 896 1211 l 650 1022 l 567 1108 l 789 1332 l 896 1211 z "},"Ê":{"ha":825,"x_min":104,"x_max":964,"o":"m 104 0 l 335 963 l 964 963 l 919 785 l 507 785 l 463 590 l 826 590 l 783 415 l 419 415 l 364 179 l 808 179 l 764 0 l 104 0 m 908 1104 l 825 1031 l 710 1139 l 553 1033 l 489 1118 l 738 1319 l 908 1104 z "},"Ë":{"ha":825,"x_min":104,"x_max":964,"o":"m 104 0 l 335 963 l 964 963 l 919 785 l 507 785 l 463 590 l 826 590 l 783 415 l 419 415 l 364 179 l 808 179 l 764 0 l 104 0 m 517 1058 q 450 1083 476 1058 q 424 1150 424 1108 q 433 1199 424 1176 q 459 1236 443 1221 q 495 1260 475 1251 q 536 1269 515 1269 q 603 1244 575 1269 q 631 1175 631 1218 q 620 1128 631 1150 q 593 1091 610 1107 q 556 1067 576 1075 q 517 1058 536 1058 m 825 1058 q 758 1083 785 1058 q 732 1150 732 1108 q 742 1199 732 1176 q 767 1236 751 1221 q 803 1260 783 1251 q 844 1269 824 1269 q 911 1244 883 1269 q 939 1175 939 1218 q 928 1128 939 1150 q 901 1091 918 1107 q 865 1067 885 1075 q 825 1058 844 1058 z "},"Ì":{"ha":433,"x_min":104,"x_max":551,"o":"m 335 963 l 551 963 l 319 0 l 104 0 l 335 963 m 364 1332 l 551 1103 l 463 1022 l 236 1222 l 364 1332 z "},"Í":{"ha":433,"x_min":104,"x_max":678,"o":"m 335 963 l 551 963 l 319 0 l 104 0 l 335 963 m 678 1211 l 432 1022 l 349 1108 l 571 1332 l 678 1211 z "},"Î":{"ha":433,"x_min":104,"x_max":694,"o":"m 335 963 l 551 963 l 319 0 l 104 0 l 335 963 m 694 1104 l 611 1031 l 496 1139 l 339 1033 l 275 1118 l 524 1319 l 694 1104 z "},"Ï":{"ha":433,"x_min":104,"x_max":747,"o":"m 335 963 l 551 963 l 319 0 l 104 0 l 335 963 m 325 1058 q 258 1083 285 1058 q 232 1150 232 1108 q 242 1199 232 1176 q 267 1236 251 1221 q 303 1260 283 1251 q 344 1269 324 1269 q 411 1244 383 1269 q 439 1175 439 1218 q 428 1128 439 1150 q 401 1091 418 1107 q 365 1067 385 1075 q 325 1058 344 1058 m 633 1058 q 567 1083 593 1058 q 540 1150 540 1108 q 550 1199 540 1176 q 576 1236 560 1221 q 612 1260 592 1251 q 653 1269 632 1269 q 719 1244 692 1269 q 747 1175 747 1218 q 737 1128 747 1150 q 710 1091 726 1107 q 673 1067 693 1075 q 633 1058 653 1058 z "},"Ð":{"ha":997,"x_min":90,"x_max":1047,"o":"m 357 174 q 388 172 372 172 q 432 171 404 171 q 595 199 522 171 q 719 278 668 226 q 797 406 769 331 q 825 576 825 482 q 813 665 825 625 q 772 733 800 704 q 698 776 743 761 q 589 792 653 792 q 504 788 547 792 l 454 579 l 631 579 l 593 419 l 415 419 l 357 174 m 1047 588 q 1001 336 1047 447 q 870 148 956 225 q 663 29 785 71 q 386 -12 540 -12 q 251 -6 328 -12 q 104 17 175 1 l 201 419 l 90 419 l 126 579 l 239 579 l 328 946 q 480 967 407 961 q 611 974 553 974 q 795 946 714 974 q 933 867 876 918 q 1018 744 989 815 q 1047 588 1047 674 z "},"Ñ":{"ha":1031,"x_min":104,"x_max":1149,"o":"m 754 0 q 624 328 696 164 q 469 638 553 492 l 317 0 l 104 0 l 335 963 l 500 963 q 569 848 532 914 q 644 706 606 782 q 722 547 683 629 q 796 383 761 464 l 933 963 l 1149 963 l 917 0 l 754 0 m 849 1069 q 801 1077 822 1069 q 763 1094 781 1085 q 728 1110 744 1103 q 694 1118 711 1118 q 659 1107 675 1118 q 619 1061 643 1096 l 526 1118 q 603 1230 558 1193 q 711 1267 647 1267 q 758 1259 738 1267 q 797 1242 779 1251 q 832 1226 815 1233 q 865 1218 849 1218 q 901 1229 885 1218 q 940 1275 917 1240 l 1033 1218 q 957 1106 1001 1143 q 849 1069 913 1069 z "},"Ò":{"ha":1051,"x_min":171,"x_max":1103,"o":"m 694 799 q 576 765 631 799 q 480 676 521 732 q 416 549 439 621 q 393 400 393 476 q 437 231 393 296 q 579 167 481 167 q 698 200 643 167 q 794 289 753 233 q 858 416 835 344 q 881 565 881 488 q 837 734 881 669 q 694 799 793 799 m 557 -19 q 401 8 472 -19 q 279 88 331 36 q 199 215 228 140 q 171 385 171 290 q 208 600 171 493 q 316 792 246 707 q 488 931 386 878 q 717 985 589 985 q 872 957 801 985 q 994 877 943 929 q 1074 750 1046 825 q 1103 581 1103 675 q 1066 365 1103 472 q 959 172 1029 257 q 788 33 889 86 q 557 -19 686 -19 m 736 1332 l 924 1103 l 835 1022 l 608 1222 l 736 1332 z "},"Ó":{"ha":1051,"x_min":171,"x_max":1103,"o":"m 694 799 q 576 765 631 799 q 480 676 521 732 q 416 549 439 621 q 393 400 393 476 q 437 231 393 296 q 579 167 481 167 q 698 200 643 167 q 794 289 753 233 q 858 416 835 344 q 881 565 881 488 q 837 734 881 669 q 694 799 793 799 m 557 -19 q 401 8 472 -19 q 279 88 331 36 q 199 215 228 140 q 171 385 171 290 q 208 600 171 493 q 316 792 246 707 q 488 931 386 878 q 717 985 589 985 q 872 957 801 985 q 994 877 943 929 q 1074 750 1046 825 q 1103 581 1103 675 q 1066 365 1103 472 q 959 172 1029 257 q 788 33 889 86 q 557 -19 686 -19 m 906 1211 l 660 1022 l 576 1108 l 799 1332 l 906 1211 z "},"Ô":{"ha":1051,"x_min":171,"x_max":1103,"o":"m 694 799 q 576 765 631 799 q 480 676 521 732 q 416 549 439 621 q 393 400 393 476 q 437 231 393 296 q 579 167 481 167 q 698 200 643 167 q 794 289 753 233 q 858 416 835 344 q 881 565 881 488 q 837 734 881 669 q 694 799 793 799 m 557 -19 q 401 8 472 -19 q 279 88 331 36 q 199 215 228 140 q 171 385 171 290 q 208 600 171 493 q 316 792 246 707 q 488 931 386 878 q 717 985 589 985 q 872 957 801 985 q 994 877 943 929 q 1074 750 1046 825 q 1103 581 1103 675 q 1066 365 1103 472 q 959 172 1029 257 q 788 33 889 86 q 557 -19 686 -19 m 956 1104 l 872 1031 l 757 1139 l 600 1033 l 536 1118 l 785 1319 l 956 1104 z "},"Õ":{"ha":1051,"x_min":171,"x_max":1103,"o":"m 694 799 q 576 765 631 799 q 480 676 521 732 q 416 549 439 621 q 393 400 393 476 q 437 231 393 296 q 579 167 481 167 q 698 200 643 167 q 794 289 753 233 q 858 416 835 344 q 881 565 881 488 q 837 734 881 669 q 694 799 793 799 m 557 -19 q 401 8 472 -19 q 279 88 331 36 q 199 215 228 140 q 171 385 171 290 q 208 600 171 493 q 316 792 246 707 q 488 931 386 878 q 717 985 589 985 q 872 957 801 985 q 994 877 943 929 q 1074 750 1046 825 q 1103 581 1103 675 q 1066 365 1103 472 q 959 172 1029 257 q 788 33 889 86 q 557 -19 686 -19 m 819 1069 q 772 1077 793 1069 q 733 1094 751 1085 q 699 1110 715 1103 q 665 1118 682 1118 q 630 1107 646 1118 q 590 1061 614 1096 l 497 1118 q 574 1230 529 1193 q 682 1267 618 1267 q 729 1259 708 1267 q 768 1242 750 1251 q 803 1226 786 1233 q 836 1218 819 1218 q 872 1229 856 1218 q 911 1275 888 1240 l 1004 1218 q 928 1106 972 1143 q 819 1069 883 1069 z "},"Ö":{"ha":1051,"x_min":171,"x_max":1103,"o":"m 694 799 q 576 765 631 799 q 480 676 521 732 q 416 549 439 621 q 393 400 393 476 q 437 231 393 296 q 579 167 481 167 q 698 200 643 167 q 794 289 753 233 q 858 416 835 344 q 881 565 881 488 q 837 734 881 669 q 694 799 793 799 m 557 -19 q 401 8 472 -19 q 279 88 331 36 q 199 215 228 140 q 171 385 171 290 q 208 600 171 493 q 316 792 246 707 q 488 931 386 878 q 717 985 589 985 q 872 957 801 985 q 994 877 943 929 q 1074 750 1046 825 q 1103 581 1103 675 q 1066 365 1103 472 q 959 172 1029 257 q 788 33 889 86 q 557 -19 686 -19 m 592 1058 q 525 1083 551 1058 q 499 1150 499 1108 q 508 1199 499 1176 q 534 1236 518 1221 q 570 1260 550 1251 q 611 1269 590 1269 q 678 1244 650 1269 q 706 1175 706 1218 q 695 1128 706 1150 q 668 1091 685 1107 q 631 1067 651 1075 q 592 1058 611 1058 m 900 1058 q 833 1083 860 1058 q 807 1150 807 1108 q 817 1199 807 1176 q 842 1236 826 1221 q 878 1260 858 1251 q 919 1269 899 1269 q 986 1244 958 1269 q 1014 1175 1014 1218 q 1003 1128 1014 1150 q 976 1091 993 1107 q 940 1067 960 1075 q 900 1058 919 1058 z "},"×":{"ha":789,"x_min":124,"x_max":838,"o":"m 124 231 l 361 422 l 219 610 l 361 724 l 501 536 l 740 729 l 838 601 l 600 410 l 742 222 l 600 108 l 460 296 l 221 103 l 124 231 z "},"Ø":{"ha":1051,"x_min":140,"x_max":1128,"o":"m 557 -19 q 338 39 429 -19 l 249 -62 l 140 25 l 239 138 q 171 385 171 235 q 208 600 171 493 q 316 792 246 707 q 488 931 386 878 q 717 985 589 985 q 933 926 842 985 l 1019 1025 l 1128 938 l 1033 829 q 1085 718 1067 781 q 1103 581 1103 656 q 1066 365 1103 472 q 959 172 1029 257 q 788 33 889 86 q 557 -19 686 -19 m 888 572 q 879 654 888 617 l 467 188 q 571 160 507 160 q 692 195 635 160 q 793 289 750 231 q 862 421 836 347 q 888 572 888 494 m 701 806 q 579 769 636 806 q 479 675 522 733 q 411 542 436 617 q 386 392 386 468 q 388 350 386 369 q 393 313 389 331 l 803 778 q 701 806 763 806 z "},"Ù":{"ha":949,"x_min":167,"x_max":1074,"o":"m 928 350 q 774 67 881 154 q 493 -19 668 -19 q 341 2 403 -19 q 240 62 279 24 q 184 153 201 100 q 167 269 167 207 q 188 424 167 342 l 317 963 l 533 963 l 397 393 q 383 292 383 343 q 390 242 383 264 q 412 203 396 219 q 455 177 428 186 q 522 168 482 168 q 649 220 606 168 q 715 368 692 272 l 857 963 l 1074 963 l 928 350 m 615 1332 l 803 1103 l 714 1022 l 488 1222 l 615 1332 z "},"Ú":{"ha":949,"x_min":167,"x_max":1074,"o":"m 928 350 q 774 67 881 154 q 493 -19 668 -19 q 341 2 403 -19 q 240 62 279 24 q 184 153 201 100 q 167 269 167 207 q 188 424 167 342 l 317 963 l 533 963 l 397 393 q 383 292 383 343 q 390 242 383 264 q 412 203 396 219 q 455 177 428 186 q 522 168 482 168 q 649 220 606 168 q 715 368 692 272 l 857 963 l 1074 963 l 928 350 m 890 1211 l 644 1022 l 561 1108 l 783 1332 l 890 1211 z "},"Û":{"ha":949,"x_min":167,"x_max":1074,"o":"m 928 350 q 774 67 881 154 q 493 -19 668 -19 q 341 2 403 -19 q 240 62 279 24 q 184 153 201 100 q 167 269 167 207 q 188 424 167 342 l 317 963 l 533 963 l 397 393 q 383 292 383 343 q 390 242 383 264 q 412 203 396 219 q 455 177 428 186 q 522 168 482 168 q 649 220 606 168 q 715 368 692 272 l 857 963 l 1074 963 l 928 350 m 932 1104 l 849 1031 l 733 1139 l 576 1033 l 513 1118 l 761 1319 l 932 1104 z "},"Ü":{"ha":949,"x_min":167,"x_max":1074,"o":"m 928 350 q 774 67 881 154 q 493 -19 668 -19 q 341 2 403 -19 q 240 62 279 24 q 184 153 201 100 q 167 269 167 207 q 188 424 167 342 l 317 963 l 533 963 l 397 393 q 383 292 383 343 q 390 242 383 264 q 412 203 396 219 q 455 177 428 186 q 522 168 482 168 q 649 220 606 168 q 715 368 692 272 l 857 963 l 1074 963 l 928 350 m 558 1058 q 492 1083 518 1058 q 465 1150 465 1108 q 475 1199 465 1176 q 501 1236 485 1221 q 537 1260 517 1251 q 578 1269 557 1269 q 644 1244 617 1269 q 672 1175 672 1218 q 662 1128 672 1150 q 635 1091 651 1107 q 598 1067 618 1075 q 558 1058 578 1058 m 867 1058 q 800 1083 826 1058 q 774 1150 774 1108 q 783 1199 774 1176 q 809 1236 793 1221 q 845 1260 825 1251 q 886 1269 865 1269 q 953 1244 925 1269 q 981 1175 981 1218 q 970 1128 981 1150 q 943 1091 960 1107 q 906 1067 926 1075 q 867 1058 886 1058 z "},"Ý":{"ha":906,"x_min":236,"x_max":1100,"o":"m 574 567 q 651 666 614 618 q 722 762 688 714 q 791 859 757 810 q 861 963 825 908 l 1100 963 q 988 807 1042 881 q 879 663 933 733 q 768 524 825 593 q 647 381 711 454 l 556 0 l 339 0 l 431 381 q 325 668 372 528 q 236 963 278 808 l 467 963 q 515 767 489 863 q 574 567 542 671 m 867 1211 l 621 1022 l 538 1108 l 760 1332 l 867 1211 z "},"Þ":{"ha":893,"x_min":103,"x_max":963,"o":"m 629 828 q 779 806 717 828 q 883 746 842 783 q 943 660 924 708 q 963 558 963 611 q 935 427 963 494 q 848 304 908 360 q 691 213 788 249 q 457 178 594 178 l 361 178 l 318 0 l 103 0 l 333 963 l 550 963 l 517 824 q 542 826 526 825 q 575 827 558 826 q 606 828 592 828 q 629 828 621 828 m 560 644 q 513 643 536 644 q 472 640 489 642 l 406 363 l 474 363 q 581 372 532 363 q 665 401 629 381 q 719 457 700 422 q 739 544 739 492 q 690 623 739 601 q 560 644 642 644 z "},"ß":{"ha":885,"x_min":-50,"x_max":940,"o":"m 290 789 q 345 923 308 868 q 431 1013 382 978 q 537 1063 479 1047 q 654 1078 594 1078 q 762 1063 710 1078 q 853 1022 814 1049 q 917 958 893 996 q 940 872 940 919 q 919 778 940 825 q 851 688 897 731 q 810 650 831 668 q 774 614 790 632 q 748 576 758 596 q 738 536 738 557 q 764 485 738 507 q 824 439 790 464 l 851 418 q 908 347 889 390 q 928 256 928 304 q 900 135 928 186 q 826 50 872 83 q 722 0 781 17 q 600 -17 663 -17 q 491 -4 544 -17 q 392 33 438 8 l 465 196 q 542 163 506 172 q 608 153 578 153 q 690 176 660 153 q 721 233 721 199 q 710 270 721 251 q 675 307 699 289 l 613 353 q 542 431 558 393 q 525 508 525 468 q 541 583 525 550 q 581 644 557 617 q 634 695 606 672 q 687 741 663 718 q 727 788 711 764 q 743 840 743 811 q 713 888 743 872 q 642 903 682 903 q 549 871 592 903 q 486 761 506 839 l 354 207 q 251 -102 307 8 q 129 -262 196 -212 l -50 -236 q 17 -154 -14 -203 q 72 -51 47 -106 q 113 59 96 3 q 142 164 131 115 l 290 789 z "},"à":{"ha":817,"x_min":139,"x_max":872,"o":"m 782 315 q 771 156 763 236 q 803 14 779 76 l 618 -12 q 603 19 610 4 q 589 54 596 35 q 503 1 550 22 q 397 -19 456 -19 q 278 5 328 -19 q 198 70 229 29 q 153 166 167 111 q 139 283 139 221 q 173 464 139 379 q 267 612 207 549 q 410 711 328 675 q 588 747 492 747 q 631 746 600 747 q 703 740 663 744 q 788 724 743 735 q 872 693 832 713 l 782 315 m 638 571 q 605 575 619 574 q 569 576 590 576 q 481 553 522 576 q 410 491 440 529 q 362 403 379 453 q 344 299 344 353 q 367 193 344 232 q 449 154 389 154 q 506 167 481 154 q 561 208 532 179 q 570 281 564 243 q 583 351 576 319 l 638 571 m 618 1110 l 806 881 l 717 800 l 490 1000 l 618 1110 z "},"á":{"ha":817,"x_min":139,"x_max":872,"o":"m 782 315 q 771 156 763 236 q 803 14 779 76 l 618 -12 q 603 19 610 4 q 589 54 596 35 q 503 1 550 22 q 397 -19 456 -19 q 278 5 328 -19 q 198 70 229 29 q 153 166 167 111 q 139 283 139 221 q 173 464 139 379 q 267 612 207 549 q 410 711 328 675 q 588 747 492 747 q 631 746 600 747 q 703 740 663 744 q 788 724 743 735 q 872 693 832 713 l 782 315 m 638 571 q 605 575 619 574 q 569 576 590 576 q 481 553 522 576 q 410 491 440 529 q 362 403 379 453 q 344 299 344 353 q 367 193 344 232 q 449 154 389 154 q 506 167 481 154 q 561 208 532 179 q 570 281 564 243 q 583 351 576 319 l 638 571 m 822 989 l 576 800 l 493 886 l 715 1110 l 822 989 z "},"â":{"ha":817,"x_min":139,"x_max":872,"o":"m 782 315 q 771 156 763 236 q 803 14 779 76 l 618 -12 q 603 19 610 4 q 589 54 596 35 q 503 1 550 22 q 397 -19 456 -19 q 278 5 328 -19 q 198 70 229 29 q 153 166 167 111 q 139 283 139 221 q 173 464 139 379 q 267 612 207 549 q 410 711 328 675 q 588 747 492 747 q 631 746 600 747 q 703 740 663 744 q 788 724 743 735 q 872 693 832 713 l 782 315 m 638 571 q 605 575 619 574 q 569 576 590 576 q 481 553 522 576 q 410 491 440 529 q 362 403 379 453 q 344 299 344 353 q 367 193 344 232 q 449 154 389 154 q 506 167 481 154 q 561 208 532 179 q 570 281 564 243 q 583 351 576 319 l 638 571 m 824 874 l 740 800 l 625 908 l 468 803 l 404 888 l 653 1089 l 824 874 z "},"ã":{"ha":817,"x_min":139,"x_max":893,"o":"m 782 315 q 771 156 763 236 q 803 14 779 76 l 618 -12 q 603 19 610 4 q 589 54 596 35 q 503 1 550 22 q 397 -19 456 -19 q 278 5 328 -19 q 198 70 229 29 q 153 166 167 111 q 139 283 139 221 q 173 464 139 379 q 267 612 207 549 q 410 711 328 675 q 588 747 492 747 q 631 746 600 747 q 703 740 663 744 q 788 724 743 735 q 872 693 832 713 l 782 315 m 638 571 q 605 575 619 574 q 569 576 590 576 q 481 553 522 576 q 410 491 440 529 q 362 403 379 453 q 344 299 344 353 q 367 193 344 232 q 449 154 389 154 q 506 167 481 154 q 561 208 532 179 q 570 281 564 243 q 583 351 576 319 l 638 571 m 708 843 q 661 851 682 843 q 622 867 640 858 q 588 884 604 876 q 554 892 571 892 q 519 881 535 892 q 479 835 503 869 l 386 892 q 463 1003 418 967 q 571 1040 507 1040 q 618 1033 597 1040 q 657 1016 639 1025 q 692 999 675 1007 q 725 992 708 992 q 760 1003 744 992 q 800 1049 776 1014 l 893 992 q 817 880 861 917 q 708 843 772 843 z "},"ä":{"ha":817,"x_min":139,"x_max":874,"o":"m 782 315 q 771 156 763 236 q 803 14 779 76 l 618 -12 q 603 19 610 4 q 589 54 596 35 q 503 1 550 22 q 397 -19 456 -19 q 278 5 328 -19 q 198 70 229 29 q 153 166 167 111 q 139 283 139 221 q 173 464 139 379 q 267 612 207 549 q 410 711 328 675 q 588 747 492 747 q 631 746 600 747 q 703 740 663 744 q 788 724 743 735 q 872 693 832 713 l 782 315 m 638 571 q 605 575 619 574 q 569 576 590 576 q 481 553 522 576 q 410 491 440 529 q 362 403 379 453 q 344 299 344 353 q 367 193 344 232 q 449 154 389 154 q 506 167 481 154 q 561 208 532 179 q 570 281 564 243 q 583 351 576 319 l 638 571 m 451 836 q 385 861 411 836 q 358 928 358 886 q 368 976 358 954 q 394 1014 378 999 q 430 1038 410 1029 q 471 1047 450 1047 q 538 1022 510 1047 q 565 953 565 996 q 555 906 565 928 q 528 869 544 885 q 491 844 511 853 q 451 836 471 836 m 760 836 q 693 861 719 836 q 667 928 667 886 q 676 976 667 954 q 702 1014 686 999 q 738 1038 718 1029 q 779 1047 758 1047 q 846 1022 818 1047 q 874 953 874 996 q 863 906 874 928 q 836 869 853 885 q 799 844 819 853 q 760 836 779 836 z "},"å":{"ha":817,"x_min":139,"x_max":872,"o":"m 782 315 q 771 156 763 236 q 803 14 779 76 l 618 -12 q 603 19 610 4 q 589 54 596 35 q 503 1 550 22 q 397 -19 456 -19 q 278 5 328 -19 q 198 70 229 29 q 153 166 167 111 q 139 283 139 221 q 173 464 139 379 q 267 612 207 549 q 410 711 328 675 q 588 747 492 747 q 631 746 600 747 q 703 740 663 744 q 788 724 743 735 q 872 693 832 713 l 782 315 m 638 571 q 605 575 619 574 q 569 576 590 576 q 481 553 522 576 q 410 491 440 529 q 362 403 379 453 q 344 299 344 353 q 367 193 344 232 q 449 154 389 154 q 506 167 481 154 q 561 208 532 179 q 570 281 564 243 q 583 351 576 319 l 638 571 m 792 971 q 778 902 792 932 q 742 852 765 872 q 690 822 719 832 q 626 811 660 811 q 565 822 594 811 q 513 852 536 832 q 477 902 490 872 q 464 971 464 932 q 477 1040 464 1010 q 513 1090 490 1069 q 565 1120 536 1110 q 626 1131 594 1131 q 690 1120 660 1131 q 742 1090 719 1110 q 778 1040 765 1069 q 792 971 792 1010 m 690 971 q 671 1019 690 1003 q 626 1036 651 1036 q 583 1019 603 1036 q 564 971 564 1003 q 583 922 564 939 q 626 906 603 906 q 671 922 651 906 q 690 971 690 939 z "},"æ":{"ha":1163,"x_min":125,"x_max":1232,"o":"m 244 710 q 351 738 293 726 q 468 750 410 750 q 615 724 547 750 q 725 629 683 697 q 785 681 751 658 q 854 719 818 704 q 928 742 890 735 q 1003 750 967 750 q 1090 738 1049 750 q 1163 699 1132 725 q 1213 635 1194 674 q 1232 544 1232 596 q 1198 413 1232 467 q 1103 324 1164 358 q 958 275 1042 290 q 775 260 875 260 q 817 177 785 201 q 921 153 850 153 q 1011 160 965 153 q 1097 183 1057 168 l 1113 21 q 1002 -8 1060 3 q 886 -19 944 -19 q 743 6 810 -19 q 632 99 676 32 q 576 49 608 71 q 506 11 543 26 q 431 -12 469 -4 q 354 -19 392 -19 q 267 -8 308 -19 q 194 29 226 4 q 144 93 163 54 q 125 186 125 132 q 159 318 125 264 q 254 406 193 372 q 399 456 315 440 q 582 471 482 471 q 540 553 572 529 q 436 578 507 578 q 346 570 392 578 q 260 547 300 563 l 244 710 m 388 144 q 509 195 458 144 q 576 329 560 246 q 438 315 490 326 q 358 286 386 303 q 322 249 331 269 q 313 211 313 229 q 388 144 313 144 m 969 586 q 848 535 899 586 q 781 401 797 485 q 919 416 867 404 q 999 444 971 428 q 1035 481 1026 461 q 1044 519 1044 500 q 969 586 1044 586 z "},"ç":{"ha":667,"x_min":139,"x_max":778,"o":"m 139 292 q 169 469 139 386 q 257 615 200 553 q 395 714 314 678 q 576 750 476 750 q 688 738 639 750 q 778 707 738 726 l 707 546 q 649 566 679 557 q 576 575 619 575 q 413 505 472 575 q 353 314 353 435 q 383 199 353 243 q 496 156 414 156 q 574 164 536 156 q 640 185 611 172 l 656 19 q 576 -6 619 6 q 475 -19 533 -17 q 460 -42 467 -31 q 447 -61 453 -53 q 493 -101 478 -76 q 508 -154 508 -126 q 492 -224 508 -194 q 449 -272 476 -253 q 388 -299 422 -290 q 317 -307 353 -307 q 242 -299 279 -307 q 176 -275 206 -290 l 226 -161 q 267 -175 244 -169 q 311 -181 290 -181 q 367 -147 367 -181 q 357 -122 367 -132 q 325 -103 347 -112 l 297 -90 l 353 -7 q 256 35 296 7 q 189 103 215 64 q 151 191 163 143 q 139 292 139 239 z "},"è":{"ha":736,"x_min":139,"x_max":806,"o":"m 139 286 q 170 458 139 375 q 258 606 201 542 q 397 710 315 671 q 576 750 478 750 q 667 736 625 750 q 740 696 708 722 q 788 631 771 669 q 806 544 806 593 q 771 413 806 467 q 674 324 736 358 q 528 275 613 290 q 343 260 443 260 q 385 177 353 201 q 489 153 418 153 q 579 160 533 153 q 665 183 625 168 l 681 21 q 581 -7 642 6 q 450 -19 521 -19 q 305 5 364 -19 q 209 71 246 29 q 156 168 172 113 q 139 286 139 224 m 543 586 q 419 535 472 586 q 349 401 365 485 q 488 416 435 404 q 569 444 540 428 q 608 481 599 461 q 618 519 618 500 q 543 586 618 586 m 536 1110 l 724 881 l 635 800 l 408 1000 l 536 1110 z "},"é":{"ha":736,"x_min":139,"x_max":806,"o":"m 139 286 q 170 458 139 375 q 258 606 201 542 q 397 710 315 671 q 576 750 478 750 q 667 736 625 750 q 740 696 708 722 q 788 631 771 669 q 806 544 806 593 q 771 413 806 467 q 674 324 736 358 q 528 275 613 290 q 343 260 443 260 q 385 177 353 201 q 489 153 418 153 q 579 160 533 153 q 665 183 625 168 l 681 21 q 581 -7 642 6 q 450 -19 521 -19 q 305 5 364 -19 q 209 71 246 29 q 156 168 172 113 q 139 286 139 224 m 543 586 q 419 535 472 586 q 349 401 365 485 q 488 416 435 404 q 569 444 540 428 q 608 481 599 461 q 618 519 618 500 q 543 586 618 586 m 751 989 l 506 800 l 422 886 l 644 1110 l 751 989 z "},"ê":{"ha":736,"x_min":139,"x_max":806,"o":"m 139 286 q 170 458 139 375 q 258 606 201 542 q 397 710 315 671 q 576 750 478 750 q 667 736 625 750 q 740 696 708 722 q 788 631 771 669 q 806 544 806 593 q 771 413 806 467 q 674 324 736 358 q 528 275 613 290 q 343 260 443 260 q 385 177 353 201 q 489 153 418 153 q 579 160 533 153 q 665 183 625 168 l 681 21 q 581 -7 642 6 q 450 -19 521 -19 q 305 5 364 -19 q 209 71 246 29 q 156 168 172 113 q 139 286 139 224 m 543 586 q 419 535 472 586 q 349 401 365 485 q 488 416 435 404 q 569 444 540 428 q 608 481 599 461 q 618 519 618 500 q 543 586 618 586 m 800 874 l 717 800 l 601 908 l 444 803 l 381 888 l 629 1089 l 800 874 z "},"ë":{"ha":736,"x_min":139,"x_max":885,"o":"m 139 286 q 170 458 139 375 q 258 606 201 542 q 397 710 315 671 q 576 750 478 750 q 667 736 625 750 q 740 696 708 722 q 788 631 771 669 q 806 544 806 593 q 771 413 806 467 q 674 324 736 358 q 528 275 613 290 q 343 260 443 260 q 385 177 353 201 q 489 153 418 153 q 579 160 533 153 q 665 183 625 168 l 681 21 q 581 -7 642 6 q 450 -19 521 -19 q 305 5 364 -19 q 209 71 246 29 q 156 168 172 113 q 139 286 139 224 m 543 586 q 419 535 472 586 q 349 401 365 485 q 488 416 435 404 q 569 444 540 428 q 608 481 599 461 q 618 519 618 500 q 543 586 618 586 m 463 836 q 396 861 422 836 q 369 928 369 886 q 379 976 369 954 q 405 1014 389 999 q 441 1038 421 1029 q 482 1047 461 1047 q 549 1022 521 1047 q 576 953 576 996 q 566 906 576 928 q 539 869 556 885 q 502 844 522 853 q 463 836 482 836 m 771 836 q 704 861 731 836 q 678 928 678 886 q 688 976 678 954 q 713 1014 697 999 q 749 1038 729 1029 q 790 1047 769 1047 q 857 1022 829 1047 q 885 953 885 996 q 874 906 885 928 q 847 869 864 885 q 810 844 831 853 q 771 836 790 836 z "},"ì":{"ha":393,"x_min":97,"x_max":490,"o":"m 303 0 l 97 0 l 271 731 l 478 731 l 303 0 m 303 1110 l 490 881 l 401 800 l 175 1000 l 303 1110 z "},"í":{"ha":393,"x_min":97,"x_max":601,"o":"m 303 0 l 97 0 l 271 731 l 478 731 l 303 0 m 601 989 l 356 800 l 272 886 l 494 1110 l 601 989 z "},"î":{"ha":393,"x_min":97,"x_max":618,"o":"m 303 0 l 97 0 l 271 731 l 478 731 l 303 0 m 618 874 l 535 800 l 419 908 l 263 803 l 199 888 l 447 1089 l 618 874 z "},"ï":{"ha":393,"x_min":97,"x_max":683,"o":"m 303 0 l 97 0 l 271 731 l 478 731 l 303 0 m 261 836 q 194 861 221 836 q 168 928 168 886 q 178 976 168 954 q 203 1014 188 999 q 240 1038 219 1029 q 281 1047 260 1047 q 347 1022 319 1047 q 375 953 375 996 q 365 906 375 928 q 338 869 354 885 q 301 844 321 853 q 261 836 281 836 m 569 836 q 503 861 529 836 q 476 928 476 886 q 486 976 476 954 q 512 1014 496 999 q 548 1038 528 1029 q 589 1047 568 1047 q 656 1022 628 1047 q 683 953 683 996 q 673 906 683 928 q 646 869 663 885 q 609 844 629 853 q 569 836 589 836 z "},"ð":{"ha":842,"x_min":139,"x_max":967,"o":"m 815 850 q 861 709 847 783 q 875 551 875 635 q 847 329 875 433 q 763 148 819 225 q 622 26 707 71 q 424 -19 538 -19 q 303 4 356 -19 q 213 68 250 28 q 158 163 176 108 q 139 279 139 218 q 174 468 139 392 q 263 591 208 544 q 385 658 318 638 q 519 679 453 679 q 604 670 564 679 q 678 646 644 661 q 666 724 674 688 q 643 796 658 761 l 479 743 l 464 858 l 581 896 q 537 940 561 918 q 481 985 513 963 l 618 1078 q 754 951 697 1025 l 953 1017 l 967 899 l 815 850 m 449 160 q 536 188 499 160 q 599 263 574 217 q 640 366 625 308 q 658 481 654 424 q 525 515 585 515 q 447 497 481 515 q 392 447 414 479 q 358 373 369 415 q 347 282 347 331 q 372 196 347 232 q 449 160 396 160 z "},"ñ":{"ha":788,"x_min":97,"x_max":860,"o":"m 265 697 q 317 713 289 704 q 381 730 346 722 q 460 742 417 738 q 560 747 504 747 q 785 653 724 747 q 806 394 846 558 l 711 0 l 504 0 l 596 386 q 609 456 604 422 q 608 516 614 490 q 583 558 603 542 q 521 574 563 574 q 439 565 481 574 l 304 0 l 97 0 l 265 697 m 675 843 q 628 851 649 843 q 589 867 607 858 q 554 884 571 876 q 521 892 538 892 q 485 881 501 892 q 446 835 469 869 l 353 892 q 429 1003 385 967 q 538 1040 474 1040 q 585 1033 564 1040 q 624 1016 606 1025 q 658 999 642 1007 q 692 992 675 992 q 727 1003 711 992 q 767 1049 743 1014 l 860 992 q 783 880 828 917 q 675 843 739 843 z "},"ò":{"ha":797,"x_min":139,"x_max":839,"o":"m 428 -19 q 300 3 354 -19 q 210 65 246 25 q 157 160 175 106 q 139 282 139 215 q 166 449 139 365 q 246 599 193 532 q 375 708 299 665 q 550 750 451 750 q 677 728 622 750 q 767 665 732 706 q 821 570 803 625 q 839 449 839 515 q 813 282 839 365 q 735 132 786 199 q 606 23 683 65 q 428 -19 529 -19 m 531 575 q 450 549 485 575 q 392 482 415 522 q 356 394 368 442 q 344 303 344 346 q 367 194 344 232 q 447 156 389 156 q 528 182 493 156 q 586 249 563 208 q 622 337 610 289 q 633 428 633 385 q 611 537 633 499 q 531 575 589 575 m 507 1110 l 694 881 l 606 800 l 379 1000 l 507 1110 z "},"ó":{"ha":797,"x_min":139,"x_max":839,"o":"m 428 -19 q 300 3 354 -19 q 210 65 246 25 q 157 160 175 106 q 139 282 139 215 q 166 449 139 365 q 246 599 193 532 q 375 708 299 665 q 550 750 451 750 q 677 728 622 750 q 767 665 732 706 q 821 570 803 625 q 839 449 839 515 q 813 282 839 365 q 735 132 786 199 q 606 23 683 65 q 428 -19 529 -19 m 531 575 q 450 549 485 575 q 392 482 415 522 q 356 394 368 442 q 344 303 344 346 q 367 194 344 232 q 447 156 389 156 q 528 182 493 156 q 586 249 563 208 q 622 337 610 289 q 633 428 633 385 q 611 537 633 499 q 531 575 589 575 m 778 989 l 532 800 l 449 886 l 671 1110 l 778 989 z "},"ô":{"ha":797,"x_min":139,"x_max":839,"o":"m 428 -19 q 300 3 354 -19 q 210 65 246 25 q 157 160 175 106 q 139 282 139 215 q 166 449 139 365 q 246 599 193 532 q 375 708 299 665 q 550 750 451 750 q 677 728 622 750 q 767 665 732 706 q 821 570 803 625 q 839 449 839 515 q 813 282 839 365 q 735 132 786 199 q 606 23 683 65 q 428 -19 529 -19 m 531 575 q 450 549 485 575 q 392 482 415 522 q 356 394 368 442 q 344 303 344 346 q 367 194 344 232 q 447 156 389 156 q 528 182 493 156 q 586 249 563 208 q 622 337 610 289 q 633 428 633 385 q 611 537 633 499 q 531 575 589 575 m 800 874 l 717 800 l 601 908 l 444 803 l 381 888 l 629 1089 l 800 874 z "},"õ":{"ha":797,"x_min":139,"x_max":846,"o":"m 428 -19 q 300 3 354 -19 q 210 65 246 25 q 157 160 175 106 q 139 282 139 215 q 166 449 139 365 q 246 599 193 532 q 375 708 299 665 q 550 750 451 750 q 677 728 622 750 q 767 665 732 706 q 821 570 803 625 q 839 449 839 515 q 813 282 839 365 q 735 132 786 199 q 606 23 683 65 q 428 -19 529 -19 m 531 575 q 450 549 485 575 q 392 482 415 522 q 356 394 368 442 q 344 303 344 346 q 367 194 344 232 q 447 156 389 156 q 528 182 493 156 q 586 249 563 208 q 622 337 610 289 q 633 428 633 385 q 611 537 633 499 q 531 575 589 575 m 661 843 q 614 851 635 843 q 575 867 593 858 q 540 884 557 876 q 507 892 524 892 q 472 881 488 892 q 432 835 456 869 l 339 892 q 415 1003 371 967 q 524 1040 460 1040 q 571 1033 550 1040 q 610 1016 592 1025 q 644 999 628 1007 q 678 992 661 992 q 713 1003 697 992 q 753 1049 729 1014 l 846 992 q 769 880 814 917 q 661 843 725 843 z "},"ö":{"ha":797,"x_min":139,"x_max":850,"o":"m 428 -19 q 300 3 354 -19 q 210 65 246 25 q 157 160 175 106 q 139 282 139 215 q 166 449 139 365 q 246 599 193 532 q 375 708 299 665 q 550 750 451 750 q 677 728 622 750 q 767 665 732 706 q 821 570 803 625 q 839 449 839 515 q 813 282 839 365 q 735 132 786 199 q 606 23 683 65 q 428 -19 529 -19 m 531 575 q 450 549 485 575 q 392 482 415 522 q 356 394 368 442 q 344 303 344 346 q 367 194 344 232 q 447 156 389 156 q 528 182 493 156 q 586 249 563 208 q 622 337 610 289 q 633 428 633 385 q 611 537 633 499 q 531 575 589 575 m 428 836 q 361 861 388 836 q 335 928 335 886 q 344 976 335 954 q 370 1014 354 999 q 406 1038 386 1029 q 447 1047 426 1047 q 514 1022 486 1047 q 542 953 542 996 q 531 906 542 928 q 504 869 521 885 q 467 844 488 853 q 428 836 447 836 m 736 836 q 669 861 696 836 q 643 928 643 886 q 653 976 643 954 q 678 1014 663 999 q 715 1038 694 1029 q 756 1047 735 1047 q 822 1022 794 1047 q 850 953 850 996 q 840 906 850 928 q 813 869 829 885 q 776 844 796 853 q 736 836 756 836 z "},"÷":{"ha":789,"x_min":125,"x_max":821,"o":"m 168 501 l 821 501 l 778 328 l 125 328 l 168 501 m 411 251 q 485 226 456 251 q 515 149 515 201 q 476 51 515 86 q 386 15 436 15 q 312 40 342 15 q 282 118 282 65 q 322 216 282 181 q 411 251 361 251 m 546 813 q 620 788 590 813 q 650 710 650 763 q 610 612 650 647 q 521 576 571 576 q 447 601 476 576 q 417 679 417 626 q 456 777 417 742 q 546 813 496 813 z "},"ø":{"ha":797,"x_min":100,"x_max":863,"o":"m 381 161 q 442 151 408 151 q 533 178 496 151 q 594 249 571 206 q 628 347 618 293 q 639 456 639 401 l 381 161 m 428 -19 q 333 -8 375 -19 q 258 24 292 4 l 190 -54 l 100 19 l 179 110 q 139 282 139 183 q 166 449 139 365 q 246 599 193 532 q 375 708 299 665 q 550 750 451 750 q 637 740 597 750 q 708 713 676 731 l 772 786 l 863 713 l 792 632 q 827 549 815 596 q 839 449 839 501 q 813 282 839 365 q 735 132 786 199 q 606 23 683 65 q 428 -19 529 -19 m 590 578 q 529 588 563 588 q 438 560 475 588 q 376 490 400 533 q 342 392 353 446 q 332 283 332 338 l 590 578 z "},"ù":{"ha":807,"x_min":138,"x_max":863,"o":"m 863 731 l 764 315 q 753 156 744 236 q 785 14 761 76 l 600 -12 q 571 56 585 18 q 483 4 532 25 q 375 -17 435 -17 q 242 13 293 -17 q 167 92 192 43 q 140 206 142 142 q 154 336 138 269 l 249 731 l 456 731 l 363 339 q 351 276 356 308 q 350 217 346 244 q 372 173 354 190 q 426 156 389 156 q 485 167 458 156 q 543 208 513 179 q 552 281 546 243 q 565 351 558 319 l 656 731 l 863 731 m 481 1110 l 668 881 l 579 800 l 353 1000 l 481 1110 z "},"ú":{"ha":807,"x_min":138,"x_max":863,"o":"m 863 731 l 764 315 q 753 156 744 236 q 785 14 761 76 l 600 -12 q 571 56 585 18 q 483 4 532 25 q 375 -17 435 -17 q 242 13 293 -17 q 167 92 192 43 q 140 206 142 142 q 154 336 138 269 l 249 731 l 456 731 l 363 339 q 351 276 356 308 q 350 217 346 244 q 372 173 354 190 q 426 156 389 156 q 485 167 458 156 q 543 208 513 179 q 552 281 546 243 q 565 351 558 319 l 656 731 l 863 731 m 788 989 l 542 800 l 458 886 l 681 1110 l 788 989 z "},"û":{"ha":807,"x_min":138,"x_max":863,"o":"m 863 731 l 764 315 q 753 156 744 236 q 785 14 761 76 l 600 -12 q 571 56 585 18 q 483 4 532 25 q 375 -17 435 -17 q 242 13 293 -17 q 167 92 192 43 q 140 206 142 142 q 154 336 138 269 l 249 731 l 456 731 l 363 339 q 351 276 356 308 q 350 217 346 244 q 372 173 354 190 q 426 156 389 156 q 485 167 458 156 q 543 208 513 179 q 552 281 546 243 q 565 351 558 319 l 656 731 l 863 731 m 808 874 l 725 800 l 610 908 l 453 803 l 389 888 l 638 1089 l 808 874 z "},"ü":{"ha":807,"x_min":138,"x_max":863,"o":"m 863 731 l 764 315 q 753 156 744 236 q 785 14 761 76 l 600 -12 q 571 56 585 18 q 483 4 532 25 q 375 -17 435 -17 q 242 13 293 -17 q 167 92 192 43 q 140 206 142 142 q 154 336 138 269 l 249 731 l 456 731 l 363 339 q 351 276 356 308 q 350 217 346 244 q 372 173 354 190 q 426 156 389 156 q 485 167 458 156 q 543 208 513 179 q 552 281 546 243 q 565 351 558 319 l 656 731 l 863 731 m 432 836 q 365 861 392 836 q 339 928 339 886 q 349 976 339 954 q 374 1014 358 999 q 410 1038 390 1029 q 451 1047 431 1047 q 518 1022 490 1047 q 546 953 546 996 q 535 906 546 928 q 508 869 525 885 q 472 844 492 853 q 432 836 451 836 m 740 836 q 674 861 700 836 q 647 928 647 886 q 657 976 647 954 q 683 1014 667 999 q 719 1038 699 1029 q 760 1047 739 1047 q 826 1022 799 1047 q 854 953 854 996 q 844 906 854 928 q 817 869 833 885 q 780 844 800 853 q 740 836 760 836 z "},"ý":{"ha":739,"x_min":-35,"x_max":878,"o":"m 878 731 q 799 533 839 625 q 717 359 760 442 q 628 201 674 276 q 531 53 582 126 q 453 -57 493 -1 q 363 -157 413 -112 q 253 -229 314 -201 q 114 -257 193 -257 q 31 -248 65 -257 q -35 -224 -4 -239 l 28 -61 q 78 -78 56 -72 q 132 -85 100 -85 q 224 -53 181 -85 q 297 31 268 -22 q 231 342 261 169 q 190 731 201 514 l 403 731 q 408 611 404 676 q 418 480 413 546 q 431 351 424 414 q 446 239 438 289 q 563 461 513 339 q 658 731 614 583 l 878 731 m 751 989 l 506 800 l 422 886 l 644 1110 l 751 989 z "},"þ":{"ha":803,"x_min":36,"x_max":844,"o":"m 482 744 q 514 747 497 746 q 547 747 531 747 q 681 724 625 747 q 774 659 738 700 q 827 563 810 618 q 844 446 844 508 q 812 260 844 344 q 719 115 779 175 q 578 20 660 54 q 397 -14 496 -14 q 301 -6 351 -14 l 242 -257 l 36 -257 l 347 1044 l 563 1078 l 482 744 m 521 574 q 439 565 478 574 l 342 160 q 371 156 357 157 q 399 156 385 156 q 500 176 456 156 q 576 232 544 196 q 623 319 607 268 q 639 431 639 369 q 613 532 639 490 q 521 574 586 574 z "},"ÿ":{"ha":739,"x_min":-35,"x_max":878,"o":"m 878 731 q 799 533 839 625 q 717 359 760 442 q 628 201 674 276 q 531 53 582 126 q 453 -57 493 -1 q 363 -157 413 -112 q 253 -229 314 -201 q 114 -257 193 -257 q 31 -248 65 -257 q -35 -224 -4 -239 l 28 -61 q 78 -78 56 -72 q 132 -85 100 -85 q 224 -53 181 -85 q 297 31 268 -22 q 231 342 261 169 q 190 731 201 514 l 403 731 q 408 611 404 676 q 418 480 413 546 q 431 351 424 414 q 446 239 438 289 q 563 461 513 339 q 658 731 614 583 l 878 731 m 414 836 q 347 861 374 836 q 321 928 321 886 q 331 976 321 954 q 356 1014 340 999 q 392 1038 372 1029 q 433 1047 413 1047 q 500 1022 472 1047 q 528 953 528 996 q 517 906 528 928 q 490 869 507 885 q 453 844 474 853 q 414 836 433 836 m 722 836 q 656 861 682 836 q 629 928 629 886 q 639 976 629 954 q 665 1014 649 999 q 701 1038 681 1029 q 742 1047 721 1047 q 808 1022 781 1047 q 836 953 836 996 q 826 906 836 928 q 799 869 815 885 q 762 844 782 853 q 722 836 742 836 z "},"Ā":{"ha":992,"x_min":21,"x_max":1008,"o":"m 739 0 q 733 106 736 54 q 725 210 729 158 l 364 210 q 306 106 336 158 q 247 0 275 54 l 21 0 q 190 288 111 156 q 341 536 268 419 q 483 758 414 653 q 625 963 553 863 l 818 963 q 860 741 840 863 q 898 492 881 619 q 930 238 915 365 q 957 0 944 111 l 739 0 m 675 751 q 560 567 617 658 q 451 379 504 475 l 711 379 q 697 560 704 464 q 675 751 689 656 m 561 1219 l 1008 1219 l 974 1078 l 526 1078 l 561 1219 z "},"ā":{"ha":817,"x_min":139,"x_max":896,"o":"m 782 315 q 771 156 763 236 q 803 14 779 76 l 618 -12 q 603 19 610 4 q 589 54 596 35 q 503 1 550 22 q 397 -19 456 -19 q 278 5 328 -19 q 198 70 229 29 q 153 166 167 111 q 139 283 139 221 q 173 464 139 379 q 267 612 207 549 q 410 711 328 675 q 588 747 492 747 q 631 746 600 747 q 703 740 663 744 q 788 724 743 735 q 872 693 832 713 l 782 315 m 638 571 q 605 575 619 574 q 569 576 590 576 q 481 553 522 576 q 410 491 440 529 q 362 403 379 453 q 344 299 344 353 q 367 193 344 232 q 449 154 389 154 q 506 167 481 154 q 561 208 532 179 q 570 281 564 243 q 583 351 576 319 l 638 571 m 449 1007 l 896 1007 l 861 865 l 414 865 l 449 1007 z "},"Ă":{"ha":992,"x_min":21,"x_max":986,"o":"m 739 0 q 733 106 736 54 q 725 210 729 158 l 364 210 q 306 106 336 158 q 247 0 275 54 l 21 0 q 190 288 111 156 q 341 536 268 419 q 483 758 414 653 q 625 963 553 863 l 818 963 q 860 741 840 863 q 898 492 881 619 q 930 238 915 365 q 957 0 944 111 l 739 0 m 675 751 q 560 567 617 658 q 451 379 504 475 l 711 379 q 697 560 704 464 q 675 751 689 656 m 690 1274 q 688 1260 689 1267 q 688 1246 688 1253 q 702 1194 688 1213 q 751 1175 717 1175 q 810 1200 785 1175 q 844 1274 836 1225 l 986 1274 q 958 1172 982 1215 q 900 1101 935 1129 q 823 1058 865 1072 q 738 1043 781 1043 q 665 1054 700 1043 q 603 1088 631 1065 q 560 1146 576 1111 q 544 1226 544 1181 q 550 1274 544 1253 l 690 1274 z "},"ă":{"ha":817,"x_min":139,"x_max":904,"o":"m 782 315 q 771 156 763 236 q 803 14 779 76 l 618 -12 q 603 19 610 4 q 589 54 596 35 q 503 1 550 22 q 397 -19 456 -19 q 278 5 328 -19 q 198 70 229 29 q 153 166 167 111 q 139 283 139 221 q 173 464 139 379 q 267 612 207 549 q 410 711 328 675 q 588 747 492 747 q 631 746 600 747 q 703 740 663 744 q 788 724 743 735 q 872 693 832 713 l 782 315 m 638 571 q 605 575 619 574 q 569 576 590 576 q 481 553 522 576 q 410 491 440 529 q 362 403 379 453 q 344 299 344 353 q 367 193 344 232 q 449 154 389 154 q 506 167 481 154 q 561 208 532 179 q 570 281 564 243 q 583 351 576 319 l 638 571 m 608 1061 q 606 1047 607 1054 q 606 1033 606 1040 q 620 981 606 1000 q 669 963 635 963 q 728 988 703 963 q 763 1061 754 1013 l 904 1061 q 876 960 900 1003 q 818 888 853 917 q 741 845 783 860 q 656 831 699 831 q 583 842 618 831 q 522 876 549 853 q 478 933 494 899 q 463 1014 463 968 q 468 1061 463 1040 l 608 1061 z "},"Ą":{"ha":992,"x_min":21,"x_max":957,"o":"m 739 0 q 733 106 736 54 q 725 210 729 158 l 364 210 q 306 106 336 158 q 247 0 275 54 l 21 0 q 190 288 111 156 q 341 536 268 419 q 483 758 414 653 q 625 963 553 863 l 818 963 q 860 741 840 863 q 898 492 881 619 q 930 238 915 365 q 957 0 944 111 l 951 -4 q 853 -85 881 -53 q 825 -135 825 -117 q 860 -157 825 -157 q 901 -151 879 -157 q 933 -142 924 -144 l 919 -279 q 858 -299 892 -292 q 788 -307 824 -307 q 731 -301 758 -307 q 681 -281 703 -294 q 647 -244 660 -267 q 635 -189 635 -222 q 664 -103 635 -147 q 760 -18 693 -58 l 790 0 l 739 0 m 675 751 q 560 567 617 658 q 451 379 504 475 l 711 379 q 697 560 704 464 q 675 751 689 656 z "},"ą":{"ha":817,"x_min":139,"x_max":872,"o":"m 782 315 q 771 156 763 236 q 803 14 779 76 l 776 -4 q 678 -85 706 -53 q 650 -135 650 -117 q 685 -157 650 -157 q 726 -151 704 -157 q 758 -142 749 -144 l 744 -279 q 683 -299 717 -292 q 613 -307 649 -307 q 556 -301 583 -307 q 506 -281 528 -294 q 472 -244 485 -267 q 460 -189 460 -222 q 489 -103 460 -147 q 585 -18 518 -58 l 613 -1 q 600 25 606 11 q 589 54 594 39 q 503 1 550 22 q 397 -19 456 -19 q 278 5 328 -19 q 198 70 229 29 q 153 166 167 111 q 139 283 139 221 q 173 464 139 379 q 267 612 207 549 q 410 711 328 675 q 588 747 492 747 q 631 746 600 747 q 703 740 663 744 q 788 724 743 735 q 872 693 832 713 l 782 315 m 638 571 q 605 575 619 574 q 569 576 590 576 q 481 553 522 576 q 410 491 440 529 q 362 403 379 453 q 344 299 344 353 q 367 193 344 232 q 449 154 389 154 q 506 167 481 154 q 561 208 532 179 q 570 281 564 243 q 583 351 576 319 l 638 571 z "},"Ć":{"ha":886,"x_min":171,"x_max":1018,"o":"m 853 42 q 726 -3 796 14 q 557 -19 657 -19 q 399 9 471 -19 q 277 90 328 38 q 199 219 226 143 q 171 389 171 294 q 209 604 171 497 q 322 795 247 711 q 503 932 396 879 q 751 985 611 985 q 883 969 818 985 q 1018 915 947 954 l 940 747 q 836 789 882 778 q 738 800 790 800 q 595 768 658 800 q 487 681 532 736 q 418 554 442 626 q 394 401 394 482 q 448 224 394 279 q 601 168 501 168 q 724 182 668 168 q 829 218 781 196 l 853 42 m 892 1211 l 646 1022 l 563 1108 l 785 1332 l 892 1211 z "},"ć":{"ha":667,"x_min":139,"x_max":778,"o":"m 139 292 q 169 469 139 386 q 257 615 200 553 q 395 714 314 678 q 576 750 476 750 q 688 738 639 750 q 778 707 738 726 l 707 546 q 649 566 679 557 q 576 575 619 575 q 413 505 472 575 q 353 314 353 435 q 383 199 353 243 q 496 156 414 156 q 574 164 536 156 q 640 185 611 172 l 656 19 q 570 -8 617 4 q 457 -19 524 -19 q 311 6 371 -19 q 213 73 251 31 q 156 172 174 115 q 139 292 139 229 m 738 989 l 492 800 l 408 886 l 631 1110 l 738 989 z "},"Ĉ":{"ha":886,"x_min":171,"x_max":1018,"o":"m 853 42 q 726 -3 796 14 q 557 -19 657 -19 q 399 9 471 -19 q 277 90 328 38 q 199 219 226 143 q 171 389 171 294 q 209 604 171 497 q 322 795 247 711 q 503 932 396 879 q 751 985 611 985 q 883 969 818 985 q 1018 915 947 954 l 940 747 q 836 789 882 778 q 738 800 790 800 q 595 768 658 800 q 487 681 532 736 q 418 554 442 626 q 394 401 394 482 q 448 224 394 279 q 601 168 501 168 q 724 182 668 168 q 829 218 781 196 l 853 42 m 988 1104 l 904 1031 l 789 1139 l 632 1033 l 568 1118 l 817 1319 l 988 1104 z "},"ĉ":{"ha":667,"x_min":139,"x_max":797,"o":"m 139 292 q 169 469 139 386 q 257 615 200 553 q 395 714 314 678 q 576 750 476 750 q 688 738 639 750 q 778 707 738 726 l 707 546 q 649 566 679 557 q 576 575 619 575 q 413 505 472 575 q 353 314 353 435 q 383 199 353 243 q 496 156 414 156 q 574 164 536 156 q 640 185 611 172 l 656 19 q 570 -8 617 4 q 457 -19 524 -19 q 311 6 371 -19 q 213 73 251 31 q 156 172 174 115 q 139 292 139 229 m 797 874 l 714 800 l 599 908 l 442 803 l 378 888 l 626 1089 l 797 874 z "},"Ċ":{"ha":886,"x_min":171,"x_max":1018,"o":"m 853 42 q 726 -3 796 14 q 557 -19 657 -19 q 399 9 471 -19 q 277 90 328 38 q 199 219 226 143 q 171 389 171 294 q 209 604 171 497 q 322 795 247 711 q 503 932 396 879 q 751 985 611 985 q 883 969 818 985 q 1018 915 947 954 l 940 747 q 836 789 882 778 q 738 800 790 800 q 595 768 658 800 q 487 681 532 736 q 418 554 442 626 q 394 401 394 482 q 448 224 394 279 q 601 168 501 168 q 724 182 668 168 q 829 218 781 196 l 853 42 m 785 1056 q 714 1081 742 1056 q 686 1150 686 1106 q 723 1240 686 1208 q 806 1272 760 1272 q 876 1247 847 1272 q 906 1176 906 1222 q 895 1126 906 1149 q 867 1088 885 1104 q 828 1064 850 1072 q 785 1056 807 1056 z "},"ċ":{"ha":667,"x_min":139,"x_max":778,"o":"m 139 292 q 169 469 139 386 q 257 615 200 553 q 395 714 314 678 q 576 750 476 750 q 688 738 639 750 q 778 707 738 726 l 707 546 q 649 566 679 557 q 576 575 619 575 q 413 505 472 575 q 353 314 353 435 q 383 199 353 243 q 496 156 414 156 q 574 164 536 156 q 640 185 611 172 l 656 19 q 570 -8 617 4 q 457 -19 524 -19 q 311 6 371 -19 q 213 73 251 31 q 156 172 174 115 q 139 292 139 229 m 597 833 q 526 858 554 833 q 499 928 499 883 q 535 1018 499 986 q 618 1050 572 1050 q 689 1025 660 1050 q 718 954 718 1000 q 708 904 718 926 q 680 866 697 882 q 641 842 663 850 q 597 833 619 833 z "},"Č":{"ha":886,"x_min":171,"x_max":1018,"o":"m 853 42 q 726 -3 796 14 q 557 -19 657 -19 q 399 9 471 -19 q 277 90 328 38 q 199 219 226 143 q 171 389 171 294 q 209 604 171 497 q 322 795 247 711 q 503 932 396 879 q 751 985 611 985 q 883 969 818 985 q 1018 915 947 954 l 940 747 q 836 789 882 778 q 738 800 790 800 q 595 768 658 800 q 487 681 532 736 q 418 554 442 626 q 394 401 394 482 q 448 224 394 279 q 601 168 501 168 q 724 182 668 168 q 829 218 781 196 l 853 42 m 581 1251 l 664 1325 l 779 1217 l 936 1322 l 1000 1238 l 751 1036 l 581 1251 z "},"č":{"ha":667,"x_min":139,"x_max":829,"o":"m 139 292 q 169 469 139 386 q 257 615 200 553 q 395 714 314 678 q 576 750 476 750 q 688 738 639 750 q 778 707 738 726 l 707 546 q 649 566 679 557 q 576 575 619 575 q 413 505 472 575 q 353 314 353 435 q 383 199 353 243 q 496 156 414 156 q 574 164 536 156 q 640 185 611 172 l 656 19 q 570 -8 617 4 q 457 -19 524 -19 q 311 6 371 -19 q 213 73 251 31 q 156 172 174 115 q 139 292 139 229 m 410 1028 l 493 1101 l 608 993 l 765 1099 l 829 1014 l 581 813 l 410 1028 z "},"Ď":{"ha":997,"x_min":104,"x_max":1047,"o":"m 357 174 q 388 172 372 172 q 432 171 404 171 q 595 199 522 171 q 719 278 668 226 q 797 406 769 331 q 825 576 825 482 q 813 665 825 625 q 772 733 800 704 q 698 776 743 761 q 589 792 653 792 q 504 788 547 792 l 357 174 m 1047 588 q 1001 336 1047 447 q 870 148 956 225 q 663 29 785 71 q 386 -12 540 -12 q 251 -6 328 -12 q 104 17 175 1 l 328 946 q 480 967 407 961 q 611 974 553 974 q 795 946 714 974 q 933 867 876 918 q 1018 744 989 815 q 1047 588 1047 674 m 503 1251 l 586 1325 l 701 1217 l 858 1322 l 922 1238 l 674 1036 l 503 1251 z "},"ď":{"ha":906,"x_min":139,"x_max":1239,"o":"m 399 -19 q 280 4 329 -19 q 199 69 231 28 q 153 165 168 110 q 139 282 139 219 q 173 460 139 376 q 267 607 207 544 q 408 706 326 669 q 588 742 490 742 q 634 739 613 742 q 678 731 656 736 l 753 1044 l 968 1078 l 785 315 q 774 156 765 236 q 806 14 782 76 l 621 -12 q 606 19 613 4 q 592 54 599 35 q 505 1 553 22 q 399 -19 457 -19 m 638 565 q 623 568 629 567 q 610 570 617 569 q 594 571 604 571 q 569 571 585 571 q 479 548 521 571 q 408 486 438 525 q 361 398 378 447 q 344 297 344 349 q 367 192 344 231 q 450 154 390 154 q 508 167 482 154 q 564 208 535 179 q 573 281 567 243 q 586 351 579 319 l 638 565 m 1239 1078 l 1110 739 l 988 739 l 1064 1078 l 1239 1078 z "},"Đ":{"ha":997,"x_min":90,"x_max":1047,"o":"m 357 174 q 388 172 372 172 q 432 171 404 171 q 595 199 522 171 q 719 278 668 226 q 797 406 769 331 q 825 576 825 482 q 813 665 825 625 q 772 733 800 704 q 698 776 743 761 q 589 792 653 792 q 504 788 547 792 l 454 579 l 631 579 l 593 419 l 415 419 l 357 174 m 1047 588 q 1001 336 1047 447 q 870 148 956 225 q 663 29 785 71 q 386 -12 540 -12 q 251 -6 328 -12 q 104 17 175 1 l 201 419 l 90 419 l 126 579 l 239 579 l 328 946 q 480 967 407 961 q 611 974 553 974 q 795 946 714 974 q 933 867 876 918 q 1018 744 989 815 q 1047 588 1047 674 z "},"đ":{"ha":819,"x_min":139,"x_max":1040,"o":"m 399 -19 q 280 4 329 -19 q 199 69 231 28 q 153 165 168 110 q 139 282 139 219 q 173 460 139 376 q 267 607 207 544 q 408 706 326 669 q 588 742 490 742 q 634 739 613 742 q 678 731 656 736 l 700 828 l 518 828 l 549 957 l 732 957 l 753 1044 l 968 1078 l 939 957 l 1040 957 l 1010 828 l 907 828 l 785 315 q 774 156 765 236 q 806 14 782 76 l 621 -12 q 606 19 613 4 q 592 54 599 35 q 505 1 553 22 q 399 -19 457 -19 m 638 565 q 623 568 629 567 q 610 570 617 569 q 594 571 604 571 q 569 571 585 571 q 479 548 521 571 q 408 486 438 525 q 361 398 378 447 q 344 297 344 349 q 367 192 344 231 q 450 154 390 154 q 508 167 482 154 q 564 208 535 179 q 573 281 567 243 q 586 351 579 319 l 638 565 z "},"Ē":{"ha":825,"x_min":104,"x_max":964,"o":"m 104 0 l 335 963 l 964 963 l 919 785 l 507 785 l 463 590 l 826 590 l 783 415 l 419 415 l 364 179 l 808 179 l 764 0 l 104 0 m 490 1219 l 938 1219 l 903 1078 l 456 1078 l 490 1219 z "},"ē":{"ha":736,"x_min":139,"x_max":850,"o":"m 139 286 q 170 458 139 375 q 258 606 201 542 q 397 710 315 671 q 576 750 478 750 q 667 736 625 750 q 740 696 708 722 q 788 631 771 669 q 806 544 806 593 q 771 413 806 467 q 674 324 736 358 q 528 275 613 290 q 343 260 443 260 q 385 177 353 201 q 489 153 418 153 q 579 160 533 153 q 665 183 625 168 l 681 21 q 581 -7 642 6 q 450 -19 521 -19 q 305 5 364 -19 q 209 71 246 29 q 156 168 172 113 q 139 286 139 224 m 543 586 q 419 535 472 586 q 349 401 365 485 q 488 416 435 404 q 569 444 540 428 q 608 481 599 461 q 618 519 618 500 q 543 586 618 586 m 403 1007 l 850 1007 l 815 865 l 368 865 l 403 1007 z "},"Ĕ":{"ha":825,"x_min":104,"x_max":964,"o":"m 104 0 l 335 963 l 964 963 l 919 785 l 507 785 l 463 590 l 826 590 l 783 415 l 419 415 l 364 179 l 808 179 l 764 0 l 104 0 m 631 1274 q 628 1260 629 1267 q 628 1246 628 1253 q 642 1194 628 1213 q 692 1175 657 1175 q 751 1200 725 1175 q 785 1274 776 1225 l 926 1274 q 899 1172 922 1215 q 840 1101 875 1129 q 763 1058 806 1072 q 678 1043 721 1043 q 606 1054 640 1043 q 544 1088 571 1065 q 501 1146 517 1111 q 485 1226 485 1181 q 490 1274 485 1253 l 631 1274 z "},"ĕ":{"ha":736,"x_min":139,"x_max":854,"o":"m 139 286 q 170 458 139 375 q 258 606 201 542 q 397 710 315 671 q 576 750 478 750 q 667 736 625 750 q 740 696 708 722 q 788 631 771 669 q 806 544 806 593 q 771 413 806 467 q 674 324 736 358 q 528 275 613 290 q 343 260 443 260 q 385 177 353 201 q 489 153 418 153 q 579 160 533 153 q 665 183 625 168 l 681 21 q 581 -7 642 6 q 450 -19 521 -19 q 305 5 364 -19 q 209 71 246 29 q 156 168 172 113 q 139 286 139 224 m 543 586 q 419 535 472 586 q 349 401 365 485 q 488 416 435 404 q 569 444 540 428 q 608 481 599 461 q 618 519 618 500 q 543 586 618 586 m 558 1061 q 556 1047 557 1054 q 556 1033 556 1040 q 570 981 556 1000 q 619 963 585 963 q 678 988 653 963 q 713 1061 704 1013 l 854 1061 q 826 960 850 1003 q 768 888 803 917 q 691 845 733 860 q 606 831 649 831 q 533 842 568 831 q 472 876 499 853 q 428 933 444 899 q 413 1014 413 968 q 418 1061 413 1040 l 558 1061 z "},"Ė":{"ha":825,"x_min":104,"x_max":964,"o":"m 104 0 l 335 963 l 964 963 l 919 785 l 507 785 l 463 590 l 826 590 l 783 415 l 419 415 l 364 179 l 808 179 l 764 0 l 104 0 m 678 1056 q 607 1081 635 1056 q 579 1150 579 1106 q 616 1240 579 1208 q 699 1272 653 1272 q 769 1247 740 1272 q 799 1176 799 1222 q 788 1126 799 1149 q 760 1088 778 1104 q 722 1064 743 1072 q 678 1056 700 1056 z "},"ė":{"ha":736,"x_min":139,"x_max":806,"o":"m 139 286 q 170 458 139 375 q 258 606 201 542 q 397 710 315 671 q 576 750 478 750 q 667 736 625 750 q 740 696 708 722 q 788 631 771 669 q 806 544 806 593 q 771 413 806 467 q 674 324 736 358 q 528 275 613 290 q 343 260 443 260 q 385 177 353 201 q 489 153 418 153 q 579 160 533 153 q 665 183 625 168 l 681 21 q 581 -7 642 6 q 450 -19 521 -19 q 305 5 364 -19 q 209 71 246 29 q 156 168 172 113 q 139 286 139 224 m 543 586 q 419 535 472 586 q 349 401 365 485 q 488 416 435 404 q 569 444 540 428 q 608 481 599 461 q 618 519 618 500 q 543 586 618 586 m 594 833 q 524 858 551 833 q 496 928 496 883 q 533 1018 496 986 q 615 1050 569 1050 q 686 1025 657 1050 q 715 954 715 1000 q 705 904 715 926 q 677 866 694 882 q 638 842 660 850 q 594 833 617 833 z "},"Ę":{"ha":825,"x_min":104,"x_max":964,"o":"m 104 0 l 335 963 l 964 963 l 919 785 l 507 785 l 463 590 l 826 590 l 783 415 l 419 415 l 364 179 l 808 179 l 764 0 l 758 -4 q 660 -85 688 -53 q 632 -135 632 -117 q 667 -157 632 -157 q 708 -151 686 -157 q 740 -142 731 -144 l 726 -279 q 665 -299 699 -292 q 594 -307 631 -307 q 538 -301 565 -307 q 488 -281 510 -294 q 454 -244 467 -267 q 442 -189 442 -222 q 471 -103 442 -147 q 567 -18 500 -58 l 597 0 l 104 0 z "},"ę":{"ha":736,"x_min":139,"x_max":806,"o":"m 139 286 q 170 458 139 375 q 258 606 201 542 q 397 710 315 671 q 576 750 478 750 q 667 736 625 750 q 740 696 708 722 q 788 631 771 669 q 806 544 806 593 q 771 413 806 467 q 674 324 736 358 q 528 275 613 290 q 343 260 443 260 q 385 177 353 201 q 489 153 418 153 q 579 160 533 153 q 665 183 625 168 l 681 21 l 644 -4 q 546 -85 574 -53 q 518 -135 518 -117 q 553 -157 518 -157 q 594 -151 572 -157 q 626 -142 617 -144 l 613 -279 q 551 -299 585 -292 q 481 -307 517 -307 q 424 -301 451 -307 q 374 -281 396 -294 q 340 -244 353 -267 q 328 -189 328 -222 q 356 -103 328 -147 q 450 -19 383 -60 q 305 5 364 -19 q 209 71 246 29 q 156 168 172 113 q 139 286 139 224 m 543 586 q 419 535 472 586 q 349 401 365 485 q 488 416 435 404 q 569 444 540 428 q 608 481 599 461 q 618 519 618 500 q 543 586 618 586 z "},"Ě":{"ha":825,"x_min":104,"x_max":964,"o":"m 104 0 l 335 963 l 964 963 l 919 785 l 507 785 l 463 590 l 826 590 l 783 415 l 419 415 l 364 179 l 808 179 l 764 0 l 104 0 m 488 1251 l 571 1325 l 686 1217 l 843 1322 l 907 1238 l 658 1036 l 488 1251 z "},"ě":{"ha":736,"x_min":139,"x_max":844,"o":"m 139 286 q 170 458 139 375 q 258 606 201 542 q 397 710 315 671 q 576 750 478 750 q 667 736 625 750 q 740 696 708 722 q 788 631 771 669 q 806 544 806 593 q 771 413 806 467 q 674 324 736 358 q 528 275 613 290 q 343 260 443 260 q 385 177 353 201 q 489 153 418 153 q 579 160 533 153 q 665 183 625 168 l 681 21 q 581 -7 642 6 q 450 -19 521 -19 q 305 5 364 -19 q 209 71 246 29 q 156 168 172 113 q 139 286 139 224 m 543 586 q 419 535 472 586 q 349 401 365 485 q 488 416 435 404 q 569 444 540 428 q 608 481 599 461 q 618 519 618 500 q 543 586 618 586 m 425 1028 l 508 1101 l 624 993 l 781 1099 l 844 1014 l 596 813 l 425 1028 z "},"Ĝ":{"ha":956,"x_min":171,"x_max":1039,"o":"m 596 167 q 646 169 624 167 q 686 174 668 171 l 767 508 l 983 508 l 867 26 q 754 -3 828 11 q 567 -18 681 -18 q 395 10 469 -18 q 271 92 321 39 q 196 219 221 144 q 171 389 171 294 q 209 604 171 497 q 322 795 247 711 q 508 932 397 879 q 764 985 619 985 q 905 965 831 985 q 1039 907 979 946 l 961 739 q 858 785 913 769 q 750 800 803 800 q 599 768 665 800 q 488 681 533 736 q 418 554 442 626 q 394 401 394 482 q 445 223 394 279 q 596 167 496 167 m 965 1104 l 882 1031 l 767 1139 l 610 1033 l 546 1118 l 794 1319 l 965 1104 z "},"ĝ":{"ha":788,"x_min":46,"x_max":871,"o":"m 728 92 q 673 -65 707 1 q 588 -174 639 -131 q 467 -240 538 -218 q 301 -261 396 -261 q 154 -245 214 -261 q 46 -206 94 -229 l 115 -42 q 205 -75 158 -61 q 319 -89 251 -89 q 453 -49 408 -89 q 513 53 499 -10 l 518 79 q 459 57 490 65 q 393 49 428 49 q 281 69 328 49 q 203 125 233 89 q 159 210 174 161 q 144 318 144 260 q 183 505 144 424 q 287 640 222 586 q 435 722 351 694 q 611 750 519 750 q 743 736 678 750 q 871 693 808 722 l 728 92 m 636 571 q 578 576 613 576 q 483 558 525 576 q 412 507 442 539 q 366 430 382 475 q 350 333 350 385 q 354 287 350 308 q 369 249 358 265 q 400 224 381 233 q 449 214 419 214 q 501 221 468 214 q 560 253 533 228 l 636 571 m 857 874 l 774 800 l 658 908 l 501 803 l 438 888 l 686 1089 l 857 874 z "},"Ğ":{"ha":956,"x_min":171,"x_max":1039,"o":"m 596 167 q 646 169 624 167 q 686 174 668 171 l 767 508 l 983 508 l 867 26 q 754 -3 828 11 q 567 -18 681 -18 q 395 10 469 -18 q 271 92 321 39 q 196 219 221 144 q 171 389 171 294 q 209 604 171 497 q 322 795 247 711 q 508 932 397 879 q 764 985 619 985 q 905 965 831 985 q 1039 907 979 946 l 961 739 q 858 785 913 769 q 750 800 803 800 q 599 768 665 800 q 488 681 533 736 q 418 554 442 626 q 394 401 394 482 q 445 223 394 279 q 596 167 496 167 m 696 1274 q 694 1260 694 1267 q 693 1246 693 1253 q 708 1194 693 1213 q 757 1175 722 1175 q 816 1200 790 1175 q 850 1274 842 1225 l 992 1274 q 964 1172 988 1215 q 906 1101 940 1129 q 828 1058 871 1072 q 743 1043 786 1043 q 671 1054 706 1043 q 609 1088 636 1065 q 566 1146 582 1111 q 550 1226 550 1181 q 556 1274 550 1253 l 696 1274 z "},"ğ":{"ha":788,"x_min":46,"x_max":904,"o":"m 728 92 q 673 -65 707 1 q 588 -174 639 -131 q 467 -240 538 -218 q 301 -261 396 -261 q 154 -245 214 -261 q 46 -206 94 -229 l 115 -42 q 205 -75 158 -61 q 319 -89 251 -89 q 453 -49 408 -89 q 513 53 499 -10 l 518 79 q 459 57 490 65 q 393 49 428 49 q 281 69 328 49 q 203 125 233 89 q 159 210 174 161 q 144 318 144 260 q 183 505 144 424 q 287 640 222 586 q 435 722 351 694 q 611 750 519 750 q 743 736 678 750 q 871 693 808 722 l 728 92 m 636 571 q 578 576 613 576 q 483 558 525 576 q 412 507 442 539 q 366 430 382 475 q 350 333 350 385 q 354 287 350 308 q 369 249 358 265 q 400 224 381 233 q 449 214 419 214 q 501 221 468 214 q 560 253 533 228 l 636 571 m 608 1061 q 606 1047 607 1054 q 606 1033 606 1040 q 620 981 606 1000 q 669 963 635 963 q 728 988 703 963 q 763 1061 754 1013 l 904 1061 q 876 960 900 1003 q 818 888 853 917 q 741 845 783 860 q 656 831 699 831 q 583 842 618 831 q 522 876 549 853 q 478 933 494 899 q 463 1014 463 968 q 468 1061 463 1040 l 608 1061 z "},"Ġ":{"ha":956,"x_min":171,"x_max":1039,"o":"m 596 167 q 646 169 624 167 q 686 174 668 171 l 767 508 l 983 508 l 867 26 q 754 -3 828 11 q 567 -18 681 -18 q 395 10 469 -18 q 271 92 321 39 q 196 219 221 144 q 171 389 171 294 q 209 604 171 497 q 322 795 247 711 q 508 932 397 879 q 764 985 619 985 q 905 965 831 985 q 1039 907 979 946 l 961 739 q 858 785 913 769 q 750 800 803 800 q 599 768 665 800 q 488 681 533 736 q 418 554 442 626 q 394 401 394 482 q 445 223 394 279 q 596 167 496 167 m 760 1056 q 689 1081 717 1056 q 661 1150 661 1106 q 698 1240 661 1208 q 781 1272 735 1272 q 851 1247 822 1272 q 881 1176 881 1222 q 870 1126 881 1149 q 842 1088 860 1104 q 803 1064 825 1072 q 760 1056 782 1056 z "},"ġ":{"ha":788,"x_min":46,"x_max":871,"o":"m 728 92 q 673 -65 707 1 q 588 -174 639 -131 q 467 -240 538 -218 q 301 -261 396 -261 q 154 -245 214 -261 q 46 -206 94 -229 l 115 -42 q 205 -75 158 -61 q 319 -89 251 -89 q 453 -49 408 -89 q 513 53 499 -10 l 518 79 q 459 57 490 65 q 393 49 428 49 q 281 69 328 49 q 203 125 233 89 q 159 210 174 161 q 144 318 144 260 q 183 505 144 424 q 287 640 222 586 q 435 722 351 694 q 611 750 519 750 q 743 736 678 750 q 871 693 808 722 l 728 92 m 636 571 q 578 576 613 576 q 483 558 525 576 q 412 507 442 539 q 366 430 382 475 q 350 333 350 385 q 354 287 350 308 q 369 249 358 265 q 400 224 381 233 q 449 214 419 214 q 501 221 468 214 q 560 253 533 228 l 636 571 m 633 833 q 563 858 590 833 q 535 928 535 883 q 572 1018 535 986 q 654 1050 608 1050 q 725 1025 696 1050 q 754 954 754 1000 q 744 904 754 926 q 716 866 733 882 q 677 842 699 850 q 633 833 656 833 z "},"Ģ":{"ha":956,"x_min":171,"x_max":1039,"o":"m 646 -69 q 618 -179 639 -135 q 567 -250 597 -224 q 500 -287 538 -276 q 421 -299 463 -299 q 342 -287 383 -299 l 371 -178 q 381 -179 376 -179 q 390 -179 386 -179 q 433 -170 417 -179 q 459 -146 450 -161 q 473 -111 468 -131 q 482 -69 478 -92 l 646 -69 m 596 167 q 646 169 624 167 q 686 174 668 171 l 767 508 l 983 508 l 867 26 q 754 -3 828 11 q 567 -18 681 -18 q 395 10 469 -18 q 271 92 321 39 q 196 219 221 144 q 171 389 171 294 q 209 604 171 497 q 322 795 247 711 q 508 932 397 879 q 764 985 619 985 q 905 965 831 985 q 1039 907 979 946 l 961 739 q 858 785 913 769 q 750 800 803 800 q 599 768 665 800 q 488 681 533 736 q 418 554 442 626 q 394 401 394 482 q 445 223 394 279 q 596 167 496 167 z "},"ģ":{"ha":788,"x_min":46,"x_max":871,"o":"m 728 92 q 673 -65 707 1 q 588 -174 639 -131 q 467 -240 538 -218 q 301 -261 396 -261 q 154 -245 214 -261 q 46 -206 94 -229 l 115 -42 q 205 -75 158 -61 q 319 -89 251 -89 q 453 -49 408 -89 q 513 53 499 -10 l 518 79 q 459 57 490 65 q 393 49 428 49 q 281 69 328 49 q 203 125 233 89 q 159 210 174 161 q 144 318 144 260 q 183 505 144 424 q 287 640 222 586 q 435 722 351 694 q 611 750 519 750 q 743 736 678 750 q 871 693 808 722 l 728 92 m 636 571 q 578 576 613 576 q 483 558 525 576 q 412 507 442 539 q 366 430 382 475 q 350 333 350 385 q 354 287 350 308 q 369 249 358 265 q 400 224 381 233 q 449 214 419 214 q 501 221 468 214 q 560 253 533 228 l 636 571 m 540 832 q 543 851 542 842 q 547 869 544 860 q 627 1022 571 967 q 776 1101 683 1078 l 826 1011 q 747 952 775 992 q 710 832 719 913 l 540 832 z "},"Ĥ":{"ha":992,"x_min":104,"x_max":1110,"o":"m 893 963 l 1110 963 l 878 0 l 661 0 l 760 410 l 418 410 l 319 0 l 104 0 l 335 963 l 551 963 l 463 593 l 804 593 l 893 963 m 942 1104 l 858 1031 l 743 1139 l 586 1033 l 522 1118 l 771 1319 l 942 1104 z "},"ĥ":{"ha":785,"x_min":97,"x_max":819,"o":"m 590 743 q 693 726 650 743 q 764 677 736 708 q 806 603 792 646 q 819 510 819 560 q 806 394 819 451 l 711 0 l 504 0 l 596 386 q 606 436 601 410 q 611 486 611 463 q 592 548 611 522 q 521 574 574 574 q 478 571 499 574 q 439 564 458 568 l 304 0 l 97 0 l 347 1044 l 563 1078 l 478 729 q 534 739 506 735 q 590 743 563 743 m 760 1165 l 690 1100 l 578 1188 l 431 1100 l 378 1175 l 593 1336 l 760 1165 z "},"Ħ":{"ha":992,"x_min":104,"x_max":1190,"o":"m 196 850 l 307 850 l 335 963 l 551 963 l 524 850 l 865 850 l 893 963 l 1110 963 l 1082 850 l 1190 850 l 1154 697 l 1046 697 l 878 0 l 661 0 l 760 410 l 418 410 l 319 0 l 104 0 l 271 697 l 160 697 l 196 850 m 829 697 l 488 697 l 463 593 l 804 593 l 829 697 z "},"ħ":{"ha":785,"x_min":97,"x_max":817,"o":"m 588 726 q 688 708 644 726 q 759 658 731 690 q 802 581 788 625 q 817 486 817 538 q 813 433 817 461 q 803 378 810 406 l 711 0 l 504 0 l 593 369 q 602 413 597 389 q 607 461 607 438 q 589 528 607 500 q 518 557 571 557 q 476 554 496 557 q 436 547 456 551 l 304 0 l 97 0 l 294 828 l 208 828 l 240 957 l 326 957 l 347 1044 l 563 1078 l 533 957 l 732 957 l 700 828 l 503 828 l 475 713 q 531 722 503 718 q 588 726 560 726 z "},"Ĩ":{"ha":433,"x_min":104,"x_max":744,"o":"m 335 963 l 551 963 l 319 0 l 104 0 l 335 963 m 560 1069 q 513 1077 533 1069 q 474 1094 492 1085 q 439 1110 456 1103 q 406 1118 422 1118 q 370 1107 386 1118 q 331 1061 354 1096 l 238 1118 q 314 1230 269 1193 q 422 1267 358 1267 q 469 1259 449 1267 q 508 1242 490 1251 q 543 1226 526 1233 q 576 1218 560 1218 q 612 1229 596 1218 q 651 1275 628 1240 l 744 1218 q 668 1106 713 1143 q 560 1069 624 1069 z "},"ĩ":{"ha":393,"x_min":97,"x_max":676,"o":"m 303 0 l 97 0 l 271 731 l 478 731 l 303 0 m 492 843 q 444 851 465 843 q 406 867 424 858 q 371 884 388 876 q 338 892 354 892 q 302 881 318 892 q 263 835 286 869 l 169 892 q 246 1003 201 967 q 354 1040 290 1040 q 401 1033 381 1040 q 440 1016 422 1025 q 475 999 458 1007 q 508 992 492 992 q 544 1003 528 992 q 583 1049 560 1014 l 676 992 q 600 880 644 917 q 492 843 556 843 z "},"Ī":{"ha":433,"x_min":104,"x_max":735,"o":"m 335 963 l 551 963 l 319 0 l 104 0 l 335 963 m 288 1219 l 735 1219 l 700 1078 l 253 1078 l 288 1219 z "},"ī":{"ha":393,"x_min":97,"x_max":667,"o":"m 303 0 l 97 0 l 271 731 l 478 731 l 303 0 m 219 1007 l 667 1007 l 632 865 l 185 865 l 219 1007 z "},"Ĭ":{"ha":433,"x_min":104,"x_max":726,"o":"m 335 963 l 551 963 l 319 0 l 104 0 l 335 963 m 431 1274 q 428 1260 429 1267 q 428 1246 428 1253 q 442 1194 428 1213 q 492 1175 457 1175 q 551 1200 525 1175 q 585 1274 576 1225 l 726 1274 q 699 1172 722 1215 q 640 1101 675 1129 q 563 1058 606 1072 q 478 1043 521 1043 q 406 1054 440 1043 q 344 1088 371 1065 q 301 1146 317 1111 q 285 1226 285 1181 q 290 1274 285 1253 l 431 1274 z "},"ĭ":{"ha":393,"x_min":97,"x_max":657,"o":"m 303 0 l 97 0 l 271 731 l 478 731 l 303 0 m 361 1061 q 359 1047 360 1054 q 358 1033 358 1040 q 373 981 358 1000 q 422 963 388 963 q 481 988 456 963 q 515 1061 507 1013 l 657 1061 q 629 960 653 1003 q 571 888 606 917 q 494 845 536 860 q 408 831 451 831 q 336 842 371 831 q 274 876 301 853 q 231 933 247 899 q 215 1014 215 968 q 221 1061 215 1040 l 361 1061 z "},"Į":{"ha":433,"x_min":-4,"x_max":551,"o":"m 335 963 l 551 963 l 319 0 l 318 0 q 275 -31 299 -14 q 232 -65 251 -47 q 199 -101 213 -83 q 186 -133 186 -118 q 194 -151 186 -144 q 221 -157 201 -157 q 251 -155 233 -157 q 294 -146 269 -153 l 278 -285 q 208 -301 249 -296 q 135 -307 167 -307 q 32 -277 68 -307 q -4 -200 -4 -247 q 10 -143 -4 -171 q 45 -90 24 -115 q 94 -42 67 -65 q 151 0 122 -19 l 104 0 l 335 963 z "},"į":{"ha":393,"x_min":-19,"x_max":546,"o":"m 303 0 q 260 -31 283 -14 q 217 -66 236 -49 q 184 -101 197 -83 q 171 -133 171 -118 q 178 -151 171 -144 q 206 -157 186 -157 q 236 -155 218 -157 q 279 -146 254 -153 l 263 -285 q 192 -301 233 -296 q 119 -307 151 -307 q 17 -277 53 -307 q -19 -200 -19 -247 q -6 -143 -19 -171 q 30 -90 8 -115 q 79 -42 51 -65 q 136 0 107 -19 l 97 0 l 271 731 l 478 731 l 303 0 m 403 819 q 325 845 360 819 q 290 924 290 871 q 302 978 290 953 q 333 1023 314 1004 q 378 1053 353 1042 q 433 1064 404 1064 q 511 1038 476 1064 q 546 960 546 1013 q 534 905 546 931 q 503 860 522 879 q 458 831 483 842 q 403 819 432 819 z "},"İ":{"ha":433,"x_min":104,"x_max":594,"o":"m 335 963 l 551 963 l 319 0 l 104 0 l 335 963 m 474 1056 q 403 1081 431 1056 q 375 1150 375 1106 q 412 1240 375 1208 q 494 1272 449 1272 q 565 1247 536 1272 q 594 1176 594 1222 q 584 1126 594 1149 q 556 1088 574 1104 q 517 1064 539 1072 q 474 1056 496 1056 z "},"ı":{"ha":393,"x_min":97,"x_max":478,"o":"m 303 0 l 97 0 l 271 731 l 478 731 l 303 0 z "},"Ĳ":{"ha":1168,"x_min":104,"x_max":1286,"o":"m 335 963 l 551 963 l 319 0 l 104 0 l 335 963 m 1125 292 q 1081 163 1108 221 q 1008 65 1053 106 q 899 2 964 24 q 740 -19 833 -19 q 598 3 665 -19 q 479 65 531 26 l 575 226 q 648 185 608 203 q 742 167 688 167 q 809 176 781 167 q 858 205 838 185 q 894 257 879 225 q 919 335 908 289 l 1069 963 l 1286 963 l 1125 292 z "},"ĳ":{"ha":817,"x_min":97,"x_max":975,"o":"m 303 0 l 97 0 l 271 731 l 478 731 l 303 0 m 403 819 q 325 845 360 819 q 290 924 290 871 q 302 978 290 953 q 333 1023 314 1004 q 378 1053 353 1042 q 433 1064 404 1064 q 511 1038 476 1064 q 546 960 546 1013 q 534 905 546 931 q 503 860 522 879 q 458 831 483 842 q 403 819 432 819 m 432 -257 q 355 -249 393 -257 q 286 -231 317 -242 l 339 -67 q 377 -78 358 -74 q 419 -82 396 -82 q 494 -53 468 -82 q 532 32 521 -24 l 700 731 l 907 731 l 738 26 q 633 -187 704 -118 q 432 -257 563 -257 m 832 819 q 754 845 789 819 q 719 924 719 871 q 731 978 719 953 q 763 1023 743 1004 q 808 1053 782 1042 q 863 1064 833 1064 q 940 1038 906 1064 q 975 960 975 1013 q 963 905 975 931 q 932 860 951 879 q 887 831 913 842 q 832 819 861 819 z "},"Ĵ":{"ha":717,"x_min":28,"x_max":960,"o":"m 674 292 q 629 163 657 221 q 557 65 601 106 q 447 2 513 24 q 289 -19 382 -19 q 147 3 214 -19 q 28 65 79 26 l 124 226 q 197 185 157 203 q 290 167 236 167 q 358 176 329 167 q 407 205 386 185 q 442 257 428 225 q 468 335 457 289 l 618 963 l 835 963 l 674 292 m 960 1104 l 876 1031 l 761 1139 l 604 1033 l 540 1118 l 789 1319 l 960 1104 z "},"ĵ":{"ha":403,"x_min":-125,"x_max":621,"o":"m 21 -257 q -56 -249 -18 -257 q -125 -231 -94 -242 l -72 -67 q -34 -78 -53 -74 q 8 -82 -15 -82 q 83 -53 57 -82 q 121 32 110 -24 l 289 731 l 496 731 l 326 26 q 222 -187 293 -118 q 21 -257 151 -257 m 621 874 l 538 800 l 422 908 l 265 803 l 201 888 l 450 1089 l 621 874 z "},"Ķ":{"ha":919,"x_min":104,"x_max":1107,"o":"m 568 -69 q 540 -179 561 -135 q 490 -250 519 -224 q 422 -287 460 -276 q 343 -299 385 -299 q 264 -287 306 -299 l 293 -178 q 303 -179 299 -179 q 313 -179 308 -179 q 356 -170 339 -179 q 381 -146 372 -161 q 395 -111 390 -131 q 404 -69 400 -92 l 568 -69 m 671 0 q 624 101 651 47 q 565 210 597 156 q 494 314 532 264 q 418 403 457 364 l 319 0 l 104 0 l 335 963 l 551 963 l 467 615 q 671 794 575 708 q 850 963 767 879 l 1107 963 q 856 728 981 844 q 594 503 732 613 q 763 283 682 407 q 907 0 843 160 l 671 0 z "},"ķ":{"ha":779,"x_min":97,"x_max":932,"o":"m 497 -69 q 469 -179 490 -135 q 419 -250 449 -224 q 351 -287 389 -276 q 272 -299 314 -299 q 193 -287 235 -299 l 222 -178 q 233 -179 228 -179 q 242 -179 238 -179 q 285 -170 268 -179 q 310 -146 301 -161 q 324 -111 319 -131 q 333 -69 329 -92 l 497 -69 m 415 467 q 572 603 499 533 q 699 731 646 672 l 932 731 q 770 562 854 644 q 578 386 686 479 q 637 303 607 350 q 694 204 667 256 q 744 100 721 153 q 782 0 767 47 l 551 0 q 520 79 539 36 q 478 165 501 122 q 431 247 456 207 q 381 319 406 288 l 303 0 l 97 0 l 347 1044 l 563 1078 l 415 467 z "},"ĸ":{"ha":797,"x_min":97,"x_max":943,"o":"m 415 467 q 492 536 453 500 q 567 607 531 572 q 635 674 603 642 q 693 731 668 706 l 943 731 q 779 561 865 644 q 578 386 693 478 q 637 303 607 350 q 694 204 667 256 q 744 100 721 153 q 782 0 767 47 l 551 0 q 520 79 539 36 q 478 165 501 122 q 431 247 456 207 q 381 319 406 288 l 303 0 l 97 0 l 272 731 l 479 731 l 415 467 z "},"Ĺ":{"ha":783,"x_min":104,"x_max":790,"o":"m 790 183 l 746 0 l 104 0 l 335 963 l 551 963 l 364 183 l 790 183 m 690 1211 l 444 1022 l 361 1108 l 583 1332 l 690 1211 z "},"ĺ":{"ha":438,"x_min":140,"x_max":679,"o":"m 400 -14 q 245 12 301 -14 q 165 82 189 38 q 141 184 140 126 q 157 307 142 242 l 333 1044 l 549 1078 l 356 278 q 349 232 350 253 q 357 195 349 211 q 385 169 365 179 q 442 157 406 160 l 400 -14 m 679 1193 l 363 1100 l 338 1190 l 640 1336 l 679 1193 z "},"Ļ":{"ha":783,"x_min":104,"x_max":790,"o":"m 546 -69 q 518 -179 539 -135 q 467 -250 497 -224 q 400 -287 438 -276 q 321 -299 363 -299 q 242 -287 283 -299 l 271 -178 q 281 -179 276 -179 q 290 -179 286 -179 q 333 -170 317 -179 q 359 -146 350 -161 q 373 -111 368 -131 q 382 -69 378 -92 l 546 -69 m 790 183 l 746 0 l 104 0 l 335 963 l 551 963 l 364 183 l 790 183 z "},"ļ":{"ha":438,"x_min":61,"x_max":549,"o":"m 365 -69 q 338 -179 358 -135 q 287 -250 317 -224 q 219 -287 257 -276 q 140 -299 182 -299 q 61 -287 103 -299 l 90 -178 q 101 -179 96 -179 q 110 -179 106 -179 q 153 -170 136 -179 q 178 -146 169 -161 q 192 -111 188 -131 q 201 -69 197 -92 l 365 -69 m 400 -14 q 245 12 301 -14 q 165 82 189 38 q 141 184 140 126 q 157 307 142 242 l 333 1044 l 549 1078 l 356 278 q 349 232 350 253 q 357 195 349 211 q 385 169 365 179 q 442 157 406 160 l 400 -14 z "},"Ľ":{"ha":783,"x_min":104,"x_max":840,"o":"m 790 183 l 746 0 l 104 0 l 335 963 l 551 963 l 364 183 l 790 183 m 840 965 l 711 626 l 589 626 l 665 965 l 840 965 z "},"ľ":{"ha":460,"x_min":115,"x_max":793,"o":"m 375 -14 q 220 12 276 -14 q 140 82 164 38 q 116 184 115 126 q 132 307 117 242 l 308 1044 l 524 1078 l 331 278 q 324 232 325 253 q 332 195 324 211 q 360 169 340 179 q 417 157 381 160 l 375 -14 m 793 1078 l 664 739 l 542 739 l 618 1078 l 793 1078 z "},"Ŀ":{"ha":783,"x_min":104,"x_max":867,"o":"m 790 183 l 746 0 l 104 0 l 335 963 l 551 963 l 364 183 l 790 183 m 753 688 q 834 660 801 688 q 867 575 867 633 q 855 517 867 543 q 824 472 843 490 q 779 442 804 453 q 728 432 754 432 q 647 459 679 432 q 614 544 614 486 q 626 603 614 576 q 657 648 638 629 q 701 677 676 667 q 753 688 726 688 z "},"ŀ":{"ha":696,"x_min":115,"x_max":793,"o":"m 375 -14 q 220 12 276 -14 q 140 82 164 38 q 116 184 115 126 q 132 307 117 242 l 308 1044 l 524 1078 l 331 278 q 324 232 325 253 q 332 195 324 211 q 360 169 340 179 q 417 157 381 160 l 375 -14 m 679 700 q 760 673 728 700 q 793 588 793 646 q 781 529 793 556 q 750 484 769 503 q 706 455 731 465 q 654 444 681 444 q 573 472 606 444 q 540 557 540 499 q 552 615 540 589 q 583 660 564 642 q 628 690 603 679 q 679 700 653 700 z "},"Ł":{"ha":783,"x_min":53,"x_max":790,"o":"m 790 183 l 746 0 l 104 0 l 189 356 l 86 310 l 53 450 l 231 531 l 335 963 l 551 963 l 474 639 l 657 722 l 692 582 l 432 465 l 364 183 l 790 183 z "},"ł":{"ha":438,"x_min":67,"x_max":604,"o":"m 372 -14 q 217 12 274 -14 q 137 82 161 38 q 113 184 113 126 q 129 307 114 242 l 163 447 l 97 418 l 67 546 l 200 606 l 306 1044 l 521 1078 l 432 708 l 574 772 l 604 644 l 393 550 l 328 278 q 322 232 322 253 q 329 195 321 211 q 358 169 338 179 q 414 157 378 160 l 372 -14 z "},"Ń":{"ha":1031,"x_min":104,"x_max":1149,"o":"m 754 0 q 624 328 696 164 q 469 638 553 492 l 317 0 l 104 0 l 335 963 l 500 963 q 569 848 532 914 q 644 706 606 782 q 722 547 683 629 q 796 383 761 464 l 933 963 l 1149 963 l 917 0 l 754 0 m 961 1211 l 715 1022 l 632 1108 l 854 1332 l 961 1211 z "},"ń":{"ha":788,"x_min":97,"x_max":846,"o":"m 265 697 q 317 713 289 704 q 381 730 346 722 q 460 742 417 738 q 560 747 504 747 q 785 653 724 747 q 806 394 846 558 l 711 0 l 504 0 l 596 386 q 609 456 604 422 q 608 516 614 490 q 583 558 603 542 q 521 574 563 574 q 439 565 481 574 l 304 0 l 97 0 l 265 697 m 804 989 l 558 800 l 475 886 l 697 1110 l 804 989 z "},"Ņ":{"ha":1031,"x_min":104,"x_max":1149,"o":"m 608 -69 q 581 -179 601 -135 q 530 -250 560 -224 q 463 -287 500 -276 q 383 -299 425 -299 q 304 -287 346 -299 l 333 -178 q 344 -179 339 -179 q 353 -179 349 -179 q 396 -170 379 -179 q 422 -146 413 -161 q 435 -111 431 -131 q 444 -69 440 -92 l 608 -69 m 754 0 q 624 328 696 164 q 469 638 553 492 l 317 0 l 104 0 l 335 963 l 500 963 q 569 848 532 914 q 644 706 606 782 q 722 547 683 629 q 796 383 761 464 l 933 963 l 1149 963 l 917 0 l 754 0 z "},"ņ":{"ha":788,"x_min":97,"x_max":846,"o":"m 468 -69 q 440 -179 461 -135 q 390 -250 419 -224 q 322 -287 360 -276 q 243 -299 285 -299 q 164 -287 206 -299 l 193 -178 q 203 -179 199 -179 q 213 -179 208 -179 q 256 -170 239 -179 q 281 -146 272 -161 q 295 -111 290 -131 q 304 -69 300 -92 l 468 -69 m 265 697 q 317 713 289 704 q 381 730 346 722 q 460 742 417 738 q 560 747 504 747 q 785 653 724 747 q 806 394 846 558 l 711 0 l 504 0 l 596 386 q 609 456 604 422 q 608 516 614 490 q 583 558 603 542 q 521 574 563 574 q 439 565 481 574 l 304 0 l 97 0 l 265 697 z "},"Ň":{"ha":1031,"x_min":104,"x_max":1149,"o":"m 754 0 q 624 328 696 164 q 469 638 553 492 l 317 0 l 104 0 l 335 963 l 500 963 q 569 848 532 914 q 644 706 606 782 q 722 547 683 629 q 796 383 761 464 l 933 963 l 1149 963 l 917 0 l 754 0 m 557 1251 l 640 1325 l 756 1217 l 913 1322 l 976 1238 l 728 1036 l 557 1251 z "},"ň":{"ha":788,"x_min":97,"x_max":846,"o":"m 265 697 q 317 713 289 704 q 381 730 346 722 q 460 742 417 738 q 560 747 504 747 q 785 653 724 747 q 806 394 846 558 l 711 0 l 504 0 l 596 386 q 609 456 604 422 q 608 516 614 490 q 583 558 603 542 q 521 574 563 574 q 439 565 481 574 l 304 0 l 97 0 l 265 697 m 406 1028 l 489 1101 l 604 993 l 761 1099 l 825 1014 l 576 813 l 406 1028 z "},"ŉ":{"ha":838,"x_min":115,"x_max":899,"o":"m 318 697 q 370 713 342 704 q 434 730 399 722 q 513 742 469 738 q 613 747 557 747 q 838 653 776 747 q 858 394 899 558 l 764 0 l 557 0 l 649 386 q 662 456 657 422 q 661 516 667 490 q 635 558 656 542 q 574 574 615 574 q 492 565 533 574 l 357 0 l 150 0 l 318 697 m 397 1078 q 368 980 383 1021 q 335 905 353 939 q 293 838 317 871 q 239 768 269 806 l 115 811 q 156 881 139 849 q 185 944 174 913 q 205 1008 197 975 q 217 1078 213 1040 l 397 1078 z "},"Ŋ":{"ha":1031,"x_min":104,"x_max":1149,"o":"m 725 79 q 606 368 671 225 q 469 638 542 511 l 317 0 l 104 0 l 335 963 l 500 963 q 579 824 539 897 q 658 676 619 751 q 731 526 696 601 q 796 383 767 451 l 933 963 l 1149 963 l 924 24 q 821 -184 892 -108 q 629 -260 750 -260 q 562 -254 597 -260 q 486 -236 526 -249 l 551 -72 q 610 -85 585 -85 q 683 -41 660 -85 q 725 79 707 3 z "},"ŋ":{"ha":788,"x_min":97,"x_max":846,"o":"m 265 697 q 317 713 289 704 q 381 730 346 722 q 460 742 417 738 q 560 747 504 747 q 785 653 724 747 q 806 394 846 558 l 701 -42 q 658 -149 686 -107 q 593 -215 629 -190 q 516 -250 557 -240 q 433 -260 475 -260 q 356 -253 393 -260 q 290 -236 319 -246 l 343 -87 q 410 -103 382 -103 q 465 -81 442 -103 q 503 -6 489 -60 l 596 386 q 609 456 604 422 q 608 516 614 490 q 583 558 603 542 q 521 574 563 574 q 439 565 481 574 l 304 0 l 97 0 l 265 697 z "},"Ō":{"ha":1051,"x_min":171,"x_max":1103,"o":"m 694 799 q 576 765 631 799 q 480 676 521 732 q 416 549 439 621 q 393 400 393 476 q 437 231 393 296 q 579 167 481 167 q 698 200 643 167 q 794 289 753 233 q 858 416 835 344 q 881 565 881 488 q 837 734 881 669 q 694 799 793 799 m 557 -19 q 401 8 472 -19 q 279 88 331 36 q 199 215 228 140 q 171 385 171 290 q 208 600 171 493 q 316 792 246 707 q 488 931 386 878 q 717 985 589 985 q 872 957 801 985 q 994 877 943 929 q 1074 750 1046 825 q 1103 581 1103 675 q 1066 365 1103 472 q 959 172 1029 257 q 788 33 889 86 q 557 -19 686 -19 m 549 1219 l 996 1219 l 961 1078 l 514 1078 l 549 1219 z "},"ō":{"ha":797,"x_min":139,"x_max":839,"o":"m 428 -19 q 300 3 354 -19 q 210 65 246 25 q 157 160 175 106 q 139 282 139 215 q 166 449 139 365 q 246 599 193 532 q 375 708 299 665 q 550 750 451 750 q 677 728 622 750 q 767 665 732 706 q 821 570 803 625 q 839 449 839 515 q 813 282 839 365 q 735 132 786 199 q 606 23 683 65 q 428 -19 529 -19 m 531 575 q 450 549 485 575 q 392 482 415 522 q 356 394 368 442 q 344 303 344 346 q 367 194 344 232 q 447 156 389 156 q 528 182 493 156 q 586 249 563 208 q 622 337 610 289 q 633 428 633 385 q 611 537 633 499 q 531 575 589 575 m 386 1007 l 833 1007 l 799 865 l 351 865 l 386 1007 z "},"Ŏ":{"ha":1051,"x_min":171,"x_max":1103,"o":"m 694 799 q 576 765 631 799 q 480 676 521 732 q 416 549 439 621 q 393 400 393 476 q 437 231 393 296 q 579 167 481 167 q 698 200 643 167 q 794 289 753 233 q 858 416 835 344 q 881 565 881 488 q 837 734 881 669 q 694 799 793 799 m 557 -19 q 401 8 472 -19 q 279 88 331 36 q 199 215 228 140 q 171 385 171 290 q 208 600 171 493 q 316 792 246 707 q 488 931 386 878 q 717 985 589 985 q 872 957 801 985 q 994 877 943 929 q 1074 750 1046 825 q 1103 581 1103 675 q 1066 365 1103 472 q 959 172 1029 257 q 788 33 889 86 q 557 -19 686 -19 m 686 1274 q 684 1260 685 1267 q 683 1246 683 1253 q 698 1194 683 1213 q 747 1175 713 1175 q 806 1200 781 1175 q 840 1274 832 1225 l 982 1274 q 954 1172 978 1215 q 896 1101 931 1129 q 819 1058 861 1072 q 733 1043 776 1043 q 661 1054 696 1043 q 599 1088 626 1065 q 556 1146 572 1111 q 540 1226 540 1181 q 546 1274 540 1253 l 686 1274 z "},"ŏ":{"ha":797,"x_min":139,"x_max":839,"o":"m 428 -19 q 300 3 354 -19 q 210 65 246 25 q 157 160 175 106 q 139 282 139 215 q 166 449 139 365 q 246 599 193 532 q 375 708 299 665 q 550 750 451 750 q 677 728 622 750 q 767 665 732 706 q 821 570 803 625 q 839 449 839 515 q 813 282 839 365 q 735 132 786 199 q 606 23 683 65 q 428 -19 529 -19 m 531 575 q 450 549 485 575 q 392 482 415 522 q 356 394 368 442 q 344 303 344 346 q 367 194 344 232 q 447 156 389 156 q 528 182 493 156 q 586 249 563 208 q 622 337 610 289 q 633 428 633 385 q 611 537 633 499 q 531 575 589 575 m 515 1061 q 513 1047 514 1054 q 513 1033 513 1040 q 527 981 513 1000 q 576 963 542 963 q 635 988 610 963 q 669 1061 661 1013 l 811 1061 q 783 960 807 1003 q 725 888 760 917 q 648 845 690 860 q 563 831 606 831 q 490 842 525 831 q 428 876 456 853 q 385 933 401 899 q 369 1014 369 968 q 375 1061 369 1040 l 515 1061 z "},"Ő":{"ha":1051,"x_min":171,"x_max":1103,"o":"m 694 799 q 576 765 631 799 q 480 676 521 732 q 416 549 439 621 q 393 400 393 476 q 437 231 393 296 q 579 167 481 167 q 698 200 643 167 q 794 289 753 233 q 858 416 835 344 q 881 565 881 488 q 837 734 881 669 q 694 799 793 799 m 557 -19 q 401 8 472 -19 q 279 88 331 36 q 199 215 228 140 q 171 385 171 290 q 208 600 171 493 q 316 792 246 707 q 488 931 386 878 q 717 985 589 985 q 872 957 801 985 q 994 877 943 929 q 1074 750 1046 825 q 1103 581 1103 675 q 1066 365 1103 472 q 959 172 1029 257 q 788 33 889 86 q 557 -19 686 -19 m 793 1215 l 565 1026 l 490 1111 l 693 1335 l 793 1215 m 1075 1215 l 847 1026 l 772 1111 l 975 1335 l 1075 1215 z "},"ő":{"ha":797,"x_min":139,"x_max":935,"o":"m 428 -19 q 300 3 354 -19 q 210 65 246 25 q 157 160 175 106 q 139 282 139 215 q 166 449 139 365 q 246 599 193 532 q 375 708 299 665 q 550 750 451 750 q 677 728 622 750 q 767 665 732 706 q 821 570 803 625 q 839 449 839 515 q 813 282 839 365 q 735 132 786 199 q 606 23 683 65 q 428 -19 529 -19 m 531 575 q 450 549 485 575 q 392 482 415 522 q 356 394 368 442 q 344 303 344 346 q 367 194 344 232 q 447 156 389 156 q 528 182 493 156 q 586 249 563 208 q 622 337 610 289 q 633 428 633 385 q 611 537 633 499 q 531 575 589 575 m 653 990 l 425 801 l 350 886 l 553 1110 l 653 990 m 935 990 l 707 801 l 632 886 l 835 1110 l 935 990 z "},"Ŕ":{"ha":911,"x_min":104,"x_max":974,"o":"m 606 974 q 768 951 699 974 q 883 892 838 929 q 951 803 929 854 q 974 697 974 753 q 963 607 974 651 q 924 522 953 563 q 848 448 896 482 q 725 390 800 414 q 805 215 764 318 q 882 0 846 113 l 650 0 q 585 190 618 96 q 513 351 553 283 l 404 351 l 319 0 l 104 0 l 331 949 q 476 968 406 963 q 606 974 547 974 m 599 790 q 550 789 575 790 q 508 786 525 788 l 446 522 l 519 522 q 632 535 586 522 q 706 568 678 547 q 745 616 733 589 q 757 671 757 643 q 750 716 757 694 q 725 754 743 738 q 676 781 707 771 q 599 790 646 790 m 851 1211 l 606 1022 l 522 1108 l 744 1332 l 851 1211 z "},"ŕ":{"ha":592,"x_min":97,"x_max":726,"o":"m 656 553 q 601 566 628 560 q 521 572 574 572 q 478 569 501 572 q 439 561 454 565 l 304 0 l 97 0 l 264 692 q 398 728 324 711 q 565 746 472 746 q 642 740 600 746 q 717 719 685 733 l 656 553 m 726 989 l 481 800 l 397 886 l 619 1110 l 726 989 z "},"Ŗ":{"ha":911,"x_min":104,"x_max":974,"o":"m 606 974 q 768 951 699 974 q 883 892 838 929 q 951 803 929 854 q 974 697 974 753 q 963 607 974 651 q 924 522 953 563 q 848 448 896 482 q 725 390 800 414 q 805 215 764 318 q 882 0 846 113 l 650 0 q 585 190 618 96 q 513 351 553 283 l 404 351 l 319 0 l 104 0 l 331 949 q 476 968 406 963 q 606 974 547 974 m 599 790 q 550 789 575 790 q 508 786 525 788 l 446 522 l 519 522 q 632 535 586 522 q 706 568 678 547 q 745 616 733 589 q 757 671 757 643 q 750 716 757 694 q 725 754 743 738 q 676 781 707 771 q 599 790 646 790 m 549 -69 q 521 -179 542 -135 q 470 -250 500 -224 q 403 -287 440 -276 q 324 -299 365 -299 q 244 -287 286 -299 l 274 -178 q 284 -179 279 -179 q 293 -179 289 -179 q 336 -170 319 -179 q 362 -146 353 -161 q 376 -111 371 -131 q 385 -69 381 -92 l 549 -69 z "},"ŗ":{"ha":592,"x_min":-42,"x_max":717,"o":"m 263 -69 q 235 -179 256 -135 q 184 -250 214 -224 q 117 -287 154 -276 q 38 -299 79 -299 q -42 -287 0 -299 l -12 -178 q -2 -179 -7 -179 q 7 -179 3 -179 q 50 -170 33 -179 q 76 -146 67 -161 q 90 -111 85 -131 q 99 -69 94 -92 l 263 -69 m 656 553 q 601 566 628 560 q 521 572 574 572 q 478 569 501 572 q 439 561 454 565 l 304 0 l 97 0 l 264 692 q 398 728 324 711 q 565 746 472 746 q 642 740 600 746 q 717 719 685 733 l 656 553 z "},"Ř":{"ha":911,"x_min":104,"x_max":974,"o":"m 606 974 q 768 951 699 974 q 883 892 838 929 q 951 803 929 854 q 974 697 974 753 q 963 607 974 651 q 924 522 953 563 q 848 448 896 482 q 725 390 800 414 q 805 215 764 318 q 882 0 846 113 l 650 0 q 585 190 618 96 q 513 351 553 283 l 404 351 l 319 0 l 104 0 l 331 949 q 476 968 406 963 q 606 974 547 974 m 599 790 q 550 789 575 790 q 508 786 525 788 l 446 522 l 519 522 q 632 535 586 522 q 706 568 678 547 q 745 616 733 589 q 757 671 757 643 q 750 716 757 694 q 725 754 743 738 q 676 781 707 771 q 599 790 646 790 m 472 1251 l 556 1325 l 671 1217 l 828 1322 l 892 1238 l 643 1036 l 472 1251 z "},"ř":{"ha":592,"x_min":97,"x_max":785,"o":"m 656 553 q 601 566 628 560 q 521 572 574 572 q 478 569 501 572 q 439 561 454 565 l 304 0 l 97 0 l 264 692 q 398 728 324 711 q 565 746 472 746 q 642 740 600 746 q 717 719 685 733 l 656 553 m 365 1028 l 449 1101 l 564 993 l 721 1099 l 785 1014 l 536 813 l 365 1028 z "},"Ś":{"ha":776,"x_min":56,"x_max":874,"o":"m 374 161 q 438 166 406 161 q 494 183 469 171 q 535 219 519 196 q 551 278 551 242 q 536 326 551 306 q 497 363 521 346 q 444 393 474 379 q 386 424 415 407 q 315 471 349 446 q 258 527 282 496 q 221 597 235 558 q 207 685 207 635 q 231 803 207 749 q 303 899 256 858 q 424 962 351 939 q 593 985 496 985 q 679 977 638 985 q 757 958 721 969 q 823 933 793 947 q 874 904 853 918 l 783 744 q 699 789 749 771 q 590 807 649 807 q 529 801 558 807 q 478 783 500 796 q 442 749 456 769 q 429 697 429 728 q 440 651 429 669 q 467 618 450 632 q 506 593 483 604 q 553 569 528 582 q 636 522 596 547 q 707 465 676 497 q 756 390 738 432 q 774 292 774 349 q 744 154 774 213 q 663 57 715 96 q 537 -1 610 18 q 375 -19 464 -19 q 266 -10 317 -19 q 174 13 215 0 q 103 42 133 26 q 56 69 74 57 l 147 235 q 188 211 164 224 q 241 188 211 199 q 304 169 271 176 q 374 161 338 161 m 790 1211 l 544 1022 l 461 1108 l 683 1332 l 790 1211 z "},"ś":{"ha":671,"x_min":69,"x_max":740,"o":"m 335 147 q 432 167 406 147 q 458 211 458 188 q 453 238 458 226 q 438 258 449 249 q 407 278 426 268 q 357 303 388 289 q 292 335 322 318 q 238 377 261 353 q 202 433 215 401 q 189 507 189 464 q 272 685 189 619 q 513 750 354 750 q 646 733 588 750 q 740 697 704 717 l 669 543 q 594 572 640 558 q 504 586 549 586 q 466 584 485 586 q 431 575 447 582 q 406 556 415 568 q 396 522 396 543 q 417 481 396 494 q 478 447 439 467 q 568 399 532 421 q 626 351 604 376 q 657 294 647 326 q 667 219 667 263 q 648 132 667 175 q 589 56 629 89 q 486 1 549 22 q 336 -19 424 -19 q 238 -12 282 -19 q 161 5 194 -6 q 105 26 128 15 q 69 44 82 38 l 140 203 q 214 168 164 189 q 335 147 264 147 m 733 989 l 488 800 l 404 886 l 626 1110 l 733 989 z "},"Ŝ":{"ha":776,"x_min":56,"x_max":874,"o":"m 374 161 q 438 166 406 161 q 494 183 469 171 q 535 219 519 196 q 551 278 551 242 q 536 326 551 306 q 497 363 521 346 q 444 393 474 379 q 386 424 415 407 q 315 471 349 446 q 258 527 282 496 q 221 597 235 558 q 207 685 207 635 q 231 803 207 749 q 303 899 256 858 q 424 962 351 939 q 593 985 496 985 q 679 977 638 985 q 757 958 721 969 q 823 933 793 947 q 874 904 853 918 l 783 744 q 699 789 749 771 q 590 807 649 807 q 529 801 558 807 q 478 783 500 796 q 442 749 456 769 q 429 697 429 728 q 440 651 429 669 q 467 618 450 632 q 506 593 483 604 q 553 569 528 582 q 636 522 596 547 q 707 465 676 497 q 756 390 738 432 q 774 292 774 349 q 744 154 774 213 q 663 57 715 96 q 537 -1 610 18 q 375 -19 464 -19 q 266 -10 317 -19 q 174 13 215 0 q 103 42 133 26 q 56 69 74 57 l 147 235 q 188 211 164 224 q 241 188 211 199 q 304 169 271 176 q 374 161 338 161 m 839 1104 l 756 1031 l 640 1139 l 483 1033 l 419 1118 l 668 1319 l 839 1104 z "},"ŝ":{"ha":671,"x_min":69,"x_max":756,"o":"m 335 147 q 432 167 406 147 q 458 211 458 188 q 453 238 458 226 q 438 258 449 249 q 407 278 426 268 q 357 303 388 289 q 292 335 322 318 q 238 377 261 353 q 202 433 215 401 q 189 507 189 464 q 272 685 189 619 q 513 750 354 750 q 646 733 588 750 q 740 697 704 717 l 669 543 q 594 572 640 558 q 504 586 549 586 q 466 584 485 586 q 431 575 447 582 q 406 556 415 568 q 396 522 396 543 q 417 481 396 494 q 478 447 439 467 q 568 399 532 421 q 626 351 604 376 q 657 294 647 326 q 667 219 667 263 q 648 132 667 175 q 589 56 629 89 q 486 1 549 22 q 336 -19 424 -19 q 238 -12 282 -19 q 161 5 194 -6 q 105 26 128 15 q 69 44 82 38 l 140 203 q 214 168 164 189 q 335 147 264 147 m 756 874 l 672 800 l 557 908 l 400 803 l 336 888 l 585 1089 l 756 874 z "},"Ş":{"ha":776,"x_min":56,"x_max":874,"o":"m 374 161 q 438 166 406 161 q 494 183 469 171 q 535 219 519 196 q 551 278 551 242 q 536 326 551 306 q 497 363 521 346 q 444 393 474 379 q 386 424 415 407 q 315 471 349 446 q 258 527 282 496 q 221 597 235 558 q 207 685 207 635 q 231 803 207 749 q 303 899 256 858 q 424 962 351 939 q 593 985 496 985 q 679 977 638 985 q 757 958 721 969 q 823 933 793 947 q 874 904 853 918 l 783 744 q 699 789 749 771 q 590 807 649 807 q 529 801 558 807 q 478 783 500 796 q 442 749 456 769 q 429 697 429 728 q 440 651 429 669 q 467 618 450 632 q 506 593 483 604 q 553 569 528 582 q 636 522 596 547 q 707 465 676 497 q 756 390 738 432 q 774 292 774 349 q 747 158 774 215 q 671 63 719 101 q 554 5 622 25 q 404 -18 486 -15 l 376 -61 q 422 -101 407 -76 q 438 -154 438 -126 q 422 -224 438 -194 q 378 -272 406 -253 q 317 -299 351 -290 q 246 -307 282 -307 q 172 -299 208 -307 q 106 -275 135 -290 l 156 -161 q 197 -175 174 -169 q 240 -181 219 -181 q 296 -147 296 -181 q 286 -122 296 -132 q 254 -103 276 -112 l 226 -90 q 251 -53 236 -75 q 279 -12 265 -32 q 141 25 199 0 q 56 69 83 50 l 147 235 q 188 211 164 224 q 241 188 211 199 q 304 169 271 176 q 374 161 338 161 z "},"ş":{"ha":671,"x_min":69,"x_max":740,"o":"m 335 147 q 432 167 406 147 q 458 211 458 188 q 453 238 458 226 q 438 258 449 249 q 407 278 426 268 q 357 303 388 289 q 292 335 322 318 q 238 377 261 353 q 202 433 215 401 q 189 507 189 464 q 272 685 189 619 q 513 750 354 750 q 646 733 588 750 q 740 697 704 717 l 669 543 q 594 572 640 558 q 504 586 549 586 q 466 584 485 586 q 431 575 447 582 q 406 556 415 568 q 396 522 396 543 q 417 481 396 494 q 478 447 439 467 q 568 399 532 421 q 626 351 604 376 q 657 294 647 326 q 667 219 667 263 q 652 143 667 181 q 608 74 638 106 q 531 19 578 42 q 418 -14 483 -4 q 400 -39 408 -26 q 386 -61 392 -51 q 432 -101 417 -76 q 447 -154 447 -126 q 431 -224 447 -194 q 388 -272 415 -253 q 326 -299 361 -290 q 256 -307 292 -307 q 181 -299 218 -307 q 115 -275 144 -290 l 165 -161 q 206 -175 183 -169 q 250 -181 229 -181 q 306 -147 306 -181 q 296 -122 306 -132 q 264 -103 286 -112 l 236 -90 q 259 -56 246 -75 q 285 -17 272 -36 q 146 10 199 -10 q 69 44 93 31 l 140 203 q 214 168 164 189 q 335 147 264 147 z "},"Ţ":{"ha":825,"x_min":174,"x_max":1026,"o":"m 1026 963 l 982 781 l 700 781 l 513 0 l 486 0 q 463 -33 475 -15 q 444 -61 451 -50 q 490 -101 475 -76 q 506 -154 506 -126 q 490 -224 506 -194 q 447 -272 474 -253 q 385 -299 419 -290 q 314 -307 350 -307 q 240 -299 276 -307 q 174 -275 203 -290 l 224 -161 q 265 -175 242 -169 q 308 -181 288 -181 q 364 -147 364 -181 q 354 -122 364 -132 q 322 -103 344 -112 l 294 -90 q 323 -45 306 -71 q 356 0 340 -19 l 296 0 l 483 781 l 201 781 l 246 963 l 1026 963 z "},"ţ":{"ha":578,"x_min":133,"x_max":689,"o":"m 296 913 l 511 946 l 458 731 l 689 731 l 647 561 l 418 561 l 357 306 q 347 246 349 274 q 353 198 344 218 q 385 167 363 178 q 446 156 407 156 q 510 162 479 156 q 574 179 542 168 l 589 21 q 519 -1 556 8 q 436 -14 482 -11 l 404 -61 q 450 -101 435 -76 q 465 -154 465 -126 q 449 -224 465 -194 q 406 -272 433 -253 q 344 -299 379 -290 q 274 -307 310 -307 q 199 -299 236 -307 q 133 -275 163 -290 l 183 -161 q 224 -175 201 -169 q 268 -181 247 -181 q 324 -147 324 -181 q 314 -122 324 -132 q 282 -103 304 -112 l 254 -90 q 278 -51 264 -74 q 308 -10 293 -29 q 203 33 240 1 q 151 112 165 65 q 140 217 136 158 q 160 338 144 275 l 296 913 z "},"Ť":{"ha":825,"x_min":201,"x_max":1026,"o":"m 1026 963 l 982 781 l 700 781 l 513 0 l 296 0 l 483 781 l 201 781 l 246 963 l 1026 963 m 467 1251 l 550 1325 l 665 1217 l 822 1322 l 886 1238 l 638 1036 l 467 1251 z "},"ť":{"ha":578,"x_min":138,"x_max":796,"o":"m 296 913 l 511 946 l 458 731 l 689 731 l 647 561 l 418 561 l 357 306 q 347 246 349 274 q 353 198 344 218 q 385 167 363 178 q 446 156 407 156 q 510 162 479 156 q 574 179 542 168 l 589 21 q 499 -6 547 6 q 383 -17 450 -17 q 235 12 288 -17 q 160 90 182 40 q 140 203 138 139 q 160 338 143 267 l 296 913 m 796 1078 l 679 813 l 561 813 l 624 1078 l 796 1078 z "},"Ŧ":{"ha":825,"x_min":190,"x_max":1026,"o":"m 1026 963 l 982 781 l 700 781 l 638 524 l 836 524 l 799 371 l 601 371 l 513 0 l 296 0 l 385 371 l 190 371 l 228 524 l 421 524 l 483 781 l 201 781 l 246 963 l 1026 963 z "},"ŧ":{"ha":578,"x_min":138,"x_max":689,"o":"m 296 913 l 511 946 l 458 731 l 689 731 l 647 561 l 418 561 l 390 446 l 638 446 l 607 317 l 360 317 l 357 306 q 347 246 349 274 q 353 198 344 218 q 385 167 363 178 q 446 156 407 156 q 510 162 479 156 q 574 179 542 168 l 589 21 q 499 -6 547 6 q 383 -17 450 -17 q 235 12 288 -17 q 160 90 182 40 q 140 203 138 139 q 160 338 143 267 l 296 913 z "},"Ũ":{"ha":949,"x_min":167,"x_max":1074,"o":"m 928 350 q 774 67 881 154 q 493 -19 668 -19 q 341 2 403 -19 q 240 62 279 24 q 184 153 201 100 q 167 269 167 207 q 188 424 167 342 l 317 963 l 533 963 l 397 393 q 383 292 383 343 q 390 242 383 264 q 412 203 396 219 q 455 177 428 186 q 522 168 482 168 q 649 220 606 168 q 715 368 692 272 l 857 963 l 1074 963 l 928 350 m 794 1069 q 747 1077 768 1069 q 708 1094 726 1085 q 674 1110 690 1103 q 640 1118 657 1118 q 605 1107 621 1118 q 565 1061 589 1096 l 472 1118 q 549 1230 504 1193 q 657 1267 593 1267 q 704 1259 683 1267 q 743 1242 725 1251 q 778 1226 761 1233 q 811 1218 794 1218 q 847 1229 831 1218 q 886 1275 863 1240 l 979 1218 q 903 1106 947 1143 q 794 1069 858 1069 z "},"ũ":{"ha":807,"x_min":138,"x_max":863,"o":"m 863 731 l 764 315 q 753 156 744 236 q 785 14 761 76 l 600 -12 q 571 56 585 18 q 483 4 532 25 q 375 -17 435 -17 q 242 13 293 -17 q 167 92 192 43 q 140 206 142 142 q 154 336 138 269 l 249 731 l 456 731 l 363 339 q 351 276 356 308 q 350 217 346 244 q 372 173 354 190 q 426 156 389 156 q 485 167 458 156 q 543 208 513 179 q 552 281 546 243 q 565 351 558 319 l 656 731 l 863 731 m 664 843 q 617 851 638 843 q 578 867 596 858 q 543 884 560 876 q 510 892 526 892 q 474 881 490 892 q 435 835 458 869 l 342 892 q 418 1003 374 967 q 526 1040 463 1040 q 574 1033 553 1040 q 613 1016 594 1025 q 647 999 631 1007 q 681 992 664 992 q 716 1003 700 992 q 756 1049 732 1014 l 849 992 q 772 880 817 917 q 664 843 728 843 z "},"Ū":{"ha":949,"x_min":167,"x_max":1074,"o":"m 928 350 q 774 67 881 154 q 493 -19 668 -19 q 341 2 403 -19 q 240 62 279 24 q 184 153 201 100 q 167 269 167 207 q 188 424 167 342 l 317 963 l 533 963 l 397 393 q 383 292 383 343 q 390 242 383 264 q 412 203 396 219 q 455 177 428 186 q 522 168 482 168 q 649 220 606 168 q 715 368 692 272 l 857 963 l 1074 963 l 928 350 m 521 1219 l 968 1219 l 933 1078 l 486 1078 l 521 1219 z "},"ū":{"ha":807,"x_min":138,"x_max":863,"o":"m 863 731 l 764 315 q 753 156 744 236 q 785 14 761 76 l 600 -12 q 571 56 585 18 q 483 4 532 25 q 375 -17 435 -17 q 242 13 293 -17 q 167 92 192 43 q 140 206 142 142 q 154 336 138 269 l 249 731 l 456 731 l 363 339 q 351 276 356 308 q 350 217 346 244 q 372 173 354 190 q 426 156 389 156 q 485 167 458 156 q 543 208 513 179 q 552 281 546 243 q 565 351 558 319 l 656 731 l 863 731 m 385 1007 l 832 1007 l 797 865 l 350 865 l 385 1007 z "},"Ŭ":{"ha":949,"x_min":167,"x_max":1074,"o":"m 928 350 q 774 67 881 154 q 493 -19 668 -19 q 341 2 403 -19 q 240 62 279 24 q 184 153 201 100 q 167 269 167 207 q 188 424 167 342 l 317 963 l 533 963 l 397 393 q 383 292 383 343 q 390 242 383 264 q 412 203 396 219 q 455 177 428 186 q 522 168 482 168 q 649 220 606 168 q 715 368 692 272 l 857 963 l 1074 963 l 928 350 m 664 1274 q 662 1260 663 1267 q 661 1246 661 1253 q 676 1194 661 1213 q 725 1175 690 1175 q 784 1200 758 1175 q 818 1274 810 1225 l 960 1274 q 932 1172 956 1215 q 874 1101 908 1129 q 797 1058 839 1072 q 711 1043 754 1043 q 639 1054 674 1043 q 577 1088 604 1065 q 534 1146 550 1111 q 518 1226 518 1181 q 524 1274 518 1253 l 664 1274 z "},"ŭ":{"ha":807,"x_min":138,"x_max":863,"o":"m 863 731 l 764 315 q 753 156 744 236 q 785 14 761 76 l 600 -12 q 571 56 585 18 q 483 4 532 25 q 375 -17 435 -17 q 242 13 293 -17 q 167 92 192 43 q 140 206 142 142 q 154 336 138 269 l 249 731 l 456 731 l 363 339 q 351 276 356 308 q 350 217 346 244 q 372 173 354 190 q 426 156 389 156 q 485 167 458 156 q 543 208 513 179 q 552 281 546 243 q 565 351 558 319 l 656 731 l 863 731 m 540 1061 q 538 1047 539 1054 q 538 1033 538 1040 q 552 981 538 1000 q 601 963 567 963 q 660 988 635 963 q 694 1061 686 1013 l 836 1061 q 808 960 832 1003 q 750 888 785 917 q 673 845 715 860 q 588 831 631 831 q 515 842 550 831 q 453 876 481 853 q 410 933 426 899 q 394 1014 394 968 q 400 1061 394 1040 l 540 1061 z "},"Ů":{"ha":949,"x_min":167,"x_max":1074,"o":"m 928 350 q 774 67 881 154 q 493 -19 668 -19 q 341 2 403 -19 q 240 62 279 24 q 184 153 201 100 q 167 269 167 207 q 188 424 167 342 l 317 963 l 533 963 l 397 393 q 383 292 383 343 q 390 242 383 264 q 412 203 396 219 q 455 177 428 186 q 522 168 482 168 q 649 220 606 168 q 715 368 692 272 l 857 963 l 1074 963 l 928 350 m 872 1158 q 859 1090 872 1119 q 823 1040 846 1060 q 770 1009 800 1019 q 707 999 740 999 q 646 1009 675 999 q 594 1040 617 1019 q 558 1090 571 1060 q 544 1158 544 1119 q 558 1227 544 1197 q 594 1277 571 1257 q 646 1308 617 1297 q 707 1318 675 1318 q 770 1308 740 1318 q 823 1277 800 1297 q 859 1227 846 1257 q 872 1158 872 1197 m 771 1158 q 751 1207 771 1190 q 707 1224 732 1224 q 664 1207 683 1224 q 644 1158 644 1190 q 664 1110 644 1126 q 707 1093 683 1093 q 751 1110 732 1093 q 771 1158 771 1126 z "},"ů":{"ha":807,"x_min":138,"x_max":863,"o":"m 863 731 l 764 315 q 753 156 744 236 q 785 14 761 76 l 600 -12 q 571 56 585 18 q 483 4 532 25 q 375 -17 435 -17 q 242 13 293 -17 q 167 92 192 43 q 140 206 142 142 q 154 336 138 269 l 249 731 l 456 731 l 363 339 q 351 276 356 308 q 350 217 346 244 q 372 173 354 190 q 426 156 389 156 q 485 167 458 156 q 543 208 513 179 q 552 281 546 243 q 565 351 558 319 l 656 731 l 863 731 m 757 971 q 744 902 757 932 q 708 852 731 872 q 655 822 685 832 q 592 811 625 811 q 531 822 560 811 q 478 852 501 832 q 442 902 456 872 q 429 971 429 932 q 442 1040 429 1010 q 478 1090 456 1069 q 531 1120 501 1110 q 592 1131 560 1131 q 655 1120 625 1131 q 708 1090 685 1110 q 744 1040 731 1069 q 757 971 757 1010 m 656 971 q 636 1019 656 1003 q 592 1036 617 1036 q 549 1019 568 1036 q 529 971 529 1003 q 549 922 529 939 q 592 906 568 906 q 636 922 617 906 q 656 971 656 939 z "},"Ű":{"ha":949,"x_min":167,"x_max":1074,"o":"m 928 350 q 774 67 881 154 q 493 -19 668 -19 q 341 2 403 -19 q 240 62 279 24 q 184 153 201 100 q 167 269 167 207 q 188 424 167 342 l 317 963 l 533 963 l 397 393 q 383 292 383 343 q 390 242 383 264 q 412 203 396 219 q 455 177 428 186 q 522 168 482 168 q 649 220 606 168 q 715 368 692 272 l 857 963 l 1074 963 l 928 350 m 778 1215 l 550 1026 l 475 1111 l 678 1335 l 778 1215 m 1060 1215 l 832 1026 l 757 1111 l 960 1335 l 1060 1215 z "},"ű":{"ha":807,"x_min":138,"x_max":939,"o":"m 863 731 l 764 315 q 753 156 744 236 q 785 14 761 76 l 600 -12 q 571 56 585 18 q 483 4 532 25 q 375 -17 435 -17 q 242 13 293 -17 q 167 92 192 43 q 140 206 142 142 q 154 336 138 269 l 249 731 l 456 731 l 363 339 q 351 276 356 308 q 350 217 346 244 q 372 173 354 190 q 426 156 389 156 q 485 167 458 156 q 543 208 513 179 q 552 281 546 243 q 565 351 558 319 l 656 731 l 863 731 m 657 990 l 429 801 l 354 886 l 557 1110 l 657 990 m 939 990 l 711 801 l 636 886 l 839 1110 l 939 990 z "},"Ų":{"ha":949,"x_min":168,"x_max":1075,"o":"m 929 350 q 803 92 889 178 q 579 -14 718 6 q 492 -88 517 -58 q 468 -135 468 -118 q 503 -157 468 -157 q 544 -151 522 -157 q 576 -142 567 -144 l 563 -279 q 501 -299 535 -292 q 431 -307 467 -307 q 374 -301 401 -307 q 324 -281 346 -294 q 290 -244 303 -267 q 278 -189 278 -222 q 306 -103 278 -147 q 410 -14 335 -58 q 299 21 344 -4 q 224 83 253 46 q 181 167 194 119 q 168 269 168 214 q 189 424 168 342 l 318 963 l 535 963 l 399 393 q 385 292 385 343 q 391 242 385 264 q 413 203 397 219 q 456 177 429 186 q 524 168 483 168 q 650 220 607 168 q 717 368 693 272 l 858 963 l 1075 963 l 929 350 z "},"ų":{"ha":807,"x_min":138,"x_max":863,"o":"m 863 731 l 764 315 q 753 156 744 236 q 785 14 761 76 l 758 -4 q 660 -85 688 -53 q 632 -135 632 -117 q 667 -157 632 -157 q 708 -151 686 -157 q 740 -142 731 -144 l 726 -279 q 665 -299 699 -292 q 594 -307 631 -307 q 538 -301 565 -307 q 488 -281 510 -294 q 454 -244 467 -267 q 442 -189 442 -222 q 471 -103 442 -147 q 567 -18 500 -58 l 594 -1 q 582 26 588 13 q 571 56 576 40 q 483 4 532 25 q 375 -17 435 -17 q 242 13 293 -17 q 167 92 192 43 q 140 206 142 142 q 154 336 138 269 l 249 731 l 456 731 l 363 339 q 351 276 356 308 q 350 217 346 244 q 372 173 354 190 q 426 156 389 156 q 485 167 458 156 q 543 208 513 179 q 552 281 546 243 q 565 351 558 319 l 656 731 l 863 731 z "},"Ŵ":{"ha":1300,"x_min":222,"x_max":1494,"o":"m 926 860 q 934 731 929 803 q 945 581 939 658 q 958 428 951 504 q 972 286 965 351 q 1046 439 1008 357 q 1121 608 1083 521 q 1195 786 1158 696 q 1265 963 1232 876 l 1494 963 q 1274 460 1386 699 q 1032 0 1161 222 l 829 0 q 809 147 818 76 q 792 285 800 217 q 778 422 785 353 q 767 567 772 492 q 610 278 688 419 q 446 0 533 138 l 243 0 q 227 256 232 129 q 222 513 222 382 q 226 737 222 625 q 238 963 231 849 l 456 963 q 442 723 449 840 q 436 479 436 606 q 436 383 436 432 q 439 286 436 335 q 521 431 478 354 q 606 583 564 507 q 685 731 647 660 q 749 860 722 803 l 926 860 m 1107 1090 l 1024 1017 l 908 1125 l 751 1019 l 688 1104 l 936 1306 l 1107 1090 z "},"ŵ":{"ha":1133,"x_min":181,"x_max":1272,"o":"m 669 428 q 610 312 643 371 q 544 197 578 253 q 478 90 510 140 q 421 0 446 39 l 260 0 q 237 139 249 58 q 214 315 225 219 q 194 516 203 410 q 181 731 185 622 l 383 731 q 384 622 383 681 q 387 501 385 564 q 393 374 389 439 q 404 244 397 308 q 473 366 439 303 q 538 492 507 429 q 597 617 569 556 q 644 731 624 678 l 817 731 q 820 507 817 631 q 838 244 824 383 q 907 373 875 307 q 966 503 939 439 q 1015 625 993 567 q 1053 731 1036 683 l 1272 731 q 1206 574 1244 661 q 1118 392 1168 488 q 1006 196 1068 296 q 867 0 943 96 l 706 0 q 681 218 689 114 q 669 428 672 322 m 964 874 l 881 800 l 765 908 l 608 803 l 544 888 l 793 1089 l 964 874 z "},"Ŷ":{"ha":906,"x_min":236,"x_max":1100,"o":"m 574 567 q 651 666 614 618 q 722 762 688 714 q 791 859 757 810 q 861 963 825 908 l 1100 963 q 988 807 1042 881 q 879 663 933 733 q 768 524 825 593 q 647 381 711 454 l 556 0 l 339 0 l 431 381 q 325 668 372 528 q 236 963 278 808 l 467 963 q 515 767 489 863 q 574 567 542 671 m 888 1104 l 804 1031 l 689 1139 l 532 1033 l 468 1118 l 717 1319 l 888 1104 z "},"ŷ":{"ha":739,"x_min":-35,"x_max":878,"o":"m 878 731 q 799 533 839 625 q 717 359 760 442 q 628 201 674 276 q 531 53 582 126 q 453 -57 493 -1 q 363 -157 413 -112 q 253 -229 314 -201 q 114 -257 193 -257 q 31 -248 65 -257 q -35 -224 -4 -239 l 28 -61 q 78 -78 56 -72 q 132 -85 100 -85 q 224 -53 181 -85 q 297 31 268 -22 q 231 342 261 169 q 190 731 201 514 l 403 731 q 408 611 404 676 q 418 480 413 546 q 431 351 424 414 q 446 239 438 289 q 563 461 513 339 q 658 731 614 583 l 878 731 m 779 874 l 696 800 l 581 908 l 424 803 l 360 888 l 608 1089 l 779 874 z "},"Ź":{"ha":886,"x_min":63,"x_max":1025,"o":"m 989 813 q 856 692 933 765 q 693 534 778 619 q 524 357 608 449 q 369 182 439 265 l 853 182 l 808 0 l 63 0 l 94 129 q 225 290 150 203 q 381 464 300 376 q 544 633 463 551 q 696 781 626 715 l 271 781 l 315 963 l 1025 963 l 989 813 m 890 1211 l 644 1022 l 561 1108 l 783 1332 l 890 1211 z "},"ź":{"ha":731,"x_min":83,"x_max":842,"o":"m 808 593 q 725 517 776 565 q 614 412 674 469 q 492 291 554 354 q 375 169 429 228 l 714 169 l 672 0 l 83 0 l 113 121 q 205 229 153 171 q 313 347 257 288 q 426 462 369 407 q 531 561 482 517 l 233 561 l 275 731 l 842 731 l 808 593 m 757 989 l 511 800 l 428 886 l 650 1110 l 757 989 z "},"Ż":{"ha":886,"x_min":63,"x_max":1025,"o":"m 989 813 q 856 692 933 765 q 693 534 778 619 q 524 357 608 449 q 369 182 439 265 l 853 182 l 808 0 l 63 0 l 94 129 q 225 290 150 203 q 381 464 300 376 q 544 633 463 551 q 696 781 626 715 l 271 781 l 315 963 l 1025 963 l 989 813 m 696 1056 q 625 1081 653 1056 q 597 1150 597 1106 q 634 1240 597 1208 q 717 1272 671 1272 q 788 1247 758 1272 q 817 1176 817 1222 q 806 1126 817 1149 q 778 1088 796 1104 q 740 1064 761 1072 q 696 1056 718 1056 z "},"ż":{"ha":731,"x_min":83,"x_max":842,"o":"m 808 593 q 725 517 776 565 q 614 412 674 469 q 492 291 554 354 q 375 169 429 228 l 714 169 l 672 0 l 83 0 l 113 121 q 205 229 153 171 q 313 347 257 288 q 426 462 369 407 q 531 561 482 517 l 233 561 l 275 731 l 842 731 l 808 593 m 569 833 q 499 858 526 833 q 471 928 471 883 q 508 1018 471 986 q 590 1050 544 1050 q 661 1025 632 1050 q 690 954 690 1000 q 680 904 690 926 q 652 866 669 882 q 613 842 635 850 q 569 833 592 833 z "},"Ž":{"ha":886,"x_min":63,"x_max":1025,"o":"m 989 813 q 856 692 933 765 q 693 534 778 619 q 524 357 608 449 q 369 182 439 265 l 853 182 l 808 0 l 63 0 l 94 129 q 225 290 150 203 q 381 464 300 376 q 544 633 463 551 q 696 781 626 715 l 271 781 l 315 963 l 1025 963 l 989 813 m 501 1258 l 585 1332 l 700 1224 l 857 1329 l 921 1244 l 672 1043 l 501 1258 z "},"ž":{"ha":731,"x_min":83,"x_max":842,"o":"m 808 593 q 725 517 776 565 q 614 412 674 469 q 492 291 554 354 q 375 169 429 228 l 714 169 l 672 0 l 83 0 l 113 121 q 205 229 153 171 q 313 347 257 288 q 426 462 369 407 q 531 561 482 517 l 233 561 l 275 731 l 842 731 l 808 593 m 413 1028 l 496 1101 l 611 993 l 768 1099 l 832 1014 l 583 813 l 413 1028 z "},"ſ":{"ha":604,"x_min":-53,"x_max":842,"o":"m 663 1078 q 772 1065 725 1078 q 842 1040 818 1051 l 772 878 q 715 897 747 890 q 654 903 682 903 q 541 864 578 903 q 490 767 504 825 l 357 207 q 254 -102 310 8 q 132 -262 199 -212 l -53 -236 q 14 -154 -17 -203 q 69 -51 44 -106 q 110 59 93 3 q 139 164 128 115 l 283 769 q 408 997 318 917 q 663 1078 499 1078 z "},"Ș":{"ha":776,"x_min":56,"x_max":874,"o":"m 374 161 q 438 166 406 161 q 494 183 469 171 q 535 219 519 196 q 551 278 551 242 q 536 326 551 306 q 497 363 521 346 q 444 393 474 379 q 386 424 415 407 q 315 471 349 446 q 258 527 282 496 q 221 597 235 558 q 207 685 207 635 q 231 803 207 749 q 303 899 256 858 q 424 962 351 939 q 593 985 496 985 q 679 977 638 985 q 757 958 721 969 q 823 933 793 947 q 874 904 853 918 l 783 744 q 699 789 749 771 q 590 807 649 807 q 529 801 558 807 q 478 783 500 796 q 442 749 456 769 q 429 697 429 728 q 440 651 429 669 q 467 618 450 632 q 506 593 483 604 q 553 569 528 582 q 636 522 596 547 q 707 465 676 497 q 756 390 738 432 q 774 292 774 349 q 744 154 774 213 q 663 57 715 96 q 537 -1 610 18 q 375 -19 464 -19 q 266 -10 317 -19 q 174 13 215 0 q 103 42 133 26 q 56 69 74 57 l 147 235 q 188 211 164 224 q 241 188 211 199 q 304 169 271 176 q 374 161 338 161 m 447 -69 q 419 -179 440 -135 q 369 -250 399 -224 q 301 -287 339 -276 q 222 -299 264 -299 q 143 -287 185 -299 l 172 -178 q 183 -179 178 -179 q 192 -179 188 -179 q 235 -170 218 -179 q 260 -146 251 -161 q 274 -111 269 -131 q 283 -69 279 -92 l 447 -69 z "},"ș":{"ha":671,"x_min":69,"x_max":740,"o":"m 429 -69 q 401 -179 422 -135 q 351 -250 381 -224 q 283 -287 321 -276 q 204 -299 246 -299 q 125 -287 167 -299 l 154 -178 q 165 -179 160 -179 q 174 -179 169 -179 q 217 -170 200 -179 q 242 -146 233 -161 q 256 -111 251 -131 q 265 -69 261 -92 l 429 -69 m 335 147 q 432 167 406 147 q 458 211 458 188 q 453 238 458 226 q 438 258 449 249 q 407 278 426 268 q 357 303 388 289 q 292 335 322 318 q 238 377 261 353 q 202 433 215 401 q 189 507 189 464 q 272 685 189 619 q 513 750 354 750 q 646 733 588 750 q 740 697 704 717 l 669 543 q 594 572 640 558 q 504 586 549 586 q 466 584 485 586 q 431 575 447 582 q 406 556 415 568 q 396 522 396 543 q 417 481 396 494 q 478 447 439 467 q 568 399 532 421 q 626 351 604 376 q 657 294 647 326 q 667 219 667 263 q 648 132 667 175 q 589 56 629 89 q 486 1 549 22 q 336 -19 424 -19 q 238 -12 282 -19 q 161 5 194 -6 q 105 26 128 15 q 69 44 82 38 l 140 203 q 214 168 164 189 q 335 147 264 147 z "},"Ț":{"ha":825,"x_min":165,"x_max":1026,"o":"m 469 -69 q 442 -179 463 -135 q 391 -250 421 -224 q 324 -287 361 -276 q 244 -299 286 -299 q 165 -287 207 -299 l 194 -178 q 205 -179 200 -179 q 214 -179 210 -179 q 257 -170 240 -179 q 283 -146 274 -161 q 297 -111 292 -131 q 306 -69 301 -92 l 469 -69 m 1026 963 l 982 781 l 700 781 l 513 0 l 296 0 l 483 781 l 201 781 l 246 963 l 1026 963 z "},"ț":{"ha":578,"x_min":118,"x_max":689,"o":"m 422 -69 q 394 -179 415 -135 q 344 -250 374 -224 q 276 -287 314 -276 q 197 -299 239 -299 q 118 -287 160 -299 l 147 -178 q 158 -179 153 -179 q 167 -179 163 -179 q 210 -170 193 -179 q 235 -146 226 -161 q 249 -111 244 -131 q 258 -69 254 -92 l 422 -69 m 296 913 l 511 946 l 458 731 l 689 731 l 647 561 l 418 561 l 357 306 q 347 246 349 274 q 353 198 344 218 q 385 167 363 178 q 446 156 407 156 q 510 162 479 156 q 574 179 542 168 l 589 21 q 499 -6 547 6 q 383 -17 450 -17 q 235 12 288 -17 q 160 90 182 40 q 140 203 138 139 q 160 338 143 267 l 296 913 z "},"ȷ":{"ha":403,"x_min":-125,"x_max":496,"o":"m 21 -257 q -56 -249 -18 -257 q -125 -231 -94 -242 l -72 -67 q -34 -78 -53 -74 q 8 -82 -15 -82 q 83 -53 57 -82 q 121 32 110 -24 l 289 731 l 496 731 l 326 26 q 222 -187 293 -118 q 21 -257 151 -257 z "},"ʼ":{"ha":378,"x_min":256,"x_max":538,"o":"m 538 1078 q 508 980 524 1021 q 475 905 493 939 q 433 838 457 871 q 379 768 410 806 l 256 811 q 297 881 279 849 q 326 944 314 913 q 345 1008 338 975 q 357 1078 353 1040 l 538 1078 z "},"ˇ":{"ha":553,"x_min":294,"x_max":714,"o":"m 294 1028 l 378 1101 l 493 993 l 650 1099 l 714 1014 l 465 813 l 294 1028 z "},"ˉ":{"ha":522,"x_min":232,"x_max":714,"o":"m 267 1007 l 714 1007 l 679 865 l 232 865 l 267 1007 z "},"˘":{"ha":569,"x_min":286,"x_max":728,"o":"m 432 1061 q 430 1047 431 1054 q 429 1033 429 1040 q 444 981 429 1000 q 493 963 458 963 q 552 988 526 963 q 586 1061 578 1013 l 728 1061 q 700 960 724 1003 q 642 888 676 917 q 565 845 607 860 q 479 831 522 831 q 407 842 442 831 q 345 876 372 853 q 302 933 318 899 q 286 1014 286 968 q 292 1061 286 1040 l 432 1061 z "},"˙":{"ha":744,"x_min":469,"x_max":689,"o":"m 568 833 q 497 858 525 833 q 469 928 469 883 q 506 1018 469 986 q 589 1050 543 1050 q 660 1025 631 1050 q 689 954 689 1000 q 678 904 689 926 q 651 866 668 882 q 612 842 633 850 q 568 833 590 833 z "},"˚":{"ha":450,"x_min":282,"x_max":610,"o":"m 610 971 q 597 902 610 932 q 560 852 583 872 q 508 822 538 832 q 444 811 478 811 q 383 822 413 811 q 331 852 354 832 q 295 902 308 872 q 282 971 282 932 q 295 1040 282 1010 q 331 1090 308 1069 q 383 1120 354 1110 q 444 1131 413 1131 q 508 1120 478 1131 q 560 1090 538 1110 q 597 1040 583 1069 q 610 971 610 1010 m 508 971 q 489 1019 508 1003 q 444 1036 469 1036 q 401 1019 421 1036 q 382 971 382 1003 q 401 922 382 939 q 444 906 421 906 q 489 922 469 906 q 508 971 508 939 z "},"˛":{"ha":433,"x_min":24,"x_max":376,"o":"m 308 -279 q 247 -299 281 -292 q 176 -307 213 -307 q 119 -301 147 -307 q 70 -281 92 -294 q 36 -244 49 -267 q 24 -189 24 -222 q 53 -103 24 -147 q 149 -18 82 -58 l 214 21 l 376 21 l 340 -4 q 242 -85 269 -53 q 214 -135 214 -117 q 249 -157 214 -157 q 290 -151 268 -157 q 322 -142 313 -144 l 308 -279 z "},"˝":{"ha":603,"x_min":242,"x_max":826,"o":"m 544 990 l 317 801 l 242 886 l 444 1110 l 544 990 m 826 990 l 599 801 l 524 886 l 726 1110 l 826 990 z "},"Ẁ":{"ha":1300,"x_min":222,"x_max":1494,"o":"m 926 860 q 934 731 929 803 q 945 581 939 658 q 958 428 951 504 q 972 286 965 351 q 1046 439 1008 357 q 1121 608 1083 521 q 1195 786 1158 696 q 1265 963 1232 876 l 1494 963 q 1274 460 1386 699 q 1032 0 1161 222 l 829 0 q 809 147 818 76 q 792 285 800 217 q 778 422 785 353 q 767 567 772 492 q 610 278 688 419 q 446 0 533 138 l 243 0 q 227 256 232 129 q 222 513 222 382 q 226 737 222 625 q 238 963 231 849 l 456 963 q 442 723 449 840 q 436 479 436 606 q 436 383 436 432 q 439 286 436 335 q 521 431 478 354 q 606 583 564 507 q 685 731 647 660 q 749 860 722 803 l 926 860 m 769 1329 l 957 1100 l 868 1019 l 642 1219 l 769 1329 z "},"ẁ":{"ha":1133,"x_min":181,"x_max":1272,"o":"m 669 428 q 610 312 643 371 q 544 197 578 253 q 478 90 510 140 q 421 0 446 39 l 260 0 q 237 139 249 58 q 214 315 225 219 q 194 516 203 410 q 181 731 185 622 l 383 731 q 384 622 383 681 q 387 501 385 564 q 393 374 389 439 q 404 244 397 308 q 473 366 439 303 q 538 492 507 429 q 597 617 569 556 q 644 731 624 678 l 817 731 q 820 507 817 631 q 838 244 824 383 q 907 373 875 307 q 966 503 939 439 q 1015 625 993 567 q 1053 731 1036 683 l 1272 731 q 1206 574 1244 661 q 1118 392 1168 488 q 1006 196 1068 296 q 867 0 943 96 l 706 0 q 681 218 689 114 q 669 428 672 322 m 642 1110 l 829 881 l 740 800 l 514 1000 l 642 1110 z "},"Ẃ":{"ha":1300,"x_min":222,"x_max":1494,"o":"m 926 860 q 934 731 929 803 q 945 581 939 658 q 958 428 951 504 q 972 286 965 351 q 1046 439 1008 357 q 1121 608 1083 521 q 1195 786 1158 696 q 1265 963 1232 876 l 1494 963 q 1274 460 1386 699 q 1032 0 1161 222 l 829 0 q 809 147 818 76 q 792 285 800 217 q 778 422 785 353 q 767 567 772 492 q 610 278 688 419 q 446 0 533 138 l 243 0 q 227 256 232 129 q 222 513 222 382 q 226 737 222 625 q 238 963 231 849 l 456 963 q 442 723 449 840 q 436 479 436 606 q 436 383 436 432 q 439 286 436 335 q 521 431 478 354 q 606 583 564 507 q 685 731 647 660 q 749 860 722 803 l 926 860 m 1081 1208 l 835 1019 l 751 1106 l 974 1329 l 1081 1208 z "},"ẃ":{"ha":1133,"x_min":181,"x_max":1272,"o":"m 669 428 q 610 312 643 371 q 544 197 578 253 q 478 90 510 140 q 421 0 446 39 l 260 0 q 237 139 249 58 q 214 315 225 219 q 194 516 203 410 q 181 731 185 622 l 383 731 q 384 622 383 681 q 387 501 385 564 q 393 374 389 439 q 404 244 397 308 q 473 366 439 303 q 538 492 507 429 q 597 617 569 556 q 644 731 624 678 l 817 731 q 820 507 817 631 q 838 244 824 383 q 907 373 875 307 q 966 503 939 439 q 1015 625 993 567 q 1053 731 1036 683 l 1272 731 q 1206 574 1244 661 q 1118 392 1168 488 q 1006 196 1068 296 q 867 0 943 96 l 706 0 q 681 218 689 114 q 669 428 672 322 m 946 989 l 700 800 l 617 886 l 839 1110 l 946 989 z "},"Ẅ":{"ha":1300,"x_min":222,"x_max":1494,"o":"m 926 860 q 934 731 929 803 q 945 581 939 658 q 958 428 951 504 q 972 286 965 351 q 1046 439 1008 357 q 1121 608 1083 521 q 1195 786 1158 696 q 1265 963 1232 876 l 1494 963 q 1274 460 1386 699 q 1032 0 1161 222 l 829 0 q 809 147 818 76 q 792 285 800 217 q 778 422 785 353 q 767 567 772 492 q 610 278 688 419 q 446 0 533 138 l 243 0 q 227 256 232 129 q 222 513 222 382 q 226 737 222 625 q 238 963 231 849 l 456 963 q 442 723 449 840 q 436 479 436 606 q 436 383 436 432 q 439 286 436 335 q 521 431 478 354 q 606 583 564 507 q 685 731 647 660 q 749 860 722 803 l 926 860 m 735 1044 q 668 1069 694 1044 q 642 1136 642 1094 q 651 1185 642 1163 q 677 1222 661 1207 q 713 1247 693 1238 q 754 1256 733 1256 q 821 1230 793 1256 q 849 1161 849 1204 q 838 1115 849 1136 q 811 1077 828 1093 q 774 1053 794 1061 q 735 1044 754 1044 m 1043 1044 q 976 1069 1003 1044 q 950 1136 950 1094 q 960 1185 950 1163 q 985 1222 969 1207 q 1022 1247 1001 1238 q 1063 1256 1042 1256 q 1129 1230 1101 1256 q 1157 1161 1157 1204 q 1147 1115 1157 1136 q 1119 1077 1136 1093 q 1083 1053 1103 1061 q 1043 1044 1063 1044 z "},"ẅ":{"ha":1133,"x_min":181,"x_max":1272,"o":"m 669 428 q 610 312 643 371 q 544 197 578 253 q 478 90 510 140 q 421 0 446 39 l 260 0 q 237 139 249 58 q 214 315 225 219 q 194 516 203 410 q 181 731 185 622 l 383 731 q 384 622 383 681 q 387 501 385 564 q 393 374 389 439 q 404 244 397 308 q 473 366 439 303 q 538 492 507 429 q 597 617 569 556 q 644 731 624 678 l 817 731 q 820 507 817 631 q 838 244 824 383 q 907 373 875 307 q 966 503 939 439 q 1015 625 993 567 q 1053 731 1036 683 l 1272 731 q 1206 574 1244 661 q 1118 392 1168 488 q 1006 196 1068 296 q 867 0 943 96 l 706 0 q 681 218 689 114 q 669 428 672 322 m 603 836 q 536 861 563 836 q 510 928 510 886 q 519 976 510 954 q 545 1014 529 999 q 581 1038 561 1029 q 622 1047 601 1047 q 689 1022 661 1047 q 717 953 717 996 q 706 906 717 928 q 679 869 696 885 q 642 844 663 853 q 603 836 622 836 m 911 836 q 844 861 871 836 q 818 928 818 886 q 828 976 818 954 q 853 1014 838 999 q 890 1038 869 1029 q 931 1047 910 1047 q 997 1022 969 1047 q 1025 953 1025 996 q 1015 906 1025 928 q 988 869 1004 885 q 951 844 971 853 q 911 836 931 836 z "},"Ỳ":{"ha":906,"x_min":236,"x_max":1100,"o":"m 574 567 q 651 666 614 618 q 722 762 688 714 q 791 859 757 810 q 861 963 825 908 l 1100 963 q 988 807 1042 881 q 879 663 933 733 q 768 524 825 593 q 647 381 711 454 l 556 0 l 339 0 l 431 381 q 325 668 372 528 q 236 963 278 808 l 467 963 q 515 767 489 863 q 574 567 542 671 m 575 1332 l 763 1103 l 674 1022 l 447 1222 l 575 1332 z "},"ỳ":{"ha":739,"x_min":-35,"x_max":878,"o":"m 878 731 q 799 533 839 625 q 717 359 760 442 q 628 201 674 276 q 531 53 582 126 q 453 -57 493 -1 q 363 -157 413 -112 q 253 -229 314 -201 q 114 -257 193 -257 q 31 -248 65 -257 q -35 -224 -4 -239 l 28 -61 q 78 -78 56 -72 q 132 -85 100 -85 q 224 -53 181 -85 q 297 31 268 -22 q 231 342 261 169 q 190 731 201 514 l 403 731 q 408 611 404 676 q 418 480 413 546 q 431 351 424 414 q 446 239 438 289 q 563 461 513 339 q 658 731 614 583 l 878 731 m 472 1110 l 660 881 l 571 800 l 344 1000 l 472 1110 z "},"⁄":{"ha":211,"x_min":-351,"x_max":564,"o":"m 564 963 l -160 0 l -351 0 l 375 963 l 564 963 z "},"⁰":{"ha":504,"x_min":147,"x_max":629,"o":"m 147 603 q 168 760 147 689 q 228 881 189 831 q 322 958 267 931 q 449 985 378 985 q 540 968 504 985 q 594 924 575 951 q 622 863 614 897 q 629 793 629 829 q 608 636 629 707 q 549 515 588 565 q 454 438 510 465 q 328 411 399 411 q 237 428 272 411 q 182 472 201 444 q 155 533 163 499 q 147 603 147 567 m 293 622 q 303 562 293 586 q 343 538 314 538 q 407 560 381 538 q 450 618 433 583 q 475 694 467 653 q 483 775 483 736 q 473 835 483 811 q 433 860 463 860 q 369 837 396 860 q 326 779 343 814 q 301 703 310 744 q 293 622 293 661 z "},"⁴":{"ha":504,"x_min":124,"x_max":622,"o":"m 622 974 l 544 653 l 608 653 l 582 542 l 518 542 l 488 418 l 357 418 l 388 542 l 124 542 l 144 638 q 305 819 221 736 q 493 974 389 901 l 622 974 m 457 829 q 369 747 414 792 q 288 653 324 701 l 414 653 l 457 829 z "},"⁵":{"ha":504,"x_min":114,"x_max":632,"o":"m 365 775 q 467 750 428 765 q 526 714 506 735 q 554 667 547 693 q 561 608 561 640 q 546 537 561 572 q 497 473 531 501 q 413 426 464 444 q 290 408 361 408 q 202 420 250 408 q 114 454 154 432 l 171 571 q 244 547 207 554 q 317 539 281 539 q 385 554 357 539 q 414 608 414 569 q 365 658 414 644 q 203 675 315 671 q 231 753 217 711 q 259 837 246 796 q 284 914 272 878 q 303 974 296 950 l 632 974 l 603 847 l 390 847 q 378 812 385 833 q 365 775 372 790 z "},"⁶":{"ha":504,"x_min":153,"x_max":618,"o":"m 607 858 q 440 835 504 857 q 335 764 376 813 q 421 776 374 776 q 477 769 450 776 q 525 744 504 761 q 559 696 546 726 q 572 619 572 665 q 552 530 572 569 q 499 463 532 490 q 426 422 467 436 q 343 408 385 408 q 272 419 306 408 q 211 453 238 431 q 169 513 185 476 q 153 597 153 549 q 178 738 153 669 q 260 860 204 807 q 405 944 317 913 q 618 976 493 976 l 607 858 m 344 528 q 411 555 389 528 q 433 613 433 582 q 417 657 433 638 q 367 676 401 676 q 333 673 351 676 q 297 664 315 669 q 288 631 292 649 q 285 597 285 613 q 298 549 285 569 q 344 528 311 528 z "},"⁷":{"ha":504,"x_min":214,"x_max":685,"o":"m 214 419 q 303 635 242 529 q 474 840 364 742 l 226 840 l 258 974 l 685 974 l 657 857 q 560 758 607 811 q 474 649 513 706 q 406 535 435 593 q 367 419 378 476 l 214 419 z "},"⁸":{"ha":504,"x_min":143,"x_max":633,"o":"m 633 857 q 606 769 633 810 q 522 701 579 728 q 572 652 558 679 q 586 594 586 625 q 565 513 586 547 q 508 454 543 478 q 428 419 472 431 q 340 407 385 407 q 266 415 301 407 q 203 441 231 424 q 160 484 176 458 q 143 544 143 510 q 173 638 143 594 q 271 710 203 682 q 228 757 239 732 q 217 810 217 782 q 238 886 217 853 q 292 941 258 919 q 367 974 325 963 q 450 985 408 985 q 519 976 486 985 q 578 952 553 968 q 618 913 603 936 q 633 857 633 889 m 354 661 q 297 618 318 646 q 275 567 275 590 q 293 531 275 546 q 351 517 311 517 q 423 538 396 517 q 450 588 450 560 q 381 653 450 631 l 354 661 m 346 817 q 421 747 346 774 l 429 743 q 482 784 461 758 q 503 833 503 810 q 487 866 503 853 q 435 879 471 879 q 370 860 394 879 q 346 817 346 842 z "},"⁹":{"ha":504,"x_min":167,"x_max":632,"o":"m 178 535 q 344 558 281 536 q 449 628 408 579 q 364 617 407 617 q 308 624 335 617 q 260 649 281 632 q 226 697 239 667 q 213 774 213 728 q 233 863 213 824 q 285 930 253 903 q 359 971 318 957 q 442 985 400 985 q 513 974 479 985 q 574 940 547 963 q 616 881 600 917 q 632 796 632 844 q 606 654 632 722 q 524 533 581 586 q 380 449 468 481 q 167 417 292 417 l 178 535 m 440 865 q 374 838 396 865 q 351 781 351 811 q 367 736 351 756 q 418 717 383 717 q 451 720 433 717 q 488 729 469 724 q 497 763 493 744 q 500 796 500 781 q 487 844 500 824 q 440 865 474 865 z "},"₀":{"ha":504,"x_min":86,"x_max":568,"o":"m 86 186 q 107 343 86 272 q 167 464 128 414 q 261 541 206 514 q 388 568 317 568 q 478 551 443 568 q 533 508 514 535 q 560 447 553 481 q 568 376 568 413 q 547 219 568 290 q 488 99 526 149 q 393 22 449 49 q 267 -6 338 -6 q 176 11 211 -6 q 121 55 140 28 q 94 116 101 82 q 86 186 86 150 m 232 206 q 242 145 232 169 q 282 121 253 121 q 346 144 319 121 q 389 201 372 167 q 414 278 406 236 q 422 358 422 319 q 412 419 422 394 q 372 443 401 443 q 308 420 335 443 q 265 363 282 397 q 240 286 249 328 q 232 206 232 244 z "},"₁":{"ha":504,"x_min":149,"x_max":506,"o":"m 149 442 q 276 495 215 465 q 385 557 336 525 l 506 557 l 374 3 l 215 3 l 304 378 q 241 349 274 363 q 164 321 208 336 l 149 442 z "},"₂":{"ha":504,"x_min":49,"x_max":507,"o":"m 475 129 l 447 3 l 49 3 q 57 83 49 46 q 86 153 65 119 q 144 217 107 186 q 239 281 181 249 q 303 319 279 303 q 339 348 326 335 q 355 373 351 361 q 358 399 358 385 q 344 428 358 417 q 307 439 331 439 q 245 424 281 439 q 165 372 210 408 l 114 482 q 335 568 208 568 q 401 560 369 568 q 456 534 432 551 q 493 489 479 517 q 507 424 507 461 q 474 312 507 360 q 365 217 440 264 q 326 192 346 204 q 290 169 307 181 q 260 147 272 157 q 243 129 247 138 l 475 129 z "},"₃":{"ha":504,"x_min":63,"x_max":539,"o":"m 118 153 q 185 126 144 136 q 265 115 225 115 q 343 131 310 115 q 376 182 376 146 q 356 219 376 206 q 289 232 335 232 l 218 232 l 246 339 l 308 339 q 377 360 353 339 q 401 404 401 381 q 386 433 401 421 q 338 446 371 446 q 267 435 303 446 q 203 410 231 424 l 174 521 q 263 553 208 539 q 374 568 318 568 q 437 562 407 568 q 490 540 467 556 q 526 498 513 524 q 539 435 539 472 q 515 356 539 394 q 447 297 492 317 q 496 251 478 282 q 514 182 514 219 q 492 93 514 129 q 433 34 469 57 q 351 1 397 11 q 257 -10 304 -10 q 150 2 201 -10 q 63 36 99 14 l 118 153 z "},"₄":{"ha":504,"x_min":57,"x_max":556,"o":"m 556 557 l 478 236 l 542 236 l 515 125 l 451 125 l 421 1 l 290 1 l 321 125 l 57 125 l 78 221 q 238 402 154 319 q 426 557 322 485 l 556 557 m 390 413 q 302 330 347 375 q 221 236 257 285 l 347 236 l 390 413 z "},"₅":{"ha":504,"x_min":47,"x_max":565,"o":"m 299 358 q 400 333 361 349 q 460 297 439 318 q 488 250 481 276 q 494 192 494 224 q 479 120 494 156 q 431 56 464 85 q 346 10 397 28 q 224 -8 294 -8 q 135 3 183 -8 q 47 38 88 15 l 104 154 q 177 130 140 138 q 250 122 214 122 q 319 138 290 122 q 347 192 347 153 q 298 241 347 228 q 136 258 249 254 q 165 337 150 294 q 192 420 179 379 q 217 497 206 461 q 236 557 229 533 l 565 557 l 536 431 l 324 431 q 312 395 318 417 q 299 358 306 374 z "},"₆":{"ha":504,"x_min":86,"x_max":551,"o":"m 540 442 q 374 418 438 440 q 268 347 310 396 q 354 360 307 360 q 410 352 383 360 q 458 327 438 344 q 492 279 479 310 q 506 203 506 249 q 485 113 506 153 q 433 47 465 74 q 359 6 400 19 q 276 -8 318 -8 q 205 3 239 -8 q 144 37 171 14 q 102 96 118 60 q 86 181 86 132 q 112 322 86 253 q 194 443 138 390 q 338 528 250 496 q 551 560 426 560 l 540 442 m 278 111 q 344 138 322 111 q 367 196 367 165 q 351 240 367 221 q 300 260 335 260 q 267 256 285 260 q 231 247 249 253 q 222 214 225 232 q 218 181 218 196 q 231 132 218 153 q 278 111 244 111 z "},"₇":{"ha":504,"x_min":119,"x_max":590,"o":"m 119 3 q 208 219 147 113 q 379 424 269 325 l 132 424 l 164 557 l 590 557 l 563 440 q 465 342 513 394 q 379 233 418 289 q 312 118 340 176 q 272 3 283 60 l 119 3 z "},"₈":{"ha":504,"x_min":63,"x_max":553,"o":"m 553 440 q 526 352 553 393 q 442 285 499 311 q 492 235 478 263 q 506 178 506 208 q 484 96 506 131 q 427 38 463 61 q 348 2 392 14 q 260 -10 304 -10 q 185 -1 221 -10 q 123 24 150 7 q 79 67 96 42 q 63 128 63 93 q 92 222 63 178 q 190 293 122 265 q 147 340 158 315 q 136 393 136 365 q 157 469 136 436 q 211 524 178 503 q 286 557 244 546 q 369 568 328 568 q 439 560 406 568 q 497 535 472 551 q 538 496 522 519 q 553 440 553 472 m 274 244 q 216 201 238 229 q 194 150 194 174 q 213 115 194 129 q 271 100 231 100 q 342 122 315 100 q 369 171 369 143 q 300 236 369 214 l 274 244 m 265 400 q 340 331 265 357 l 349 326 q 401 367 381 342 q 422 417 422 393 q 406 449 422 436 q 354 463 390 463 q 290 444 314 463 q 265 400 265 425 z "},"₉":{"ha":504,"x_min":86,"x_max":551,"o":"m 97 118 q 264 141 200 119 q 368 211 328 163 q 283 200 326 200 q 227 208 254 200 q 179 233 200 215 q 145 281 158 250 q 132 357 132 311 q 152 447 132 407 q 205 513 172 486 q 278 554 238 540 q 361 568 319 568 q 433 557 399 568 q 493 523 467 546 q 535 464 519 500 q 551 379 551 428 q 526 238 551 306 q 444 117 500 169 q 299 32 388 64 q 86 0 211 0 l 97 118 m 360 449 q 293 422 315 449 q 271 364 271 394 q 287 319 271 339 q 338 300 303 300 q 371 303 353 300 q 407 313 389 307 q 416 346 413 328 q 419 379 419 364 q 406 428 419 407 q 360 449 393 449 z "},"ℓ":{"ha":751,"x_min":119,"x_max":786,"o":"m 786 85 q 665 8 733 35 q 514 -19 597 -19 q 329 36 396 -19 q 249 214 263 92 l 186 169 l 119 269 q 184 319 153 296 q 246 367 215 342 l 246 700 q 319 987 246 896 q 514 1078 392 1078 q 615 1057 572 1078 q 685 1001 657 1036 q 727 918 714 965 q 740 818 740 871 q 660 575 740 692 q 438 332 581 458 l 438 286 q 556 156 438 156 q 633 174 594 156 q 701 218 672 193 l 786 85 m 438 517 q 555 676 510 596 q 600 824 600 756 q 583 906 600 878 q 525 933 567 933 q 492 924 508 933 q 465 890 476 914 q 445 824 453 865 q 438 722 438 783 l 438 517 z "},"℮":{"ha":1300,"x_min":207,"x_max":1321,"o":"m 418 468 q 411 463 411 468 l 411 189 q 424 158 411 171 q 576 49 490 88 q 764 10 663 10 q 965 55 874 10 q 1124 175 1057 100 l 1203 175 q 1119 95 1167 131 q 1014 35 1071 60 q 893 -4 957 10 q 763 -18 829 -18 q 546 22 647 -18 q 369 128 444 61 q 251 287 294 196 q 207 482 207 378 q 251 677 207 586 q 369 836 294 768 q 546 944 444 904 q 763 983 647 983 q 980 944 878 983 q 1158 836 1082 904 q 1277 677 1233 768 q 1321 482 1321 586 l 1321 468 l 418 468 m 1115 778 q 1103 811 1115 796 q 950 915 1036 878 q 764 953 864 953 q 578 913 664 953 q 425 806 492 872 q 415 791 418 800 q 411 772 411 782 l 411 504 q 418 494 411 494 l 1110 494 q 1115 504 1115 494 l 1115 778 z "},"⅓":{"ha":1219,"x_min":217,"x_max":1229,"o":"m 808 142 q 875 115 835 125 q 956 104 915 104 q 1033 119 1000 104 q 1067 171 1067 135 q 1046 208 1067 194 q 979 221 1025 221 l 908 221 l 936 328 l 999 328 q 1067 349 1043 328 q 1092 393 1092 369 q 1076 422 1092 410 q 1028 435 1061 435 q 957 424 993 435 q 893 399 921 413 l 864 510 q 953 542 899 528 q 1064 557 1008 557 q 1127 551 1097 557 q 1180 528 1157 544 q 1216 487 1203 513 q 1229 424 1229 461 q 1206 344 1229 383 q 1138 286 1182 306 q 1186 240 1168 271 q 1204 171 1204 208 q 1182 82 1204 118 q 1124 23 1160 46 q 1041 -10 1088 0 q 947 -21 994 -21 q 840 -9 892 -21 q 753 25 789 3 l 808 142 m 217 858 q 344 912 283 882 q 453 974 404 942 l 574 974 l 442 419 l 283 419 l 372 794 q 309 766 342 779 q 232 738 276 753 l 217 858 m 1154 963 l 431 0 l 239 0 l 965 963 l 1154 963 z "},"⅔":{"ha":1219,"x_min":104,"x_max":1257,"o":"m 836 142 q 903 115 863 125 q 983 104 943 104 q 1061 119 1028 104 q 1094 171 1094 135 q 1074 208 1094 194 q 1007 221 1053 221 l 936 221 l 964 328 l 1026 328 q 1095 349 1071 328 q 1119 393 1119 369 q 1104 422 1119 410 q 1056 435 1089 435 q 985 424 1021 435 q 921 399 949 413 l 892 510 q 981 542 926 528 q 1092 557 1036 557 q 1155 551 1125 557 q 1208 528 1185 544 q 1244 487 1231 513 q 1257 424 1257 461 q 1233 344 1257 383 q 1165 286 1210 306 q 1214 240 1196 271 q 1232 171 1232 208 q 1210 82 1232 118 q 1151 23 1188 46 q 1069 -10 1115 0 q 975 -21 1022 -21 q 868 -9 919 -21 q 781 25 817 3 l 836 142 m 531 546 l 503 419 l 104 419 q 113 499 104 463 q 142 569 121 536 q 199 634 163 603 q 294 697 236 665 q 358 735 335 719 q 394 765 382 751 q 410 790 407 778 q 414 815 414 801 q 400 844 414 833 q 363 856 386 856 q 301 840 336 856 q 221 789 265 825 l 169 899 q 390 985 264 985 q 456 976 425 985 q 511 951 488 968 q 549 906 535 933 q 563 840 563 878 q 529 728 563 776 q 421 633 496 681 q 382 609 401 621 q 345 585 363 597 q 315 564 328 574 q 299 546 303 554 l 531 546 m 1182 963 l 458 0 l 267 0 l 993 963 l 1182 963 z "},"⅛":{"ha":1219,"x_min":204,"x_max":1250,"o":"m 204 858 q 331 912 271 882 q 440 974 392 942 l 561 974 l 429 419 l 271 419 l 360 794 q 297 766 329 779 q 219 738 264 753 l 204 858 m 1140 963 l 417 0 l 225 0 l 951 963 l 1140 963 m 1250 440 q 1223 352 1250 393 q 1139 285 1196 311 q 1189 235 1175 263 q 1203 178 1203 208 q 1181 96 1203 131 q 1124 38 1160 61 q 1045 2 1089 14 q 957 -10 1001 -10 q 883 -1 918 -10 q 820 24 847 7 q 776 67 793 42 q 760 128 760 93 q 790 222 760 178 q 888 293 819 265 q 844 340 856 315 q 833 393 833 365 q 854 469 833 436 q 908 524 875 503 q 983 557 942 546 q 1067 568 1025 568 q 1136 560 1103 568 q 1194 535 1169 551 q 1235 496 1219 519 q 1250 440 1250 472 m 971 244 q 913 201 935 229 q 892 150 892 174 q 910 115 892 129 q 968 100 928 100 q 1040 122 1013 100 q 1067 171 1067 143 q 997 236 1067 214 l 971 244 m 963 400 q 1038 331 963 357 l 1046 326 q 1099 367 1078 342 q 1119 417 1119 393 q 1103 449 1119 436 q 1051 463 1088 463 q 987 444 1011 463 q 963 400 963 425 z "},"⅜":{"ha":1219,"x_min":104,"x_max":1278,"o":"m 160 569 q 226 542 186 553 q 307 532 267 532 q 385 547 351 532 q 418 599 418 563 q 397 635 418 622 q 331 649 376 649 l 260 649 l 288 756 l 350 756 q 419 776 394 756 q 443 821 443 797 q 428 850 443 838 q 379 863 413 863 q 308 851 344 863 q 244 826 272 840 l 215 938 q 305 970 250 956 q 415 985 360 985 q 478 978 449 985 q 531 956 508 972 q 567 915 554 940 q 581 851 581 889 q 557 772 581 811 q 489 714 533 733 q 538 667 519 699 q 556 599 556 636 q 533 510 556 546 q 475 451 511 474 q 392 417 439 428 q 299 407 346 407 q 192 419 243 407 q 104 453 140 431 l 160 569 m 1168 963 l 444 0 l 253 0 l 979 963 l 1168 963 m 1278 440 q 1251 352 1278 393 q 1167 285 1224 311 q 1217 235 1203 263 q 1231 178 1231 208 q 1209 96 1231 131 q 1152 38 1188 61 q 1073 2 1117 14 q 985 -10 1029 -10 q 910 -1 946 -10 q 848 24 875 7 q 804 67 821 42 q 788 128 788 93 q 817 222 788 178 q 915 293 847 265 q 872 340 883 315 q 861 393 861 365 q 882 469 861 436 q 936 524 903 503 q 1011 557 969 546 q 1094 568 1053 568 q 1164 560 1131 568 q 1222 535 1197 551 q 1263 496 1247 519 q 1278 440 1278 472 m 999 244 q 941 201 963 229 q 919 150 919 174 q 938 115 919 129 q 996 100 956 100 q 1067 122 1040 100 q 1094 171 1094 143 q 1025 236 1094 214 l 999 244 m 990 400 q 1065 331 990 357 l 1074 326 q 1126 367 1106 342 q 1147 417 1147 393 q 1131 449 1147 436 q 1079 463 1115 463 q 1015 444 1039 463 q 990 400 990 425 z "},"⅝":{"ha":1219,"x_min":108,"x_max":1264,"o":"m 360 775 q 461 750 422 765 q 521 714 500 735 q 549 667 542 693 q 556 608 556 640 q 540 537 556 572 q 492 473 525 501 q 407 426 458 444 q 285 408 356 408 q 197 420 244 408 q 108 454 149 432 l 165 571 q 238 547 201 554 q 311 539 275 539 q 380 554 351 539 q 408 608 408 569 q 359 658 408 644 q 197 675 310 671 q 226 753 211 711 q 253 837 240 796 q 278 914 267 878 q 297 974 290 950 l 626 974 l 597 847 l 385 847 q 373 812 379 833 q 360 775 367 790 m 1154 963 l 431 0 l 239 0 l 965 963 l 1154 963 m 1264 440 q 1237 352 1264 393 q 1153 285 1210 311 q 1203 235 1189 263 q 1217 178 1217 208 q 1195 96 1217 131 q 1138 38 1174 61 q 1059 2 1103 14 q 971 -10 1015 -10 q 897 -1 932 -10 q 834 24 861 7 q 790 67 807 42 q 774 128 774 93 q 803 222 774 178 q 901 293 833 265 q 858 340 869 315 q 847 393 847 365 q 868 469 847 436 q 922 524 889 503 q 997 557 956 546 q 1081 568 1039 568 q 1150 560 1117 568 q 1208 535 1183 551 q 1249 496 1233 519 q 1264 440 1264 472 m 985 244 q 927 201 949 229 q 906 150 906 174 q 924 115 906 129 q 982 100 942 100 q 1053 122 1026 100 q 1081 171 1081 143 q 1011 236 1081 214 l 985 244 m 976 400 q 1051 331 976 357 l 1060 326 q 1113 367 1092 342 q 1133 417 1133 393 q 1117 449 1133 436 q 1065 463 1101 463 q 1001 444 1025 463 q 976 400 976 425 z "},"⅞":{"ha":1219,"x_min":225,"x_max":1250,"o":"m 229 419 q 318 635 257 529 q 489 840 379 742 l 242 840 l 274 974 l 700 974 l 672 857 q 575 758 622 811 q 489 649 528 706 q 422 535 450 593 q 382 419 393 476 l 229 419 m 1140 963 l 417 0 l 225 0 l 951 963 l 1140 963 m 1250 440 q 1223 352 1250 393 q 1139 285 1196 311 q 1189 235 1175 263 q 1203 178 1203 208 q 1181 96 1203 131 q 1124 38 1160 61 q 1045 2 1089 14 q 957 -10 1001 -10 q 883 -1 918 -10 q 820 24 847 7 q 776 67 793 42 q 760 128 760 93 q 790 222 760 178 q 888 293 819 265 q 844 340 856 315 q 833 393 833 365 q 854 469 833 436 q 908 524 875 503 q 983 557 942 546 q 1067 568 1025 568 q 1136 560 1103 568 q 1194 535 1169 551 q 1235 496 1219 519 q 1250 440 1250 472 m 971 244 q 913 201 935 229 q 892 150 892 174 q 910 115 892 129 q 968 100 928 100 q 1040 122 1013 100 q 1067 171 1067 143 q 997 236 1067 214 l 971 244 m 963 400 q 1038 331 963 357 l 1046 326 q 1099 367 1078 342 q 1119 417 1119 393 q 1103 449 1119 436 q 1051 463 1088 463 q 987 444 1011 463 q 963 400 963 425 z "},"⅕":{"ha":1219,"x_min":217,"x_max":1233,"o":"m 967 347 q 1068 322 1029 338 q 1128 286 1107 307 q 1156 239 1149 265 q 1163 181 1163 213 q 1147 109 1163 144 q 1099 45 1132 74 q 1014 -1 1065 17 q 892 -19 963 -19 q 803 -8 851 -19 q 715 26 756 4 l 772 143 q 845 119 808 126 q 918 111 882 111 q 987 126 958 111 q 1015 181 1015 142 q 966 230 1015 217 q 804 247 917 243 q 833 326 818 283 q 860 409 847 368 q 885 486 874 450 q 904 546 897 522 l 1233 546 l 1204 419 l 992 419 q 980 384 986 406 q 967 347 974 363 m 217 858 q 344 912 283 882 q 453 974 404 942 l 574 974 l 442 419 l 283 419 l 372 794 q 309 766 342 779 q 232 738 276 753 l 217 858 m 1140 963 l 417 0 l 225 0 l 951 963 l 1140 963 z "}}}
